<?xml version="1.0" standalone="no"?>
<!DOCTYPE svg PUBLIC "-//W3C//DTD SVG 1.1//EN" "http://www.w3.org/Graphics/SVG/1.1/DTD/svg11.dtd" >
<svg xmlns="http://www.w3.org/2000/svg" xmlns:xlink="http://www.w3.org/1999/xlink" version="1.1">
<metadata>
Created by FontForge 20201107 at Wed Nov 29 19:54:44 2023
 By 
Copyright (c) 2022, 2023 by The Type Founders, LLC. All rights reserved.
</metadata>
<defs>
<font id="ManifoldExtdCF-Regular" horiz-adv-x="1016" >
  <font-face 
    font-family="Manifold Extd CF"
    font-weight="400"
    font-stretch="normal"
    units-per-em="1000"
    panose-1="0 0 0 0 0 0 0 0 0 0"
    ascent="800"
    descent="-200"
    x-height="500"
    cap-height="700"
    bbox="-198.286 -255 1791 1108"
    underline-thickness="50"
    underline-position="-125"
    unicode-range="U+0020-FB02"
  />
<missing-glyph horiz-adv-x="500" 
d="M410 -200h-317v1000h317v-1000zM167 118v-113h166v113h-166zM300 38h-100v47h100v-47zM233 291v-56h34v23h33v-47h-100v80h-33v-113h166v113h-100zM300 413v-66h-133v-34h166v100h-33zM167 473v-33h66v-37h-66v-33h100v70h66v33h-166zM233 534h-33v36h33v-36zM167 604
v-104h166v34h-66v70h-100zM168 733v-33h65v-37h-66v-33h166v33h-66v37h66v33h-165zM167 -18v-33h70l-70 -47v-33h166v33h-102l70 47h32v33h-166z" />
    <glyph glyph-name="fi" unicode="fi" horiz-adv-x="757" 
d="M167 15q0 -15 -15 -15h-33q-15 0 -15 15v425h-49q-15 0 -15 15v30q0 15 15 15h49v28q0 85 44 128.5t129 43.5h272q15 0 15 -15v-30q0 -15 -15 -15h-270q-56 0 -84 -27.5t-28 -86.5v-26h526q14 0 14 -14v-472q0 -14 -14 -14h-36q-14 0 -14 14v426h-476v-425zM643 651v35
q0 14 14 14h36q14 0 14 -14v-35q0 -15 -14 -15h-36q-14 0 -14 15z" />
    <glyph glyph-name="fl" unicode="fl" horiz-adv-x="766" 
d="M195 612.5q-28 -27.5 -28 -86.5v-26h372q15 0 15 -15v-30q0 -15 -15 -15h-372v-425q0 -15 -15 -15h-33q-15 0 -15 15v425h-49q-15 0 -15 15v30q0 15 15 15h49v28q0 85 44 128.5t129 43.5h425q14 0 14 -14v-672q0 -14 -14 -14h-36q-14 0 -14 14v626h-373q-56 0 -84 -27.5z
" />
    <glyph glyph-name="f_t.liga" unicode="ft" horiz-adv-x="1007" 
d="M645 43.5q-44 43.5 -44 127.5v269h-434v-425q0 -15 -15 -15h-33q-15 0 -15 15v425h-49q-15 0 -15 15v30q0 15 15 15h49v28q0 85 44 128.5t129 43.5h272q15 0 15 -15v-30q0 -15 -15 -15h-270q-56 0 -84 -27.5t-28 -86.5v-26h434v60q0 15 14 15h36q14 0 14 -15v-60h282
q8 0 11.5 -3t3.5 -11v-32q0 -14 -14 -14h-283v-267q0 -58 28 -85.5t84 -27.5h169q16 0 16 -15v-30q0 -15 -15 -15h-172q-86 0 -130 43.5z" />
    <glyph glyph-name=".notdef" horiz-adv-x="500" 
d="M410 -200h-317v1000h317v-1000zM167 118v-113h166v113h-166zM300 38h-100v47h100v-47zM233 291v-56h34v23h33v-47h-100v80h-33v-113h166v113h-100zM300 413v-66h-133v-34h166v100h-33zM167 473v-33h66v-37h-66v-33h100v70h66v33h-166zM233 534h-33v36h33v-36zM167 604
v-104h166v34h-66v70h-100zM168 733v-33h65v-37h-66v-33h166v33h-66v37h66v33h-165zM167 -18v-33h70l-70 -47v-33h166v33h-102l70 47h32v33h-166z" />
    <glyph glyph-name=".null" horiz-adv-x="0" 
 />
    <glyph glyph-name="nonmarkingreturn" horiz-adv-x="333" 
 />
    <glyph glyph-name="space" unicode=" " horiz-adv-x="200" 
 />
    <glyph glyph-name="space" unicode="&#xa0;" horiz-adv-x="200" 
 />
    <glyph glyph-name="exclam" unicode="!" horiz-adv-x="201" 
d="M69 171q-3 3 -3 10v506q0 8 3 10.5t10 2.5h43q8 0 10.5 -2.5t2.5 -10.5v-506q0 -7 -2.5 -10t-10.5 -3h-43q-7 0 -10 3zM68 3q-3 3 -3 10v44q0 8 3 11t10 3h44q14 0 14 -14v-44q0 -7 -3 -10t-11 -3h-44q-7 0 -10 3z" />
    <glyph glyph-name="quotedbl" unicode="&#x22;" horiz-adv-x="356" 
d="M230 415q-3 3 -3 10v262q0 8 3 10.5t10 2.5h38q8 0 10.5 -2.5t2.5 -10.5v-262q0 -7 -2.5 -10t-10.5 -3h-38q-7 0 -10 3zM68 415q-3 3 -3 10v262q0 8 3 10.5t10 2.5h38q8 0 10.5 -2.5t2.5 -10.5v-262q0 -7 -2.5 -10t-10.5 -3h-38q-7 0 -10 3z" />
    <glyph glyph-name="numbersign" unicode="#" horiz-adv-x="832" 
d="M595 12v176h-359v-176q0 -12 -12 -12h-40q-12 0 -12 12v176h-100q-12 0 -12 12v34q0 12 12 12h100v208h-100q-12 0 -12 12v34q0 12 12 12h100v176q0 12 12 12h40q12 0 12 -12v-176h359v176q0 12 12 12h40q12 0 12 -12v-176h101q12 0 12 -12v-34q0 -12 -12 -12h-101v-208
h101q12 0 12 -12v-34q0 -12 -13 -12h-100v-176q0 -12 -12 -12h-40q-12 0 -12 12zM595 246v208h-359v-208h359z" />
    <glyph glyph-name="dollar" unicode="$" horiz-adv-x="708" 
d="M89.5 173.5q-39.5 32.5 -39.5 99.5q0 16 14 16h24q7 0 12 -3.5t5 -9.5q0 -46 26 -63.5t77 -17.5h124v160l-143 6q-74 4 -106.5 34.5t-32.5 91.5q0 71 40 102t120 31h122v68q0 12 12 12h22q12 0 12 -12v-68h123q69 0 108.5 -32.5t39.5 -99.5q0 -16 -14 -16h-24
q-7 0 -12 3.5t-5 9.5q0 46 -26 63.5t-77 17.5h-113v-160l142 -6q73 -3 105.5 -34t32.5 -92q0 -71 -39.5 -102t-119.5 -31h-121v-68q0 -13 -12 -13h-22q-12 0 -12 13v68h-134q-69 0 -108.5 32.5zM125 434q18 -18 63 -20l144 -6v158h-128q-53 0 -75 -17.5t-22 -58.5
q0 -38 18 -56zM505 195q53 0 75 17.5t22 58.5q0 38 -18 56t-63 20l-143 6v-158h127z" />
    <glyph glyph-name="percent" unicode="%" horiz-adv-x="878" 
d="M77 2.5q-3 2.5 -3 6.5q0 5 4 9l647 668q7 7 12.5 10.5t13.5 3.5h43q9 0 9 -8q0 -5 -4 -10l-647 -668q-7 -7 -12.5 -10.5t-13.5 -3.5h-42q-4 0 -7 2.5zM490 86v31q0 86 86 86h166q86 0 86 -86v-31q0 -43 -22.5 -64.5t-63.5 -21.5h-166q-86 0 -86 86zM778 87v30
q0 36 -38 36h-163q-37 0 -37 -36v-30q0 -37 37 -37h163q38 0 38 37zM50 583v31q0 43 22.5 64.5t63.5 21.5h166q86 0 86 -86v-31q0 -86 -86 -86h-166q-86 0 -86 86zM338 583v31q0 36 -37 36h-164q-37 0 -37 -36v-31q0 -36 37 -36h164q37 0 37 36z" />
    <glyph glyph-name="ampersand" unicode="&#x26;" horiz-adv-x="1073" 
d="M139 425.5q-13 27.5 -13 70.5v76q0 67 40 100t124 33h410q84 0 125 -35.5t41 -107.5v-50q0 -12 -12 -12h-39q-13 0 -13 12v47q0 48 -24 67.5t-81 19.5h-407q-55 0 -77.5 -18t-22.5 -61v-66q0 -34 10.5 -50t40.5 -28l655 -253v204q0 12 12 12h107q13 0 13 -12v-32
q0 -13 -13 -13h-60v-160q0 -93 -46.5 -133.5t-146.5 -40.5h-509q-100 0 -146.5 38t-46.5 124v72q0 51 18 84t71 50l51 17l-14 5q-34 13 -47 40.5zM156.5 79.5q32.5 -25.5 104.5 -25.5h498q54 0 85 13.5t43 44.5l-617 240l-84 -27q-35 -12 -48.5 -34t-13.5 -64v-64
q0 -58 32.5 -83.5z" />
    <glyph glyph-name="quotesingle" unicode="'" horiz-adv-x="194" 
d="M68 415q-3 3 -3 10v262q0 8 3 10.5t10 2.5h38q8 0 10.5 -2.5t2.5 -10.5v-262q0 -7 -2.5 -10t-10.5 -3h-38q-7 0 -10 3z" />
    <glyph glyph-name="parenleft" unicode="(" horiz-adv-x="304" 
d="M92 -29q-37 41 -37 134v516q0 93 37 134t115 41h28q14 0 14 -15v-36q0 -15 -14 -15h-21q-50 0 -71.5 -26.5t-21.5 -87.5v-506q0 -61 21.5 -87.5t71.5 -26.5h21q14 0 14 -15v-36q0 -15 -14 -15h-28q-78 0 -115 41z" />
    <glyph glyph-name="parenright" unicode=")" horiz-adv-x="304" 
d="M55 -55v36q0 15 14 15h21q50 0 71.5 26.5t21.5 87.5v506q0 61 -21.5 87.5t-71.5 26.5h-21q-14 0 -14 15v36q0 15 14 15h28q78 0 115 -41t37 -134v-516q0 -93 -37 -134t-115 -41h-28q-14 0 -14 15z" />
    <glyph glyph-name="asterisk" unicode="*" horiz-adv-x="354" 
d="M148 467l4 80l-64 -47q-3 -3 -7 -3q-7 0 -12 8l-16 27q-3 5 -3 9q0 6 7 10l72 40l-72 39q-7 4 -7 10q0 5 3 9l16 27q3 6 8.5 7.5t10.5 -2.5l64 -47l-4 80q0 13 13 13h32q13 0 13 -13l-4 -80l63 47q5 3 8 3q6 0 11 -8l17 -27q3 -4 3 -8q0 -6 -8 -11l-71 -39l71 -40
q8 -5 8 -11q0 -3 -3 -8l-17 -27q-5 -8 -11 -8q-3 0 -8 3l-63 47l4 -80q0 -13 -13 -13h-32q-13 0 -13 13z" />
    <glyph glyph-name="plus" unicode="+" horiz-adv-x="491" 
d="M212 129v161h-148q-8 0 -11 3t-3 10v40q0 7 3 10t11 3h148v160q0 14 14 14h39q7 0 10 -3t3 -11v-160h150q8 0 10.5 -2.5t2.5 -10.5v-40q0 -8 -3 -10.5t-11 -2.5h-149v-161q0 -8 -3 -11t-10 -3h-39q-14 0 -14 14z" />
    <glyph glyph-name="comma" unicode="," horiz-adv-x="162" 
d="M28 -138.5q-3 2.5 -3 10.5v28q0 8 3 11t10 3h31v143q0 8 3 11t10 3h31q14 0 14 -14v-173q0 -13 -6 -19t-20 -6h-63q-7 0 -10 2.5z" />
    <glyph glyph-name="hyphen" unicode="-" horiz-adv-x="364" 
d="M50 237v33q0 13 12 13h240q12 0 12 -13v-33q0 -13 -12 -13h-240q-12 0 -12 13z" />
    <glyph glyph-name="period" unicode="." horiz-adv-x="141" 
d="M38 3q-3 3 -3 10v44q0 8 3 11t10 3h44q14 0 14 -14v-44q0 -7 -3 -10t-11 -3h-44q-7 0 -10 3z" />
    <glyph glyph-name="slash" unicode="/" horiz-adv-x="437" 
d="M27 -20l316 739q6 15 19 15h39q15 0 9 -15l-316 -739q-3 -8 -7 -11.5t-11 -3.5h-40q-15 0 -9 15z" />
    <glyph glyph-name="zero" unicode="0" 
d="M105.5 40.5q-45.5 44.5 -45.5 133.5v352q0 89 45.5 133.5t138.5 44.5h527q185 0 185 -178v-352q0 -178 -185 -178h-527q-93 0 -138.5 44.5zM859.5 86.5q29.5 29.5 29.5 96.5v335q0 66 -29.5 95.5t-96.5 29.5h-510q-67 0 -97 -29.5t-30 -95.5v-335q0 -67 30 -96.5
t97 -29.5h510q67 0 96.5 29.5z" />
    <glyph glyph-name="one" unicode="1" horiz-adv-x="350" 
d="M221 12v630h-179q-12 0 -12 12v34q0 12 12 12h230q13 0 13 -12v-676q0 -12 -13 -12h-39q-12 0 -12 12z" />
    <glyph glyph-name="two" unicode="2" horiz-adv-x="918" 
d="M45 15v76q0 63 12 105.5t45 70t95 35.5l489 63q70 8 96.5 47t26.5 106q0 66 -31.5 96.5t-100.5 30.5h-420q-72 0 -106 -31.5t-34 -104.5q0 -12 -12 -12h-40q-12 0 -12 12v15q0 92 53 136.5t149 44.5h425q98 0 145.5 -46.5t47.5 -140.5t-36 -146.5t-127 -63.5l-497 -62
q-60 -7 -81.5 -43t-21.5 -96v-49h746q12 0 12 -12v-34q0 -12 -12 -12h-796q-15 0 -15 15z" />
    <glyph glyph-name="three" unicode="3" horiz-adv-x="927" 
d="M98 39.5q-53 44.5 -53 136.5v15q0 12 12 12h40q12 0 12 -12q0 -73 34 -104.5t106 -31.5h432q70 0 103.5 33t33.5 99q0 80 -43 114.5t-121 34.5h-438q-12 0 -12 12v34q0 12 12 12h438q74 0 111 30t37 94q0 65 -32 96t-102 31h-411q-72 0 -106 -31.5t-34 -104.5
q0 -12 -12 -12h-40q-12 0 -12 12v15q0 92 53 136.5t149 44.5h415q196 0 196 -187q0 -67 -26 -99.5t-84 -49.5v-8q62 -15 94 -52.5t32 -121.5q0 -94 -50 -143t-148 -49h-437q-96 0 -149 44.5z" />
    <glyph glyph-name="four" unicode="4" horiz-adv-x="928" 
d="M56 150l-9 30l-2 8q0 6 8 14l496 487q11 11 22 11h50q12 0 12 -8q0 -4 -6 -10l-486 -477l3 -6h589v151q0 14 14 14h38q14 0 14 -14v-151h70q14 0 14 -14v-32q0 -14 -14 -14h-70v-125q0 -14 -14 -14h-38q-14 0 -14 14v125h-661q-12 0 -16 11z" />
    <glyph glyph-name="five" unicode="5" horiz-adv-x="941" 
d="M103 39.5q-53 44.5 -53 136.5v15q0 12 12 12h40q12 0 12 -12q0 -73 34 -104.5t106 -31.5h435q70 0 104 34.5t34 107.5v49q0 74 -33.5 107.5t-107.5 33.5h-432q-87 0 -128 -64h-52q-15 0 -14 18l30 344q2 15 15 15h734q13 0 13 -12v-34q0 -12 -13 -12h-692l-22 -253h6
q16 23 53.5 40t86.5 17h435q98 0 141.5 -53.5t43.5 -141.5v-54q0 -100 -50.5 -151t-148.5 -51h-440q-96 0 -149 44.5z" />
    <glyph glyph-name="six" unicode="6" horiz-adv-x="949" 
d="M110 45.5q-50 50.5 -50 150.5v322q0 187 196 187h427q97 0 147.5 -36t50.5 -113v-15q0 -7 -3 -10t-10 -3h-39q-12 0 -12 13q0 57 -32 81t-104 24h-422q-70 0 -102.5 -31t-32.5 -97v-151h6q16 26 53.5 44t85.5 18h444q98 0 142 -53t44 -141v-38q0 -101 -50 -151.5
t-156 -50.5h-428q-105 0 -155 50.5zM801 88.5q34 34.5 34 108.5v32q0 74 -33.5 107.5t-107.5 33.5h-429q-75 0 -108 -33.5t-33 -107.5v-32q0 -74 33.5 -108.5t107.5 -34.5h429q73 0 107 34.5z" />
    <glyph glyph-name="seven" unicode="7" horiz-adv-x="916" 
d="M62.5 5.5q-1.5 5.5 3.5 9.5l719 615v10h-721q-14 0 -14 14v32q0 14 14 14h787q15 0 15 -14v-48q0 -12 -11 -22l-694 -601q-7 -6 -14 -10.5t-16 -4.5h-60q-7 0 -8.5 5.5z" />
    <glyph glyph-name="eight" unicode="8" horiz-adv-x="958" 
d="M110 44.5q-50 49.5 -50 146.5v25q0 68 26.5 109.5t80.5 60.5q-40 16 -61 52.5t-21 92.5q0 85 44.5 129.5t131.5 44.5h436q87 0 131.5 -44.5t44.5 -129.5q0 -113 -83 -145q54 -19 81 -61t27 -110v-23q0 -98 -50 -147.5t-156 -49.5h-427q-105 0 -155 49.5zM800 88
q34 34 34 104v23q0 71 -33.5 105t-107.5 34h-428q-74 0 -107.5 -34t-33.5 -105v-23q0 -71 33.5 -104.5t107.5 -33.5h428q73 0 107 34zM782.5 441.5q28.5 28.5 28.5 89.5t-28.5 89t-88.5 28h-430q-61 0 -89.5 -28t-28.5 -89t29 -89.5t90 -28.5h429q60 0 88.5 28.5z" />
    <glyph glyph-name="nine" unicode="9" horiz-adv-x="949" 
d="M849 654.5q50 -50.5 50 -150.5v-322q0 -187 -196 -187h-427q-97 0 -147.5 36t-50.5 113v15q0 7 3 10t10 3h39q12 0 12 -13q0 -57 32 -81t104 -24h422q70 0 102.5 31t32.5 97v151h-6q-16 -26 -53.5 -44t-85.5 -18h-444q-98 0 -142 53t-44 141v38q0 101 50 151.5t156 50.5
h428q105 0 155 -50.5zM158 611.5q-34 -34.5 -34 -108.5v-32q0 -74 33.5 -107.5t107.5 -33.5h429q75 0 108 33.5t33 107.5v32q0 74 -33.5 108.5t-107.5 34.5h-429q-73 0 -107 -34.5z" />
    <glyph glyph-name="colon" unicode=":" horiz-adv-x="141" 
d="M38 3q-3 3 -3 10v44q0 8 3 11t10 3h44q14 0 14 -14v-44q0 -7 -3 -10t-11 -3h-44q-7 0 -10 3zM38 432q-3 3 -3 10v44q0 8 3 11t10 3h44q14 0 14 -14v-44q0 -7 -3 -10t-11 -3h-44q-7 0 -10 3z" />
    <glyph glyph-name="semicolon" unicode=";" horiz-adv-x="178" 
d="M38 -138.5q-3 2.5 -3 10.5v28q0 8 3 11t10 3h31v143q0 8 3 11t10 3h31q14 0 14 -14v-173q0 -13 -6 -19t-20 -6h-63q-7 0 -10 2.5zM75 432q-3 3 -3 10v44q0 8 3 11t10 3h44q14 0 14 -14v-44q0 -7 -3 -10t-11 -3h-44q-7 0 -10 3z" />
    <glyph glyph-name="less" unicode="&#x3c;" horiz-adv-x="461" 
d="M53 211q-3 8 -3 25t3 25t11 12l331 178q4 1 7 2q4 0 6.5 -3t2.5 -7v-42q0 -14 -12 -21l-267 -144l267 -144q12 -7 12 -21v-42q0 -6 -4.5 -9t-11.5 1l-331 178q-8 4 -11 12z" />
    <glyph glyph-name="equal" unicode="=" horiz-adv-x="491" 
d="M53 374q-3 3 -3 10v40q0 7 3 10t11 3h364q8 0 10.5 -2.5t2.5 -10.5v-40q0 -8 -3 -10.5t-11 -2.5h-363q-8 0 -11 3zM53 212q-3 3 -3 10v40q0 7 3 10t11 3h364q8 0 10.5 -2.5t2.5 -10.5v-40q0 -8 -3 -10.5t-11 -2.5h-363q-8 0 -11 3z" />
    <glyph glyph-name="greater" unicode="&#x3e;" horiz-adv-x="461" 
d="M59 19q-4 0 -6.5 3t-2.5 7v42q0 8 2.5 12.5t8.5 8.5l268 144l-268 144q-6 4 -8.5 8.5t-2.5 12.5v42q0 6 4.5 9t11.5 -1l331 -178q8 -4 11 -12t3 -25t-3 -25t-11 -12l-331 -178q-3 -1 -7 -2z" />
    <glyph glyph-name="question" unicode="?" horiz-adv-x="897" 
d="M394 182v94q0 57 23.5 85t84.5 28h154q71 0 100.5 27.5t29.5 98.5q0 72 -30 100t-100 28h-407q-71 0 -104.5 -31t-33.5 -103q0 -12 -12 -12h-42q-12 0 -12 12v15q0 92 52.5 136t148.5 44h419q98 0 142.5 -44.5t44.5 -145.5q0 -100 -44.5 -142t-143.5 -42h-142
q-36 0 -48.5 -15.5t-12.5 -53.5v-79q0 -14 -15 -14h-38q-14 0 -14 14zM396 3q-3 3 -3 10v44q0 8 3 11t10 3h44q14 0 14 -14v-44q0 -7 -3 -10t-11 -3h-44q-7 0 -10 3z" />
    <glyph glyph-name="at" unicode="@" horiz-adv-x="952" 
d="M60 150v284q0 213 240 213h353q119 0 179 -50.5t60 -158.5v-264q0 -37 -29.5 -57.5t-74.5 -20.5q-38 0 -59.5 15t-31.5 44q-40 -58 -138 -58h-234q-59 0 -87 27t-28 82v161q0 53 28 78t87 25h389q20 0 20 -21v-263q0 -39 48 -39q56 0 56 39v252q0 79 -46 118t-140 39
h-351q-187 0 -187 -161v-285q0 -79 47.5 -119.5t141.5 -40.5h51q45 0 80 5.5t73 16.5l-2 -46q-65 -28 -151 -28h-52q-242 0 -242 213zM652 169q28 21 28 51v201h-341q-40 0 -57.5 -12t-17.5 -43v-152q0 -37 18 -51.5t56 -14.5h241q45 0 73 21z" />
    <glyph glyph-name="A" unicode="A" horiz-adv-x="1054" 
d="M564 696.5q4 -3.5 9 -12.5l438 -668q3 -4 3 -8q0 -8 -12 -8h-46q-8 0 -12 3.5t-10 12.5l-78 120h-658l-78 -120q-6 -9 -10 -12.5t-11 -3.5h-46q-5 0 -9 2t-4 6t3 8l438 668q5 9 9 12.5t11 3.5h53q6 0 10 -3.5zM817 195l-285 436h-10l-285 -436h580z" />
    <glyph glyph-name="B" unicode="B" horiz-adv-x="958" 
d="M65 15v670q0 15 15 15h625q89 0 130.5 -42t41.5 -133v-21q0 -49 -15 -82t-48 -51v-9q44 -17 66.5 -54t22.5 -100v-27q0 -97 -50 -139t-150 -42h-623q-15 0 -15 15zM701 61q71 0 103.5 25t32.5 96v25q0 73 -32.5 99t-103.5 26h-570v-271h570zM700 388q58 0 84.5 26.5
t26.5 88.5v20q0 65 -26 90.5t-86 25.5h-568v-251h569z" />
    <glyph glyph-name="C" unicode="C" horiz-adv-x="1011" 
d="M105.5 40.5q-45.5 44.5 -45.5 133.5v352q0 89 45.5 133.5t138.5 44.5h529q93 0 138 -44t45 -134v-21q0 -12 -11 -12h-43q-13 0 -13 12v13q0 65 -30.5 95t-97.5 30h-508q-67 0 -97 -29.5t-30 -95.5v-335q0 -67 30 -96.5t97 -29.5h508q67 0 97.5 26.5t30.5 82.5v6
q0 12 12 12h44q11 0 11 -12v-14q0 -162 -183 -162h-529q-93 0 -138.5 44.5z" />
    <glyph glyph-name="D" unicode="D" horiz-adv-x="1018" 
d="M65 14v672q0 14 14 14h695q93 0 138.5 -44.5t45.5 -133.5v-344q0 -89 -45.5 -133.5t-138.5 -44.5h-695q-14 0 -14 14zM765 61q67 0 96.5 29.5t29.5 96.5v327q0 66 -29.5 95.5t-96.5 29.5h-634v-578h634z" />
    <glyph glyph-name="E" unicode="E" horiz-adv-x="926" 
d="M65 14v672q0 14 14 14h772q15 0 15 -15v-31q0 -15 -15 -15h-720v-258h710q15 0 15 -15v-32q0 -15 -15 -15h-710v-258h725q15 0 15 -15v-31q0 -15 -15 -15h-777q-14 0 -14 14z" />
    <glyph glyph-name="F" unicode="F" horiz-adv-x="921" 
d="M65 14v672q0 14 14 14h772q15 0 15 -15v-31q0 -15 -15 -15h-720v-257h710q15 0 15 -15v-31q0 -15 -15 -15h-710v-307q0 -14 -14 -14h-38q-14 0 -14 14z" />
    <glyph glyph-name="G" unicode="G" horiz-adv-x="1011" 
d="M105.5 40.5q-45.5 44.5 -45.5 133.5v352q0 89 45.5 133.5t138.5 44.5h527q93 0 138 -44t45 -134v-21q0 -12 -11 -12h-43q-13 0 -13 12v13q0 65 -30.5 95t-97.5 30h-506q-67 0 -97 -29.5t-30 -95.5v-335q0 -67 30 -96.5t97 -29.5h510q67 0 96.5 29.5t29.5 96.5v96h-316
q-15 0 -15 15v31q0 14 15 14h367q7 0 11.5 -4.5t4.5 -10.5v-150q0 -89 -45.5 -133.5t-138.5 -44.5h-528q-93 0 -138.5 44.5z" />
    <glyph glyph-name="H" unicode="H" horiz-adv-x="963" 
d="M65 14v672q0 14 14 14h38q14 0 14 -14v-305h701v305q0 14 14 14h38q14 0 14 -14v-672q0 -14 -14 -14h-38q-14 0 -14 14v305h-701v-305q0 -14 -14 -14h-38q-14 0 -14 14z" />
    <glyph glyph-name="I" unicode="I" horiz-adv-x="196" 
d="M65 14v672q0 14 14 14h38q14 0 14 -14v-672q0 -14 -14 -14h-38q-14 0 -14 14z" />
    <glyph glyph-name="J" unicode="J" horiz-adv-x="966" 
d="M55 14v33q0 14 14 14h640q67 0 96.5 29.5t29.5 96.5v499q0 14 14 14h38q14 0 14 -14v-508q0 -89 -45.5 -133.5t-138.5 -44.5h-648q-14 0 -14 14z" />
    <glyph glyph-name="K" unicode="K" horiz-adv-x="955" 
d="M65 14v672q0 14 14 14h38q14 0 14 -14v-395l669 398q15 11 29 11h59q11 0 11 -10q0 -5 -6 -10l-479 -287l500 -373q6 -4 6 -10q0 -10 -13 -10h-54q-8 0 -16.5 4t-16.5 10l-461 346l-228 -136v-210q0 -14 -14 -14h-38q-14 0 -14 14z" />
    <glyph glyph-name="L" unicode="L" horiz-adv-x="912" 
d="M65 14v672q0 14 14 14h38q14 0 14 -14v-625h717q14 0 14 -14v-33q0 -14 -14 -14h-769q-14 0 -14 14z" />
    <glyph glyph-name="M" unicode="M" horiz-adv-x="1121" 
d="M65 14v672q0 14 14 14h75q7 0 11 -3.5t9 -11.5l382 -615h9l382 615q5 8 9 11.5t11 3.5h74q15 0 15 -14v-672q0 -14 -15 -14h-38q-14 0 -14 14v610h-8l-379 -610q-5 -8 -9 -11t-10 -3h-45q-7 0 -11 3t-9 11l-379 610h-8v-610q0 -14 -14 -14h-38q-14 0 -14 14z" />
    <glyph glyph-name="N" unicode="N" horiz-adv-x="973" 
d="M65 14v672q0 14 14 14h67q5 0 9.5 -3t8.5 -7l671 -620h7v616q0 14 14 14h38q14 0 14 -14v-672q0 -14 -14 -14h-67q-5 0 -9.5 3t-8.5 7l-671 620h-7v-616q0 -14 -14 -14h-38q-14 0 -14 14z" />
    <glyph glyph-name="O" unicode="O" 
d="M105.5 40.5q-45.5 44.5 -45.5 133.5v352q0 89 45.5 133.5t138.5 44.5h527q185 0 185 -178v-352q0 -178 -185 -178h-527q-93 0 -138.5 44.5zM859.5 86.5q29.5 29.5 29.5 96.5v335q0 66 -29.5 95.5t-96.5 29.5h-510q-67 0 -97 -29.5t-30 -95.5v-335q0 -67 30 -96.5
t97 -29.5h510q67 0 96.5 29.5z" />
    <glyph glyph-name="P" unicode="P" horiz-adv-x="947" 
d="M65 14v672q0 14 14 14h624q93 0 138.5 -44t45.5 -134v-172q0 -90 -45 -134t-139 -44h-572v-158q0 -14 -14 -14h-38q-14 0 -14 14zM694 233q67 0 97 29.5t30 95.5v156q0 66 -30 95.5t-97 29.5h-563v-406h563z" />
    <glyph glyph-name="Q" unicode="Q" 
d="M475 -90v86h-231q-93 0 -138.5 44.5t-45.5 133.5v352q0 89 45.5 133.5t138.5 44.5h527q185 0 185 -178v-352q0 -178 -185 -178h-230v-86q0 -14 -14 -14h-38q-14 0 -14 14zM859.5 86.5q29.5 29.5 29.5 96.5v335q0 66 -29.5 95.5t-96.5 29.5h-510q-67 0 -97 -29.5
t-30 -95.5v-335q0 -67 30 -96.5t97 -29.5h510q67 0 96.5 29.5z" />
    <glyph glyph-name="R" unicode="R" horiz-adv-x="953" 
d="M65 14v672q0 14 14 14h624q93 0 138.5 -44.5t45.5 -133.5v-141q0 -147 -123 -172l126 -190q3 -4 3 -8q0 -5 -4.5 -8t-10.5 -3h-39q-11 0 -18 11l-127 192h-563v-189q0 -14 -14 -14h-38q-14 0 -14 14zM695 264q67 0 96.5 29t29.5 96v125q0 66 -29.5 95.5t-96.5 29.5h-564
v-375h564z" />
    <glyph glyph-name="S" unicode="S" horiz-adv-x="982" 
d="M60 155q0 15 15 15h36q8 0 11 -3.5t4 -11.5q5 -52 33.5 -75t94.5 -23h467q69 0 102 29t33 93q0 65 -35 93.5t-101 33.5l-465 30q-94 6 -144.5 50t-50.5 135q0 183 192 183h476q181 0 181 -159q0 -15 -15 -15h-36q-7 0 -10.5 3.5t-4.5 11.5q-5 51 -33.5 74.5t-94.5 23.5
h-454q-69 0 -102 -29t-33 -93q0 -65 35 -93.5t101 -33.5l465 -30q94 -6 144.5 -50t50.5 -135q0 -183 -192 -183h-489q-181 0 -181 159z" />
    <glyph glyph-name="T" unicode="T" horiz-adv-x="961" 
d="M45 653v33q0 14 14 14h843q14 0 14 -14v-33q0 -14 -14 -14h-388v-625q0 -14 -15 -14h-37q-14 0 -14 14v625h-389q-14 0 -14 14z" />
    <glyph glyph-name="U" unicode="U" horiz-adv-x="1026" 
d="M110.5 44.5q-45.5 44.5 -45.5 133.5v508q0 14 14 14h38q14 0 14 -14v-499q0 -67 30 -96.5t97 -29.5h510q67 0 96.5 29.5t29.5 96.5v499q0 14 14 14h38q15 0 15 -14v-508q0 -89 -45.5 -133.5t-138.5 -44.5h-528q-93 0 -138.5 44.5z" />
    <glyph glyph-name="V" unicode="V" horiz-adv-x="1054" 
d="M490 3.5q-4 3.5 -9 12.5l-438 668q-3 5 -3 8q0 4 4 6t9 2h46q7 0 11 -3.5t10 -12.5l402 -615h10l402 615q6 9 10 12.5t12 3.5h46q12 0 12 -8q0 -3 -3 -8l-438 -668q-5 -9 -9 -12.5t-10 -3.5h-53q-7 0 -11 3.5z" />
    <glyph glyph-name="W" unicode="W" horiz-adv-x="1831" 
d="M447 3.5q-4 3.5 -9 12.5l-395 668q-3 5 -3 8q0 4 4 6t9 2h46q7 0 10.5 -3t9.5 -13l362 -612h10l376 612q6 10 9.5 13t10.5 3h57q7 0 10.5 -3t9.5 -13l376 -612h10l362 612q6 10 9.5 13t10.5 3h46q5 0 9 -2t4 -6q0 -3 -3 -8l-395 -668q-5 -9 -9 -12.5t-10 -3.5h-56
q-6 0 -10 3.5t-9 12.5l-383 622l-384 -622q-5 -9 -9 -12.5t-10 -3.5h-56q-6 0 -10 3.5z" />
    <glyph glyph-name="X" unicode="X" horiz-adv-x="973" 
d="M40 5q0 4 5 9l394 336l-394 336q-5 5 -5 9q0 5 7 5h66q8 0 13.5 -3t14.5 -12l346 -295l345 295q9 9 14.5 12t13.5 3h66q8 0 8 -5q0 -4 -6 -9l-394 -336l394 -336q6 -4 6 -9t-8 -5h-66q-8 0 -13.5 3t-14.5 12l-345 295l-346 -295q-9 -9 -14.5 -12t-13.5 -3h-66q-7 0 -7 5z
" />
    <glyph glyph-name="Y" unicode="Y" horiz-adv-x="949" 
d="M442 14v268l-397 405q-5 5 -5 8q0 5 8 5h57q7 0 12 -3.5t13 -11.5l340 -345h9l340 345q8 8 13 11.5t12 3.5h58q7 0 7 -5q0 -3 -5 -8l-396 -405v-268q0 -14 -15 -14h-37q-14 0 -14 14z" />
    <glyph glyph-name="Z" unicode="Z" horiz-adv-x="910" 
d="M50 14v40q0 9 6 14l699 563v8h-684q-14 0 -14 14v33q0 14 14 14h774q14 0 14 -14v-40q0 -9 -6 -14l-699 -563v-8h692q14 0 14 -14v-33q0 -14 -14 -14h-782q-14 0 -14 14z" />
    <glyph glyph-name="bracketleft" unicode="[" horiz-adv-x="287" 
d="M65 -55v836q0 15 15 15h139q8 0 10.5 -2.5t2.5 -10.5v-39q0 -7 -2.5 -10t-10.5 -3h-88v-736h88q8 0 10.5 -3t2.5 -10v-39q0 -8 -2.5 -10.5t-10.5 -2.5h-139q-15 0 -15 15z" />
    <glyph glyph-name="backslash" unicode="\" horiz-adv-x="437" 
d="M350 -31.5q-4 3.5 -7 11.5l-316 739l-2 7q0 8 11 8h39q13 0 19 -15l316 -739l2 -7q0 -8 -11 -8h-40q-7 0 -11 3.5z" />
    <glyph glyph-name="bracketright" unicode="]" horiz-adv-x="287" 
d="M58 -67.5q-3 2.5 -3 10.5v39q0 7 3 10t10 3h88v736h-88q-7 0 -10 3t-3 10v39q0 8 3 10.5t10 2.5h139q15 0 15 -15v-836q0 -15 -15 -15h-139q-7 0 -10 2.5z" />
    <glyph glyph-name="asciicircum" unicode="^" horiz-adv-x="398" 
d="M52 470l105 241q7 15 20 15h44q13 0 20 -15l105 -241l2 -7q0 -8 -12 -8h-43q-14 0 -20 15l-74 175l-74 -175q-6 -15 -20 -15h-43q-16 0 -10 15z" />
    <glyph glyph-name="underscore" unicode="_" horiz-adv-x="644" 
d="M50 -46v34q0 12 12 12h520q12 0 12 -12v-34q0 -12 -12 -12h-520q-12 0 -12 12z" />
    <glyph glyph-name="grave" unicode="`" horiz-adv-x="258" 
d="M138 567l-84 115q-4 5 -4 9q0 9 13 9h50q8 0 12.5 -4t10.5 -14l69 -115q3 -4 3 -8t-4 -7t-9 -3h-32q-12 0 -25 18z" />
    <glyph glyph-name="a" unicode="a" horiz-adv-x="722" 
d="M69.5 32.5q-39.5 37.5 -39.5 111.5t38 108t111 34h429v32q0 48 -12 75t-42 40t-86 13h-238q-55 0 -78.5 -15.5t-28.5 -51.5q-1 -7 -4.5 -10t-11.5 -3h-31q-9 0 -13 4.5t-4 16.5q0 57 38.5 87t122.5 30h259q105 0 149 -43t44 -138v-309q0 -14 -14 -14h-36q-14 0 -14 14v57
h-6q-26 -34 -66.5 -55t-97.5 -21h-257q-72 0 -111.5 37.5zM569 86q39 31 39 79v68h-426q-44 0 -66 -19.5t-22 -68.5q0 -48 22 -69t66 -21h288q60 0 99 31z" />
    <glyph glyph-name="b" unicode="b" horiz-adv-x="736" 
d="M171.5 8q-28.5 13 -50.5 44h-7v-38q0 -14 -15 -14h-35q-14 0 -14 14v672q0 14 14 14h36q14 0 14 -14v-238h7q23 30 51 43t89 13h256q86 0 130 -43.5t44 -128.5v-166q0 -84 -44 -127.5t-130 -43.5h-256q-61 0 -89.5 13zM599 82.5q28 27.5 28 85.5v162q0 59 -28 86.5
t-84 27.5h-290q-56 0 -83.5 -27.5t-27.5 -86.5v-162q0 -58 27.5 -85.5t83.5 -27.5h290q56 0 84 27.5z" />
    <glyph glyph-name="c" unicode="c" horiz-adv-x="721" 
d="M88.5 38q-43.5 43 -43.5 127v168q0 171 173 171h299q164 0 164 -141v-24q0 -13 -14 -13h-35q-15 0 -15 11v23q0 84 -107 84h-289q-56 0 -84 -27.5t-28 -86.5v-162q0 -58 28 -85.5t84 -27.5h273q55 0 79 5t51 23q5 4 11 4q5 0 11 -3l23 -12q5 -2 5 -6t-5 -11
q-23 -31 -59.5 -45.5t-115.5 -14.5h-276q-86 0 -129.5 43z" />
    <glyph glyph-name="d" unicode="d" horiz-adv-x="736" 
d="M89 38.5q-44 43.5 -44 127.5v166q0 85 44 128.5t130 43.5h256q61 0 89 -13t51 -43h7v238q0 14 14 14h36q14 0 14 -14v-672q0 -14 -14 -14h-35q-15 0 -15 14v38h-7q-22 -31 -50.5 -44t-89.5 -13h-256q-86 0 -130 43.5zM594.5 82.5q27.5 27.5 27.5 85.5v162
q0 59 -27.5 86.5t-83.5 27.5h-290q-56 0 -84 -27.5t-28 -86.5v-162q0 -58 28 -85.5t84 -27.5h290q56 0 83.5 27.5z" />
    <glyph glyph-name="e" unicode="e" horiz-adv-x="729" 
d="M88.5 38q-43.5 43 -43.5 127v168q0 171 173 171h293q85 0 129 -44t44 -128v-67q0 -23 -9.5 -32t-32.5 -9h-533v-56q0 -58 28 -85.5t84 -27.5h273q55 0 79 5t51 23q5 4 11 4q5 0 11 -3l23 -12q5 -2 5 -6t-5 -11q-23 -31 -59.5 -45.5t-115.5 -14.5h-276q-86 0 -129.5 43z
M620 276v54q0 59 -28 86.5t-85 27.5h-286q-56 0 -84 -27.5t-28 -86.5v-54h511z" />
    <glyph glyph-name="f" unicode="f" horiz-adv-x="599" 
d="M104 15v425h-49q-15 0 -15 15v30q0 15 15 15h49v28q0 85 44 128.5t129 43.5h272q15 0 15 -15v-30q0 -15 -15 -15h-270q-56 0 -84 -27.5t-28 -86.5v-26h372q15 0 15 -15v-30q0 -15 -15 -15h-372v-425q0 -15 -15 -15h-33q-15 0 -15 15z" />
    <glyph glyph-name="g" unicode="g" horiz-adv-x="736" 
d="M131 -167v27q0 8 3 11.5t11 3.5h362q59 0 87 28t28 91v58h-7q-22 -31 -50.5 -44t-89.5 -13h-256q-86 0 -130 43.5t-44 127.5v166q0 85 44 128.5t130 43.5h256q61 0 89 -13t51 -43h7v38q0 14 14 14h36q14 0 14 -14v-495q0 -85 -44 -128.5t-129 -43.5h-368q-14 0 -14 14z
M594.5 82.5q27.5 27.5 27.5 85.5v162q0 59 -27.5 86.5t-83.5 27.5h-290q-56 0 -84 -27.5t-28 -86.5v-162q0 -58 28 -85.5t84 -27.5h290q56 0 83.5 27.5z" />
    <glyph glyph-name="h" unicode="h" horiz-adv-x="741" 
d="M50 14v672q0 14 14 14h36q14 0 14 -14v-238h7q23 30 51 43t89 13h257q85 0 129 -43.5t44 -128.5v-318q0 -14 -14 -14h-35q-15 0 -15 14v316q0 59 -28 86.5t-84 27.5h-289q-56 0 -84 -27.5t-28 -86.5v-316q0 -14 -14 -14h-36q-14 0 -14 14z" />
    <glyph glyph-name="i" unicode="i" horiz-adv-x="164" 
d="M50 651v35q0 14 14 14h36q14 0 14 -14v-35q0 -15 -14 -15h-36q-14 0 -14 15zM50 14v472q0 14 14 14h36q14 0 14 -14v-472q0 -14 -14 -14h-36q-14 0 -14 14z" />
    <glyph glyph-name="j" unicode="j" horiz-adv-x="171" 
d="M57 651v35q0 14 14 14h35q15 0 15 -14v-35q0 -15 -15 -15h-35q-14 0 -14 15zM-97 -178q-13 1 -13 13v33q0 10 11 10h45q56 0 83.5 28.5t27.5 89.5v490q0 14 14 14h35q15 0 15 -14v-495q0 -85 -43 -128.5t-126 -43.5q-24 0 -49 3z" />
    <glyph glyph-name="k" unicode="k" horiz-adv-x="714" 
d="M50 14v672q0 14 14 14h36q14 0 14 -14v-466l460 269q7 5 14.5 8t15.5 3h55q5 0 8.5 -3t3.5 -8q0 -6 -7 -10l-346 -200l360 -259q6 -4 6 -10q0 -4 -3 -7t-9 -3h-45q-14 0 -33 13l-327 237l-153 -89v-147q0 -14 -14 -14h-36q-14 0 -14 14z" />
    <glyph glyph-name="l" unicode="l" horiz-adv-x="164" 
d="M50 14v672q0 14 14 14h36q14 0 14 -14v-672q0 -14 -14 -14h-36q-14 0 -14 14z" />
    <glyph glyph-name="m" unicode="m" horiz-adv-x="1168" 
d="M552 14v316q0 59 -28 86.5t-84 27.5h-214q-56 0 -84 -27.5t-28 -86.5v-316q0 -14 -14 -14h-36q-14 0 -14 14v472q0 14 14 14h36q14 0 14 -14v-38h7q23 30 51 43t89 13h181q106 0 148 -66h10q19 33 54.5 49.5t98.5 16.5h191q86 0 130 -43.5t44 -128.5v-318q0 -14 -14 -14
h-36q-14 0 -14 14v316q0 59 -28 86.5t-84 27.5h-214q-56 0 -84 -27.5t-28 -86.5v-316q0 -14 -14 -14h-36q-14 0 -14 14z" />
    <glyph glyph-name="n" unicode="n" horiz-adv-x="741" 
d="M50 14v472q0 14 14 14h36q14 0 14 -14v-38h7q23 30 51 43t89 13h257q85 0 129 -43.5t44 -128.5v-318q0 -14 -14 -14h-35q-15 0 -15 14v316q0 59 -28 86.5t-84 27.5h-289q-56 0 -84 -27.5t-28 -86.5v-316q0 -14 -14 -14h-36q-14 0 -14 14z" />
    <glyph glyph-name="o" unicode="o" horiz-adv-x="731" 
d="M88.5 38q-43.5 43 -43.5 127v168q0 171 173 171h295q173 0 173 -171v-168q0 -84 -43.5 -127t-129.5 -43h-295q-86 0 -129.5 43zM594 82.5q28 27.5 28 85.5v162q0 59 -28 86.5t-84 27.5h-289q-56 0 -84 -27.5t-28 -86.5v-162q0 -58 28 -85.5t84 -27.5h289q56 0 84 27.5z
" />
    <glyph glyph-name="p" unicode="p" horiz-adv-x="736" 
d="M50 -163v649q0 14 14 14h35q15 0 15 -14v-38h7q23 30 51 43t89 13h256q86 0 130 -43.5t44 -127.5v-166q0 -85 -44 -128.5t-130 -43.5h-256q-61 0 -89.5 13t-50.5 44h-7v-215q0 -14 -14 -14h-36q-14 0 -14 14zM599 82.5q28 27.5 28 86.5v162q0 58 -28 85.5t-84 27.5h-290
q-56 0 -83.5 -27.5t-27.5 -85.5v-162q0 -59 27.5 -86.5t83.5 -27.5h290q56 0 84 27.5z" />
    <glyph glyph-name="q" unicode="q" horiz-adv-x="736" 
d="M622 -163v215h-7q-22 -31 -50.5 -44t-89.5 -13h-256q-86 0 -130 43.5t-44 128.5v166q0 84 44 127.5t130 43.5h256q61 0 89 -13t51 -43h7v38q0 14 15 14h35q14 0 14 -14v-649q0 -14 -14 -14h-36q-14 0 -14 14zM594.5 82.5q27.5 27.5 27.5 86.5v162q0 58 -27.5 85.5
t-83.5 27.5h-290q-56 0 -84 -27.5t-28 -85.5v-162q0 -59 28 -86.5t84 -27.5h290q56 0 83.5 27.5z" />
    <glyph glyph-name="r" unicode="r" horiz-adv-x="722" 
d="M50 14v472q0 14 14 14h36q14 0 14 -14v-38h7q23 30 51 43t89 13h260q83 0 121.5 -30t38.5 -88q0 -12 -3.5 -16.5t-13.5 -4.5h-30q-9 0 -12.5 3t-4.5 10q-4 36 -27.5 51t-78.5 15h-285q-56 0 -84 -27.5t-28 -86.5v-316q0 -14 -14 -14h-36q-14 0 -14 14z" />
    <glyph glyph-name="s" unicode="s" horiz-adv-x="732" 
d="M45 119q0 11 3.5 16t13.5 5h30q9 0 12.5 -3t4.5 -11q4 -36 27.5 -52t78.5 -16h306q49 0 75.5 18t26.5 59q0 44 -23.5 62t-76.5 20l-315 13q-82 3 -121.5 35t-39.5 102q0 67 43 100t121 33h298q161 0 161 -119q0 -11 -3.5 -16t-13.5 -5h-30q-15 0 -17 14q-4 36 -27.5 52
t-78.5 16h-288q-49 0 -75 -17.5t-26 -57.5q0 -44 23.5 -62.5t75.5 -20.5l315 -13q82 -3 122 -35t40 -101q0 -68 -43.5 -101.5t-120.5 -33.5h-317q-161 0 -161 119z" />
    <glyph glyph-name="t" unicode="t" horiz-adv-x="534" 
d="M172 43.5q-44 43.5 -44 127.5v269h-84q-14 0 -14 14v31q0 8 3 11.5t11 3.5h84v60q0 15 14 15h36q14 0 14 -15v-60h282q8 0 11.5 -3t3.5 -11v-32q0 -14 -14 -14h-283v-267q0 -58 28 -85.5t84 -27.5h169q16 0 16 -15v-30q0 -15 -15 -15h-172q-86 0 -130 43.5z" />
    <glyph glyph-name="u" unicode="u" horiz-adv-x="741" 
d="M94 39.5q-44 43.5 -44 128.5v318q0 14 14 14h36q14 0 14 -14v-316q0 -59 28 -86.5t84 -27.5h289q56 0 84 27.5t28 86.5v316q0 14 15 14h35q14 0 14 -14v-472q0 -14 -14 -14h-36q-14 0 -14 14v39h-7q-22 -31 -50.5 -44t-89.5 -13h-256q-86 0 -130 43.5z" />
    <glyph glyph-name="v" unicode="v" horiz-adv-x="765" 
d="M341 18l-303 465q-3 5 -3 9q0 8 12 8h46q7 0 11.5 -4t9.5 -13l263 -409h11l263 409q5 9 9.5 13t11.5 4h46q12 0 12 -8q0 -4 -3 -9l-303 -465q-11 -18 -22 -18h-39q-11 0 -22 18z" />
    <glyph glyph-name="w" unicode="w" horiz-adv-x="1289" 
d="M323.5 4q-4.5 4 -10.5 14l-275 465q-3 5 -3 9q0 8 12 8h44q7 0 11.5 -4t9.5 -13l239 -409h10l242 409q9 17 20 17h43q11 0 21 -17l241 -409h10l239 409q7 10 10.5 13.5t10.5 3.5h44q12 0 12 -8q0 -4 -3 -9l-274 -465q-11 -18 -22 -18h-42q-7 0 -11.5 4t-11.5 14l-245 414
l-246 -414q-11 -18 -22 -18h-42q-7 0 -11.5 4z" />
    <glyph glyph-name="x" unicode="x" horiz-adv-x="700" 
d="M35 8q0 5 6 11l265 231l-265 231q-6 6 -6 11q0 8 11 8h50q10 0 31 -18l223 -194l223 194q21 18 31 18h50q11 0 11 -8q0 -5 -6 -11l-265 -231l265 -231q6 -6 6 -11q0 -8 -12 -8h-50q-10 0 -31 18l-222 194l-222 -194q-21 -18 -31 -18h-50q-12 0 -12 8z" />
    <glyph glyph-name="y" unicode="y" horiz-adv-x="765" 
d="M228 -172q0 3 3 8l115 174l-308 473q-3 5 -3 9q0 8 12 8h45q7 0 11.5 -4t9.5 -13l264 -409h11l264 409q5 9 9.5 13t11.5 4h45q12 0 12 -8q0 -4 -3 -9l-421 -647q-5 -9 -9.5 -13t-11.5 -4h-46q-11 0 -11 9z" />
    <glyph glyph-name="z" unicode="z" horiz-adv-x="691" 
d="M40 14v43q0 12 8 18l503 358v7h-492q-14 0 -14 14v31q0 8 3 11.5t11 3.5h576q16 0 16 -14v-43q0 -12 -9 -18l-503 -357v-8h496q16 0 16 -14v-32q0 -14 -15 -14h-582q-14 0 -14 14z" />
    <glyph glyph-name="braceleft" unicode="{" horiz-adv-x="350" 
d="M138 -29q-37 41 -37 134v174q0 10 -7 18l-45 55q-4 5 -4 11q0 7 4 11l45 55q7 8 7 18v174q0 93 37 134t115 41h28q14 0 14 -15v-36q0 -15 -14 -15h-21q-50 0 -71.5 -26.5t-21.5 -87.5v-179q0 -10 -7 -18l-44 -56l45 -56q6 -7 6 -18v-179q0 -61 21.5 -87.5t71.5 -26.5h21
q14 0 14 -15v-36q0 -15 -14 -15h-28q-78 0 -115 41z" />
    <glyph glyph-name="bar" unicode="|" horiz-adv-x="226" 
d="M80 -185v970q0 15 15 15h36q15 0 15 -15v-970q0 -15 -15 -15h-36q-15 0 -15 15z" />
    <glyph glyph-name="braceright" unicode="}" horiz-adv-x="350" 
d="M55 -55v36q0 15 14 15h21q50 0 71.5 26.5t21.5 87.5v179q0 11 6 18l45 56l-44 56q-7 8 -7 18v179q0 61 -21.5 87.5t-71.5 26.5h-21q-14 0 -14 15v36q0 15 14 15h28q78 0 115 -41t37 -134v-174q0 -10 7 -18l45 -55q5 -5 5 -11q0 -4 -5 -11l-45 -55q-7 -8 -7 -18v-174
q0 -93 -37 -134t-115 -41h-28q-14 0 -14 15z" />
    <glyph glyph-name="asciitilde" unicode="~" horiz-adv-x="528" 
d="M78 283q-5 0 -10 10l-16 31q-2 4 -2 6q0 9 12 16q53 38 112 38q51 0 101 -31q46 -28 80 -28q38 0 88 34q3 2 7 2q5 0 10 -10l16 -31q2 -4 2 -6q0 -7 -12 -16q-51 -38 -111 -38q-53 0 -102 31q-46 27 -80 27q-37 0 -88 -33q-3 -2 -7 -2z" />
    <glyph glyph-name="exclamdown" unicode="&#xa1;" horiz-adv-x="201" 
d="M132.5 329.5q2.5 -2.5 2.5 -10.5v-506q0 -8 -2.5 -10.5t-10.5 -2.5h-43q-7 0 -10 2.5t-3 10.5v506q0 8 3 10.5t10 2.5h43q8 0 10.5 -2.5zM133.5 497.5q2.5 -2.5 2.5 -10.5v-44q0 -8 -3 -11t-10 -3h-44q-14 0 -14 14v44q0 7 3 10t11 3h44q8 0 10.5 -2.5z" />
    <glyph glyph-name="cent" unicode="&#xa2;" horiz-adv-x="721" 
d="M338 -114v109h-120q-86 0 -129.5 43t-43.5 127v168q0 171 173 171h120v80q0 14 14 14h23q14 0 14 -14v-80h128q164 0 164 -141v-24q0 -13 -14 -13h-35q-15 0 -15 11v23q0 84 -107 84h-121v-389h105q55 0 79 5t51 23q5 4 11 4q5 0 11 -3l23 -12q5 -2 5 -6t-5 -11
q-23 -31 -59.5 -45.5t-115.5 -14.5h-105v-109q0 -14 -14 -14h-23q-14 0 -14 14zM137 82.5q28 -27.5 84 -27.5h117v389h-117q-56 0 -84 -27.5t-28 -86.5v-162q0 -58 28 -85.5z" />
    <glyph glyph-name="sterling" unicode="&#xa3;" horiz-adv-x="960" 
d="M631.5 1.5q-44.5 4.5 -111.5 14.5q-54 8 -97 12.5t-94 4.5q-60 0 -112 -9t-82 -25q-4 -2 -15.5 10.5t-19.5 28t-5 20.5q70 99 70 203q0 27 -4 46h-104q-12 0 -12 12v34q0 12 12 12h88l-9 23q-14 34 -21.5 61.5t-7.5 63.5q0 92 52 141.5t144 49.5h428q93 0 138.5 -44.5
t45.5 -133.5v-19q0 -14 -14 -14h-38q-14 0 -14 14v11q0 66 -29.5 95.5t-96.5 29.5h-413q-136 0 -136 -131q0 -31 6.5 -55.5t21.5 -64.5l10 -27h285q12 0 12 -12v-34q0 -12 -12 -12h-270q4 -30 4 -49q0 -49 -15.5 -101t-43.5 -92q53 27 168 27q54 0 94.5 -4.5t98.5 -13.5
t101.5 -13.5t101.5 -4.5q42 0 80.5 6t64.5 15q2 1 6 1q10 0 10 -12v-30q0 -9 -3.5 -13.5t-11.5 -7.5q-43 -18 -146 -18q-60 0 -104.5 4.5z" />
    <glyph glyph-name="currency" unicode="&#xa4;" horiz-adv-x="611" 
d="M150 52l-54 -53q-5 -5 -10 -5q-4 0 -11 5l-25 25q-5 7 -5 11q0 5 5 10l68 67q-6 26 -6 54v166q0 32 7 54l-69 68q-5 7 -5 11q0 5 5 10l25 25q5 5 11 5t10 -5l54 -54q44 49 131 49h48q89 0 132 -49l54 54q5 5 11 5t10 -5l25 -25q5 -4 5 -10t-5 -11l-68 -68q6 -25 6 -54
v-166q0 -29 -6 -53l68 -68q5 -4 5 -10t-5 -11l-25 -25q-5 -5 -10 -5q-4 0 -11 5l-53 53q-44 -49 -133 -49h-48q-88 0 -131 49zM410.5 88q27.5 27 27.5 79v164q0 52 -27.5 79.5t-81.5 27.5h-47q-53 0 -80.5 -27.5t-27.5 -79.5v-164q0 -51 27.5 -78.5t80.5 -27.5h47
q54 0 81.5 27z" />
    <glyph glyph-name="yen" unicode="&#xa5;" horiz-adv-x="949" 
d="M442 14v112h-243q-11 0 -12 12v23q1 12 12 12h243v39h-243q-11 0 -12 12v23q1 12 12 12h243v23l-397 405q-5 5 -5 8q0 5 8 5h57q7 0 12 -3.5t13 -11.5l340 -345h9l340 345q8 8 13 11.5t12 3.5h58q7 0 7 -5q0 -3 -5 -8l-396 -405v-23h242q12 0 12 -12v-23q0 -12 -12 -12
h-242v-39h242q12 0 12 -12v-23q0 -12 -12 -12h-242v-112q0 -14 -15 -14h-37q-14 0 -14 14z" />
    <glyph glyph-name="brokenbar" unicode="&#xa6;" horiz-adv-x="226" 
d="M80 392v393q0 15 15 15h36q15 0 15 -15v-393q0 -15 -15 -15h-36q-15 0 -15 15zM80 -185v393q0 15 15 15h36q15 0 15 -15v-393q0 -15 -15 -15h-36q-15 0 -15 15z" />
    <glyph glyph-name="section" unicode="&#xa7;" horiz-adv-x="651" 
d="M105 12q-45 32 -45 94q0 8 2.5 11.5t10.5 3.5h38q12 0 14 -13q9 -71 103 -71h191q52 0 80 20t28 66q0 33 -10.5 51t-38 26.5t-79.5 8.5h-170q-165 0 -165 142q0 81 69 107q-69 35 -69 122q0 71 43 104t122 33h187q75 0 119.5 -35.5t44.5 -102.5q0 -7 -2.5 -10.5
t-9.5 -3.5h-36q-7 0 -10.5 3t-5.5 11q-4 41 -28.5 61t-74.5 20h-181q-52 0 -78 -18.5t-26 -61.5q0 -47 27 -69.5t84 -22.5h186q84 0 125 -31t41 -106q0 -87 -66 -113q33 -14 49.5 -41.5t16.5 -73.5q0 -143 -172 -143h-192q-77 0 -122 32zM502 284.5q25 19.5 25 66.5
t-25 64.5t-82 17.5h-185q-57 0 -82 -17.5t-25 -64.5t25 -66.5t82 -19.5h185q57 0 82 19.5z" />
    <glyph glyph-name="dieresis" unicode="&#xa8;" horiz-adv-x="430" 
d="M286 643v44q0 7 3 10t11 3h44q8 0 10.5 -2.5t2.5 -10.5v-44q0 -8 -3 -11t-10 -3h-44q-14 0 -14 14zM53 632q-3 3 -3 11v44q0 8 3 10.5t10 2.5h44q8 0 11 -3t3 -10v-44q0 -14 -14 -14h-44q-7 0 -10 3z" />
    <glyph glyph-name="copyright" unicode="&#xa9;" horiz-adv-x="941" 
d="M117 50.5q-57 55.5 -57 156.5v286q0 101 57 156.5t164 55.5h379q106 0 163.5 -55.5t57.5 -156.5v-286q0 -101 -57.5 -156.5t-163.5 -55.5h-379q-107 0 -164 55.5zM718.5 117.5q43.5 21.5 62.5 64.5q2 3 2 9t-9 10l-23 11q-6 3 -10 3q-7 0 -12 -9q-18 -29 -45 -40.5
t-83 -11.5h-250q-69 0 -101.5 25.5t-32.5 79.5v184q0 103 113 103h287q52 0 80.5 -25t28.5 -68v-4q0 -12 12 -12h38q13 0 13 12v5q0 70 -45.5 110.5t-125.5 40.5h-289q-85 0 -130.5 -40.5t-45.5 -120.5v-187q0 -161 196 -161h251q75 0 118.5 21.5z" />
    <glyph glyph-name="ordfeminine" unicode="&#xaa;" horiz-adv-x="401" 
d="M309 459v21q-31 -31 -72 -31h-97q-44 0 -67 20t-23 58q0 77 90 77h169q0 31 -12.5 44t-38.5 13h-99q-35 0 -68 -14q-3 -1 -7 -2q-5 0 -8 5l-8 19l-1 5q0 6 6 9q21 11 41 16.5t47 5.5h100q43 0 66.5 -26t23.5 -75v-145q0 -10 -7 -10h-28q-7 0 -7 10zM105.5 501.5
q11.5 -7.5 36.5 -7.5h99q25 0 40.5 5t27.5 15v49h-167q-25 0 -36.5 -8t-11.5 -27t11.5 -26.5z" />
    <glyph glyph-name="guillemotleft" unicode="&#xab;" horiz-adv-x="554" 
d="M283.5 227q-3.5 5 -3.5 12v36q0 8 3.5 12.5t11.5 10.5l186 134q5 3 8 3q10 0 10 -11v-43q0 -7 -3.5 -10.5t-14.5 -11.5l-141 -102l141 -102q11 -8 14.5 -11.5t3.5 -10.5v-43q0 -11 -10 -11q-3 0 -8 3l-186 134q-8 6 -11.5 11zM58.5 227q-3.5 5 -3.5 12v36q0 8 3.5 12.5
t11.5 10.5l186 134q5 3 8 3q10 0 10 -11v-43q0 -7 -3.5 -10.5t-14.5 -11.5l-141 -102l141 -102q11 -8 14.5 -11.5t3.5 -10.5v-43q0 -11 -10 -11q-3 0 -8 3l-186 134q-8 6 -11.5 11z" />
    <glyph glyph-name="logicalnot" unicode="&#xac;" horiz-adv-x="491" 
d="M53 293q-3 3 -3 10v40q0 7 3 10t11 3h364q8 0 10.5 -2.5t2.5 -10.5v-214q0 -14 -14 -14h-39q-7 0 -10 3t-3 11v161h-311q-8 0 -11 3z" />
    <glyph glyph-name="uni00AD" unicode="&#xad;" horiz-adv-x="364" 
d="M50 237v33q0 13 12 13h240q12 0 12 -13v-33q0 -13 -12 -13h-240q-12 0 -12 13z" />
    <glyph glyph-name="registered" unicode="&#xae;" horiz-adv-x="941" 
d="M117 50.5q-57 55.5 -57 156.5v286q0 101 57 156.5t164 55.5h379q106 0 163.5 -55.5t57.5 -156.5v-286q0 -101 -57.5 -156.5t-163.5 -55.5h-379q-107 0 -164 55.5zM236 120v187h413q42 0 59.5 -21t17.5 -66v-97q0 -15 15 -15h32q15 0 15 15v97q0 43 -13.5 73.5t-50.5 43.5
v5q36 15 48 46.5t12 72.5q0 69 -33 103t-104 34h-462q-11 0 -11 -12v-466q0 -12 11 -12h39q12 0 12 12zM236 539h413q38 0 55.5 -19.5t17.5 -60.5q0 -48 -16.5 -72t-56.5 -24h-413v176z" />
    <glyph glyph-name="macron" unicode="&#xaf;" horiz-adv-x="454" 
d="M50 654v31q0 15 15 15h324q15 0 15 -15v-31q0 -15 -15 -15h-324q-15 0 -15 15z" />
    <glyph glyph-name="degree" unicode="&#xb0;" horiz-adv-x="350" 
d="M72 509.5q-22 23.5 -22 64.5v39q0 41 22 64t65 23h76q43 0 65 -23t22 -64v-39q0 -41 -22 -64.5t-65 -23.5h-76q-43 0 -65 23.5zM247 577v33q0 19 -11 29t-32 10h-59q-42 0 -42 -39v-33q0 -39 42 -39h59q43 0 43 39z" />
    <glyph glyph-name="plusminus" unicode="&#xb1;" horiz-adv-x="491" 
d="M50 14v32q0 14 14 14h364q7 0 10 -3t3 -11v-32q0 -8 -3 -11t-11 -3h-363q-14 0 -14 14zM212 171v161h-148q-8 0 -11 3t-3 10v40q0 7 3 10t11 3h148v160q0 14 14 14h39q7 0 10 -3t3 -11v-160h150q8 0 10.5 -2.5t2.5 -10.5v-40q0 -8 -3 -10.5t-11 -2.5h-149v-161
q0 -8 -3 -11t-10 -3h-39q-14 0 -14 14z" />
    <glyph glyph-name="uni00B2" unicode="&#xb2;" horiz-adv-x="320" 
d="M62 405v33q0 10 3 15.5t11 12.5l87 82q17 16 26 28.5t9 27.5q0 19 -11 29t-30 10q-17 0 -27 -8.5t-10 -23.5v-7q0 -15 -15 -15h-30q-15 0 -15 15v13q0 37 23.5 60t64.5 23h25q42 0 64 -26t22 -64q0 -35 -17 -59.5t-49 -52.5l-56 -49h108q15 0 15 -15v-29q0 -15 -15 -15
h-168q-15 0 -15 15z" />
    <glyph glyph-name="uni00B3" unicode="&#xb3;" horiz-adv-x="325" 
d="M84 413q-24 23 -24 60v13q0 15 15 15h30q15 0 15 -15v-7q0 -16 10.5 -24t30.5 -8t30.5 10t10.5 28q0 17 -9 25.5t-30 8.5h-16q-14 0 -14 15v22q0 15 14 15h16q20 0 28.5 8.5t8.5 25.5q0 18 -10 28t-29 10q-18 0 -28.5 -8t-10.5 -24v-7q0 -15 -15 -15h-30q-15 0 -15 15v13
q0 37 23.5 60t64.5 23h25q40 0 62 -25.5t22 -60.5q0 -48 -42 -69q48 -22 48 -69q0 -36 -23 -61t-67 -25h-25q-42 0 -66 23z" />
    <glyph glyph-name="acute" unicode="&#xb4;" horiz-adv-x="257" 
d="M54 552q-4 3 -4 7t3 8l69 115q6 10 10.5 14t11.5 4h50q13 0 13 -9q0 -4 -3 -9l-84 -115q-13 -18 -25 -18h-32q-5 0 -9 3z" />
    <glyph glyph-name="uni00B5" unicode="&#xb5;" horiz-adv-x="741" 
d="M50 -186v672q0 14 14 14h36q14 0 14 -14v-316q0 -59 28 -86.5t84 -27.5h289q56 0 84 27.5t28 86.5v316q0 14 15 14h35q14 0 14 -14v-472q0 -14 -14 -14h-36q-14 0 -14 14v39h-7q-22 -31 -50.5 -44t-89.5 -13h-256q-68 0 -110 27v-209q0 -14 -14 -14h-36q-14 0 -14 14z
" />
    <glyph glyph-name="paragraph" unicode="&#xb6;" horiz-adv-x="947" 
d="M105 216q-45 44 -45 134v172q0 90 45.5 134t138.5 44h624q14 0 14 -14v-672q0 -14 -14 -14h-38q-14 0 -14 14v158h-87v-158q0 -14 -14 -14h-38q-15 0 -15 14v158h-418q-94 0 -139 44zM156 262.5q30 -29.5 97 -29.5h409v406h-409q-67 0 -97 -29.5t-30 -95.5v-156
q0 -66 30 -95.5zM816 233v406h-87v-406h87z" />
    <glyph glyph-name="periodcentered" unicode="&#xb7;" horiz-adv-x="171" 
d="M53 271q-3 3 -3 10v44q0 8 3 11t10 3h44q14 0 14 -14v-44q0 -7 -3 -10t-11 -3h-44q-7 0 -10 3z" />
    <glyph glyph-name="cedilla" unicode="&#xb8;" horiz-adv-x="323" 
d="M69.5 -181q-19.5 19 -19.5 57q0 12 11 12h32q4 0 7 -2t3 -6q0 -19 11.5 -28t37.5 -9h20q25 0 36 7.5t11 24.5t-7 24.5t-23 7.5h-71q-16 0 -27 9t-11 25q0 12 8.5 25t30.5 34h61q-35 -27 -35 -42q0 -12 24 -12h39q32 0 48.5 -15t16.5 -56q0 -40 -20.5 -57.5t-68.5 -17.5
h-48q-47 0 -66.5 19z" />
    <glyph glyph-name="uni00B9" unicode="&#xb9;" horiz-adv-x="302" 
d="M120 406v279q0 15 15 15h32q15 0 15 -15v-279q0 -15 -15 -15h-32q-15 0 -15 15z" />
    <glyph glyph-name="ordmasculine" unicode="&#xba;" horiz-adv-x="406" 
d="M78.5 478.5q-28.5 29.5 -28.5 73.5v51q0 43 28.5 72.5t72.5 29.5h104q43 0 72 -30t29 -72v-51q0 -44 -29 -73.5t-72 -29.5h-104q-44 0 -72.5 29.5zM295.5 510q16.5 17 16.5 43v49q0 26 -16.5 42.5t-41.5 16.5h-102q-26 0 -41.5 -16.5t-15.5 -42.5v-49q0 -27 15.5 -43.5
t41.5 -16.5h102q25 0 41.5 17z" />
    <glyph glyph-name="guillemotright" unicode="&#xbb;" horiz-adv-x="554" 
d="M65 79q-10 0 -10 11v43q0 7 3.5 10.5t14.5 11.5l141 102l-141 102q-11 8 -14.5 11.5t-3.5 10.5v43q0 11 10 11q4 0 8 -3l186 -134q8 -6 11.5 -10.5t3.5 -12.5v-36q0 -7 -3.5 -12t-11.5 -11l-186 -134q-4 -3 -8 -3zM290 79q-10 0 -10 11v43q0 7 3.5 10.5t14.5 11.5
l141 102l-141 102q-11 8 -14.5 11.5t-3.5 10.5v43q0 11 10 11q4 0 8 -3l186 -134q8 -6 11.5 -10.5t3.5 -12.5v-36q0 -7 -3.5 -12t-11.5 -11l-186 -134q-4 -3 -8 -3z" />
    <glyph glyph-name="onequarter" unicode="&#xbc;" horiz-adv-x="738" 
d="M120 406v279q0 15 15 15h32q15 0 15 -15v-279q0 -15 -15 -15h-32q-15 0 -15 15zM105 4q-3 4 1 11l404 696q5 8 9 11.5t11 3.5h38q8 0 11 -4t-1 -11l-404 -696q-5 -8 -9 -11.5t-11 -3.5h-38q-8 0 -11 4zM589 15v36h-110q-17 0 -17 15v25q0 8 5 18l100 190q6 11 17 11h50
q15 0 15 -15v-187h14q15 0 15 -15v-27q0 -15 -15 -15h-14v-36q0 -15 -15 -15h-30q-15 0 -15 15zM589 110v117l-58 -117h58z" />
    <glyph glyph-name="onehalf" unicode="&#xbd;" horiz-adv-x="722" 
d="M120 406v279q0 15 15 15h32q15 0 15 -15v-279q0 -15 -15 -15h-32q-15 0 -15 15zM105 4q-3 4 1 11l404 696q5 8 9 11.5t11 3.5h38q8 0 11 -4t-1 -11l-404 -696q-5 -8 -9 -11.5t-11 -3.5h-38q-8 0 -11 4zM464 15v33q0 10 3 15.5t11 12.5l87 82q17 16 26 28.5t9 27.5
q0 19 -11 29t-30 10q-17 0 -27 -8.5t-10 -23.5v-7q0 -15 -15 -15h-30q-15 0 -15 15v13q0 37 23.5 60t64.5 23h25q42 0 64 -26t22 -64q0 -35 -17 -59.5t-49 -52.5l-56 -49h108q15 0 15 -15v-29q0 -15 -15 -15h-168q-15 0 -15 15z" />
    <glyph glyph-name="threequarters" unicode="&#xbe;" horiz-adv-x="761" 
d="M84 413q-24 23 -24 60v13q0 15 15 15h30q15 0 15 -15v-7q0 -16 10.5 -24t30.5 -8t30.5 10t10.5 28q0 17 -9 25.5t-30 8.5h-16q-14 0 -14 15v22q0 15 14 15h16q20 0 28.5 8.5t8.5 25.5q0 18 -10 28t-29 10q-18 0 -28.5 -8t-10.5 -24v-7q0 -15 -15 -15h-30q-15 0 -15 15v13
q0 37 23.5 60t64.5 23h25q40 0 62 -25.5t22 -60.5q0 -48 -42 -69q48 -22 48 -69q0 -36 -23 -61t-67 -25h-25q-42 0 -66 23zM128 4q-3 4 1 11l404 696q5 8 9 11.5t11 3.5h38q8 0 11 -4t-1 -11l-404 -696q-5 -8 -9 -11.5t-11 -3.5h-38q-8 0 -11 4zM612 15v36h-110
q-17 0 -17 15v25q0 8 5 18l100 190q6 11 17 11h50q15 0 15 -15v-187h14q15 0 15 -15v-27q0 -15 -15 -15h-14v-36q0 -15 -15 -15h-30q-15 0 -15 15zM612 110v117l-58 -117h58z" />
    <glyph glyph-name="questiondown" unicode="&#xbf;" horiz-adv-x="897" 
d="M503 319v-94q0 -57 -23.5 -85t-84.5 -28h-154q-71 0 -100.5 -27.5t-29.5 -98.5q0 -72 30 -100t100 -28h407q71 0 104.5 31t33.5 103q0 12 12 12h42q12 0 12 -12v-15q0 -92 -52.5 -136t-148.5 -44h-419q-97 0 -142 44.5t-45 145.5q0 100 44.5 142t143.5 42h142
q36 0 48.5 15.5t12.5 53.5v79q0 14 15 14h38q14 0 14 -14zM502.5 498.5q2.5 -2.5 2.5 -10.5v-44q0 -8 -3 -11t-10 -3h-44q-14 0 -14 14v44q0 7 3 10t11 3h44q8 0 10.5 -2.5z" />
    <glyph glyph-name="Agrave" unicode="&#xc0;" horiz-adv-x="1054" 
d="M564 696.5q4 -3.5 9 -12.5l438 -668q3 -4 3 -8q0 -8 -12 -8h-46q-8 0 -12 3.5t-10 12.5l-78 120h-658l-78 -120q-6 -9 -10 -12.5t-11 -3.5h-46q-5 0 -9 2t-4 6t3 8l438 668q5 9 9 12.5t11 3.5h53q6 0 10 -3.5zM817 195l-285 436h-10l-285 -436h580zM488 770l-84 115
q-4 5 -4 9q0 9 13 9h50q8 0 12.5 -4t10.5 -14l69 -115q3 -4 3 -8t-4 -7t-9 -3h-32q-12 0 -25 18z" />
    <glyph glyph-name="Aacute" unicode="&#xc1;" horiz-adv-x="1054" 
d="M564 696.5q4 -3.5 9 -12.5l438 -668q3 -4 3 -8q0 -8 -12 -8h-46q-8 0 -12 3.5t-10 12.5l-78 120h-658l-78 -120q-6 -9 -10 -12.5t-11 -3.5h-46q-5 0 -9 2t-4 6t3 8l438 668q5 9 9 12.5t11 3.5h53q6 0 10 -3.5zM817 195l-285 436h-10l-285 -436h580zM501 752q-4 3 -4 7
t3 8l69 115q6 10 10.5 14t11.5 4h50q13 0 13 -9q0 -4 -3 -9l-84 -115q-13 -18 -25 -18h-32q-5 0 -9 3z" />
    <glyph glyph-name="Acircumflex" unicode="&#xc2;" horiz-adv-x="1054" 
d="M564 696.5q4 -3.5 9 -12.5l438 -668q3 -4 3 -8q0 -8 -12 -8h-46q-8 0 -12 3.5t-10 12.5l-78 120h-658l-78 -120q-6 -9 -10 -12.5t-11 -3.5h-46q-5 0 -9 2t-4 6t3 8l438 668q5 9 9 12.5t11 3.5h53q6 0 10 -3.5zM817 195l-285 436h-10l-285 -436h580zM367 759q0 4 4 8
l105 120q7 8 12 10.5t13 2.5h39q9 0 15.5 -2.5t12.5 -10.5l105 -120q4 -4 4 -8q0 -8 -10 -8h-39q-8 0 -13 2.5t-12 10.5l-76 87h-10l-76 -87q-7 -8 -11.5 -10.5t-13.5 -2.5h-39q-10 0 -10 8z" />
    <glyph glyph-name="Atilde" unicode="&#xc3;" horiz-adv-x="1054" 
d="M564 696.5q4 -3.5 9 -12.5l438 -668q3 -4 3 -8q0 -8 -12 -8h-46q-8 0 -12 3.5t-10 12.5l-78 120h-658l-78 -120q-6 -9 -10 -12.5t-11 -3.5h-46q-5 0 -9 2t-4 6t3 8l438 668q5 9 9 12.5t11 3.5h53q6 0 10 -3.5zM817 195l-285 436h-10l-285 -436h580zM561.5 807
q-16.5 6 -41.5 19q-22 11 -36 16.5t-33 5.5q-15 0 -28 -4t-30 -15q-4 -3 -8 -3t-8 7l-13 29q0 3 -1 5q0 6 8 11q42 27 84 27q22 0 40 -6.5t38 -18.5q21 -11 36 -16.5t34 -5.5q16 0 29 4t30 15q5 3 8 3q4 0 7 -7l13 -29q1 -2 1 -5q0 -7 -8 -12q-43 -26 -83 -26q-22 0 -38.5 6
z" />
    <glyph glyph-name="Adieresis" unicode="&#xc4;" horiz-adv-x="1054" 
d="M564 696.5q4 -3.5 9 -12.5l438 -668q3 -4 3 -8q0 -8 -12 -8h-46q-8 0 -12 3.5t-10 12.5l-78 120h-658l-78 -120q-6 -9 -10 -12.5t-11 -3.5h-46q-5 0 -9 2t-4 6t3 8l438 668q5 9 9 12.5t11 3.5h53q6 0 10 -3.5zM817 195l-285 436h-10l-285 -436h580zM598 843v44q0 7 3 10
t11 3h44q8 0 10.5 -2.5t2.5 -10.5v-44q0 -8 -3 -11t-10 -3h-44q-14 0 -14 14zM365 832q-3 3 -3 11v44q0 8 3 10.5t10 2.5h44q8 0 11 -3t3 -10v-44q0 -14 -14 -14h-44q-7 0 -10 3z" />
    <glyph glyph-name="Aring" unicode="&#xc5;" horiz-adv-x="1054" 
d="M564 696.5q4 -3.5 9 -12.5l438 -668q3 -4 3 -8q0 -8 -12 -8h-46q-8 0 -12 3.5t-10 12.5l-78 120h-658l-78 -120q-6 -9 -10 -12.5t-11 -3.5h-46q-5 0 -9 2t-4 6t3 8l438 668q5 9 9 12.5t11 3.5h53q6 0 10 -3.5zM817 195l-285 436h-10l-285 -436h580zM430 762.5
q-24 23.5 -24 58.5v12q0 35 24 58.5t60 23.5h72q36 0 60 -23.5t24 -58.5v-12q0 -35 -24 -58.5t-60 -23.5h-72q-36 0 -60 23.5zM591 793q11 11 11 30v8q0 19 -11 30t-31 11h-68q-20 0 -31 -11t-11 -30v-8q0 -19 11 -30t31 -11h68q20 0 31 11z" />
    <glyph glyph-name="AE" unicode="&#xc6;" horiz-adv-x="1577" 
d="M40 6q0 5 4 9l657 670q7 8 12.5 11.5t12.5 3.5h776q15 0 15 -15v-31q0 -15 -15 -15h-720v-258h710q15 0 15 -15v-32q0 -15 -15 -15h-710v-258h725q15 0 15 -15v-31q0 -15 -15 -15h-777q-14 0 -14 14v122h-469l-118 -121q-13 -15 -26 -15h-52q-11 0 -11 6zM716 195v421
l-411 -421h411z" />
    <glyph glyph-name="Ccedilla" unicode="&#xc7;" horiz-adv-x="1011" 
d="M105.5 40.5q-45.5 44.5 -45.5 133.5v352q0 89 45.5 133.5t138.5 44.5h529q93 0 138 -44t45 -134v-21q0 -12 -11 -12h-43q-13 0 -13 12v13q0 65 -30.5 95t-97.5 30h-508q-67 0 -97 -29.5t-30 -95.5v-335q0 -67 30 -96.5t97 -29.5h508q67 0 97.5 26.5t30.5 82.5v6
q0 12 12 12h44q11 0 11 -12v-14q0 -162 -183 -162h-241q-30 -25 -30 -38q0 -12 24 -12h39q32 0 48.5 -15t16.5 -56q0 -40 -20.5 -57.5t-68.5 -17.5h-48q-47 0 -66.5 19t-19.5 57q0 12 11 12h32q4 0 7 -2t3 -6q0 -19 11.5 -28t37.5 -9h20q25 0 36 7.5t11 24.5t-7 24.5
t-23 7.5h-71q-16 0 -27 9t-11 25q0 12 7.5 24.5t27.5 30.5h-228q-93 0 -138.5 44.5z" />
    <glyph glyph-name="Egrave" unicode="&#xc8;" horiz-adv-x="926" 
d="M65 14v672q0 14 14 14h772q15 0 15 -15v-31q0 -15 -15 -15h-720v-258h710q15 0 15 -15v-32q0 -15 -15 -15h-710v-258h725q15 0 15 -15v-31q0 -15 -15 -15h-777q-14 0 -14 14zM435 767l-84 115q-4 5 -4 9q0 9 13 9h50q8 0 12.5 -4t10.5 -14l69 -115q3 -4 3 -8t-4 -7t-9 -3
h-32q-12 0 -25 18z" />
    <glyph glyph-name="Eacute" unicode="&#xc9;" horiz-adv-x="926" 
d="M65 14v672q0 14 14 14h772q15 0 15 -15v-31q0 -15 -15 -15h-720v-258h710q15 0 15 -15v-32q0 -15 -15 -15h-710v-258h725q15 0 15 -15v-31q0 -15 -15 -15h-777q-14 0 -14 14zM448 752q-4 3 -4 7t3 8l69 115q6 10 10.5 14t11.5 4h50q13 0 13 -9q0 -4 -3 -9l-84 -115
q-13 -18 -25 -18h-32q-5 0 -9 3z" />
    <glyph glyph-name="Ecircumflex" unicode="&#xca;" horiz-adv-x="926" 
d="M65 14v672q0 14 14 14h772q15 0 15 -15v-31q0 -15 -15 -15h-720v-258h710q15 0 15 -15v-32q0 -15 -15 -15h-710v-258h725q15 0 15 -15v-31q0 -15 -15 -15h-777q-14 0 -14 14zM313 759q0 4 4 8l105 120q7 8 12 10.5t13 2.5h39q9 0 15.5 -2.5t12.5 -10.5l105 -120
q4 -4 4 -8q0 -8 -10 -8h-39q-8 0 -13 2.5t-12 10.5l-76 87h-10l-76 -87q-7 -8 -11.5 -10.5t-13.5 -2.5h-39q-10 0 -10 8z" />
    <glyph glyph-name="Edieresis" unicode="&#xcb;" horiz-adv-x="926" 
d="M65 14v672q0 14 14 14h772q15 0 15 -15v-31q0 -15 -15 -15h-720v-258h710q15 0 15 -15v-32q0 -15 -15 -15h-710v-258h725q15 0 15 -15v-31q0 -15 -15 -15h-777q-14 0 -14 14zM544 843v44q0 7 3 10t11 3h44q8 0 10.5 -2.5t2.5 -10.5v-44q0 -8 -3 -11t-10 -3h-44
q-14 0 -14 14zM311 832q-3 3 -3 11v44q0 8 3 10.5t10 2.5h44q8 0 11 -3t3 -10v-44q0 -14 -14 -14h-44q-7 0 -10 3z" />
    <glyph glyph-name="Igrave" unicode="&#xcc;" horiz-adv-x="196" 
d="M65 14v672q0 14 14 14h38q14 0 14 -14v-672q0 -14 -14 -14h-38q-14 0 -14 14zM59 767l-84 115q-4 5 -4 9q0 9 13 9h50q8 0 12.5 -4t10.5 -14l69 -115q3 -4 3 -8t-4 -7t-9 -3h-32q-12 0 -25 18z" />
    <glyph glyph-name="Iacute" unicode="&#xcd;" horiz-adv-x="196" 
d="M65 14v672q0 14 14 14h38q14 0 14 -14v-672q0 -14 -14 -14h-38q-14 0 -14 14zM72 752q-4 3 -4 7t3 8l69 115q6 10 10.5 14t11.5 4h50q13 0 13 -9q0 -4 -3 -9l-84 -115q-13 -18 -25 -18h-32q-5 0 -9 3z" />
    <glyph glyph-name="Icircumflex" unicode="&#xce;" horiz-adv-x="196" 
d="M65 14v672q0 14 14 14h38q14 0 14 -14v-672q0 -14 -14 -14h-38q-14 0 -14 14zM-62 759q0 4 4 8l105 120q7 8 12 10.5t13 2.5h39q9 0 15.5 -2.5t12.5 -10.5l105 -120q4 -4 4 -8q0 -8 -10 -8h-39q-8 0 -13 2.5t-12 10.5l-76 87h-10l-76 -87q-7 -8 -11.5 -10.5t-13.5 -2.5
h-39q-10 0 -10 8z" />
    <glyph glyph-name="Idieresis" unicode="&#xcf;" horiz-adv-x="196" 
d="M65 14v672q0 14 14 14h38q14 0 14 -14v-672q0 -14 -14 -14h-38q-14 0 -14 14zM169 843v44q0 7 3 10t11 3h44q8 0 10.5 -2.5t2.5 -10.5v-44q0 -8 -3 -11t-10 -3h-44q-14 0 -14 14zM-64 832q-3 3 -3 11v44q0 8 3 10.5t10 2.5h44q8 0 11 -3t3 -10v-44q0 -14 -14 -14h-44
q-7 0 -10 3z" />
    <glyph glyph-name="Eth" unicode="&#xd0;" horiz-adv-x="1042" 
d="M90 14v307h-73q-12 0 -12 13v33q0 13 12 13h73v306q0 14 14 14h695q93 0 138.5 -44.5t45.5 -133.5v-344q0 -89 -45.5 -133.5t-138.5 -44.5h-695q-14 0 -14 14zM790 61q67 0 96.5 29.5t29.5 96.5v327q0 66 -29.5 95.5t-96.5 29.5h-634v-259h405q13 0 13 -13v-33
q0 -13 -13 -13h-405v-260h634z" />
    <glyph glyph-name="Ntilde" unicode="&#xd1;" horiz-adv-x="973" 
d="M65 14v672q0 14 14 14h67q5 0 9.5 -3t8.5 -7l671 -620h7v616q0 14 14 14h38q14 0 14 -14v-672q0 -14 -14 -14h-67q-5 0 -9.5 3t-8.5 7l-671 620h-7v-616q0 -14 -14 -14h-38q-14 0 -14 14zM520.5 807q-16.5 6 -41.5 19q-22 11 -36 16.5t-33 5.5q-15 0 -28 -4t-30 -15
q-4 -3 -8 -3t-8 7l-13 29q0 3 -1 5q0 6 8 11q42 27 84 27q22 0 40 -6.5t38 -18.5q21 -11 36 -16.5t34 -5.5q16 0 29 4t30 15q5 3 8 3q4 0 7 -7l13 -29q1 -2 1 -5q0 -7 -8 -12q-43 -26 -83 -26q-22 0 -38.5 6z" />
    <glyph glyph-name="Ograve" unicode="&#xd2;" 
d="M105.5 40.5q-45.5 44.5 -45.5 133.5v352q0 89 45.5 133.5t138.5 44.5h527q185 0 185 -178v-352q0 -178 -185 -178h-527q-93 0 -138.5 44.5zM859.5 86.5q29.5 29.5 29.5 96.5v335q0 66 -29.5 95.5t-96.5 29.5h-510q-67 0 -97 -29.5t-30 -95.5v-335q0 -67 30 -96.5
t97 -29.5h510q67 0 96.5 29.5zM469 767l-84 115q-4 5 -4 9q0 9 13 9h50q8 0 12.5 -4t10.5 -14l69 -115q3 -4 3 -8t-4 -7t-9 -3h-32q-12 0 -25 18z" />
    <glyph glyph-name="Oacute" unicode="&#xd3;" 
d="M105.5 40.5q-45.5 44.5 -45.5 133.5v352q0 89 45.5 133.5t138.5 44.5h527q185 0 185 -178v-352q0 -178 -185 -178h-527q-93 0 -138.5 44.5zM859.5 86.5q29.5 29.5 29.5 96.5v335q0 66 -29.5 95.5t-96.5 29.5h-510q-67 0 -97 -29.5t-30 -95.5v-335q0 -67 30 -96.5
t97 -29.5h510q67 0 96.5 29.5zM482 752q-4 3 -4 7t3 8l69 115q6 10 10.5 14t11.5 4h50q13 0 13 -9q0 -4 -3 -9l-84 -115q-13 -18 -25 -18h-32q-5 0 -9 3z" />
    <glyph glyph-name="Ocircumflex" unicode="&#xd4;" 
d="M105.5 40.5q-45.5 44.5 -45.5 133.5v352q0 89 45.5 133.5t138.5 44.5h527q185 0 185 -178v-352q0 -178 -185 -178h-527q-93 0 -138.5 44.5zM859.5 86.5q29.5 29.5 29.5 96.5v335q0 66 -29.5 95.5t-96.5 29.5h-510q-67 0 -97 -29.5t-30 -95.5v-335q0 -67 30 -96.5
t97 -29.5h510q67 0 96.5 29.5zM348 759q0 4 4 8l105 120q7 8 12 10.5t13 2.5h39q9 0 15.5 -2.5t12.5 -10.5l105 -120q4 -4 4 -8q0 -8 -10 -8h-39q-8 0 -13 2.5t-12 10.5l-76 87h-10l-76 -87q-7 -8 -11.5 -10.5t-13.5 -2.5h-39q-10 0 -10 8z" />
    <glyph glyph-name="Otilde" unicode="&#xd5;" 
d="M105.5 40.5q-45.5 44.5 -45.5 133.5v352q0 89 45.5 133.5t138.5 44.5h527q185 0 185 -178v-352q0 -178 -185 -178h-527q-93 0 -138.5 44.5zM859.5 86.5q29.5 29.5 29.5 96.5v335q0 66 -29.5 95.5t-96.5 29.5h-510q-67 0 -97 -29.5t-30 -95.5v-335q0 -67 30 -96.5
t97 -29.5h510q67 0 96.5 29.5zM542.5 807q-16.5 6 -41.5 19q-22 11 -36 16.5t-33 5.5q-15 0 -28 -4t-30 -15q-4 -3 -8 -3t-8 7l-13 29q0 3 -1 5q0 6 8 11q42 27 84 27q22 0 40 -6.5t38 -18.5q21 -11 36 -16.5t34 -5.5q16 0 29 4t30 15q5 3 8 3q4 0 7 -7l13 -29q1 -2 1 -5
q0 -7 -8 -12q-43 -26 -83 -26q-22 0 -38.5 6z" />
    <glyph glyph-name="Odieresis" unicode="&#xd6;" 
d="M105.5 40.5q-45.5 44.5 -45.5 133.5v352q0 89 45.5 133.5t138.5 44.5h527q185 0 185 -178v-352q0 -178 -185 -178h-527q-93 0 -138.5 44.5zM859.5 86.5q29.5 29.5 29.5 96.5v335q0 66 -29.5 95.5t-96.5 29.5h-510q-67 0 -97 -29.5t-30 -95.5v-335q0 -67 30 -96.5
t97 -29.5h510q67 0 96.5 29.5zM579 843v44q0 7 3 10t11 3h44q8 0 10.5 -2.5t2.5 -10.5v-44q0 -8 -3 -11t-10 -3h-44q-14 0 -14 14zM346 832q-3 3 -3 11v44q0 8 3 10.5t10 2.5h44q8 0 11 -3t3 -10v-44q0 -14 -14 -14h-44q-7 0 -10 3z" />
    <glyph glyph-name="multiply" unicode="&#xd7;" horiz-adv-x="414" 
d="M323 166q-5 0 -11 6l-105 105l-105 -105q-6 -6 -10 -6t-9 5l-28 28q-5 7 -5 9q0 3 5 10l106 105l-105 105q-6 6 -6 10t5 9l28 28q5 5 9 5t10 -6l105 -105l105 105q6 6 11 6q4 0 9 -5l27 -28q5 -5 5 -9t-6 -10l-105 -105l106 -105q5 -5 5 -10q0 -4 -5 -9l-27 -28
q-5 -5 -9 -5z" />
    <glyph glyph-name="Oslash" unicode="&#xd8;" 
d="M317 -30l11 26h-84q-93 0 -138.5 44.5t-45.5 133.5v352q0 89 45.5 133.5t138.5 44.5h379l10 25q3 8 7 11.5t11 3.5h40q15 0 9 -15l-10 -25h81q185 0 185 -178v-352q0 -178 -185 -178h-377l-11 -26q-3 -8 -7 -11.5t-11 -3.5h-39q-15 0 -9 15zM859.5 86.5
q29.5 29.5 29.5 96.5v335q0 66 -29.5 95.5t-96.5 29.5h-99l-245 -586h344q67 0 96.5 29.5zM156 86.5q30 -29.5 97 -29.5h100l244 586h-344q-67 0 -97 -29.5t-30 -95.5v-335q0 -67 30 -96.5z" />
    <glyph glyph-name="Ugrave" unicode="&#xd9;" horiz-adv-x="1026" 
d="M110.5 44.5q-45.5 44.5 -45.5 133.5v508q0 14 14 14h38q14 0 14 -14v-499q0 -67 30 -96.5t97 -29.5h510q67 0 96.5 29.5t29.5 96.5v499q0 14 14 14h38q15 0 15 -14v-508q0 -89 -45.5 -133.5t-138.5 -44.5h-528q-93 0 -138.5 44.5zM474 767l-84 115q-4 5 -4 9q0 9 13 9h50
q8 0 12.5 -4t10.5 -14l69 -115q3 -4 3 -8t-4 -7t-9 -3h-32q-12 0 -25 18z" />
    <glyph glyph-name="Uacute" unicode="&#xda;" horiz-adv-x="1026" 
d="M110.5 44.5q-45.5 44.5 -45.5 133.5v508q0 14 14 14h38q14 0 14 -14v-499q0 -67 30 -96.5t97 -29.5h510q67 0 96.5 29.5t29.5 96.5v499q0 14 14 14h38q15 0 15 -14v-508q0 -89 -45.5 -133.5t-138.5 -44.5h-528q-93 0 -138.5 44.5zM487 752q-4 3 -4 7t3 8l69 115
q6 10 10.5 14t11.5 4h50q13 0 13 -9q0 -4 -3 -9l-84 -115q-13 -18 -25 -18h-32q-5 0 -9 3z" />
    <glyph glyph-name="Ucircumflex" unicode="&#xdb;" horiz-adv-x="1026" 
d="M110.5 44.5q-45.5 44.5 -45.5 133.5v508q0 14 14 14h38q14 0 14 -14v-499q0 -67 30 -96.5t97 -29.5h510q67 0 96.5 29.5t29.5 96.5v499q0 14 14 14h38q15 0 15 -14v-508q0 -89 -45.5 -133.5t-138.5 -44.5h-528q-93 0 -138.5 44.5zM353 759q0 4 4 8l105 120q7 8 12 10.5
t13 2.5h39q9 0 15.5 -2.5t12.5 -10.5l105 -120q4 -4 4 -8q0 -8 -10 -8h-39q-8 0 -13 2.5t-12 10.5l-76 87h-10l-76 -87q-7 -8 -11.5 -10.5t-13.5 -2.5h-39q-10 0 -10 8z" />
    <glyph glyph-name="Udieresis" unicode="&#xdc;" horiz-adv-x="1026" 
d="M110.5 44.5q-45.5 44.5 -45.5 133.5v508q0 14 14 14h38q14 0 14 -14v-499q0 -67 30 -96.5t97 -29.5h510q67 0 96.5 29.5t29.5 96.5v499q0 14 14 14h38q15 0 15 -14v-508q0 -89 -45.5 -133.5t-138.5 -44.5h-528q-93 0 -138.5 44.5zM584 843v44q0 7 3 10t11 3h44
q8 0 10.5 -2.5t2.5 -10.5v-44q0 -8 -3 -11t-10 -3h-44q-14 0 -14 14zM351 832q-3 3 -3 11v44q0 8 3 10.5t10 2.5h44q8 0 11 -3t3 -10v-44q0 -14 -14 -14h-44q-7 0 -10 3z" />
    <glyph glyph-name="Yacute" unicode="&#xdd;" horiz-adv-x="949" 
d="M442 14v268l-397 405q-5 5 -5 8q0 5 8 5h57q7 0 12 -3.5t13 -11.5l340 -345h9l340 345q8 8 13 11.5t12 3.5h58q7 0 7 -5q0 -3 -5 -8l-396 -405v-268q0 -14 -15 -14h-37q-14 0 -14 14zM449 752q-4 3 -4 7t3 8l69 115q6 10 10.5 14t11.5 4h50q13 0 13 -9q0 -4 -3 -9
l-84 -115q-13 -18 -25 -18h-32q-5 0 -9 3z" />
    <glyph glyph-name="Thorn" unicode="&#xde;" horiz-adv-x="937" 
d="M65 14v672q0 14 14 14h38q14 0 14 -14v-124h562q94 0 139 -44t45 -134v-68q0 -90 -45 -134t-139 -44h-562v-124q0 -14 -14 -14h-38q-14 0 -14 14zM684 199q67 0 97 29.5t30 95.5v52q0 66 -30 95.5t-97 29.5h-553v-302h553z" />
    <glyph glyph-name="germandbls" unicode="&#xdf;" horiz-adv-x="911" 
d="M66 15l-1 556q0 158 158 158h443q80 0 123 -39.5t43 -116.5v-42q0 -59 -22 -92t-63 -47q57 -13 88 -47t31 -109v-62q0 -69 -20.5 -106.5t-63.5 -52.5t-115 -15h-400q-15 0 -15 15v30q0 15 15 15h396q56 0 84 8t41 31.5t13 72.5v74q0 59 -39 86t-106 27h-389q-15 0 -15 15
v30q0 15 15 15h389q110 0 110 112v42q0 51 -24.5 73.5t-75.5 22.5h-443q-51 0 -70.5 -23t-19.5 -75l-1 -556q0 -15 -15 -15h-36q-15 0 -15 15z" />
    <glyph glyph-name="agrave" unicode="&#xe0;" horiz-adv-x="722" 
d="M69.5 32.5q-39.5 37.5 -39.5 111.5t38 108t111 34h429v32q0 48 -12 75t-42 40t-86 13h-238q-55 0 -78.5 -15.5t-28.5 -51.5q-1 -7 -4.5 -10t-11.5 -3h-31q-9 0 -13 4.5t-4 16.5q0 57 38.5 87t122.5 30h259q105 0 149 -43t44 -138v-309q0 -14 -14 -14h-36q-14 0 -14 14v57
h-6q-26 -34 -66.5 -55t-97.5 -21h-257q-72 0 -111.5 37.5zM569 86q39 31 39 79v68h-426q-44 0 -66 -19.5t-22 -68.5q0 -48 22 -69t66 -21h288q60 0 99 31zM326 567l-84 115q-4 5 -4 9q0 9 13 9h50q8 0 12.5 -4t10.5 -14l69 -115q3 -4 3 -8t-4 -7t-9 -3h-32q-12 0 -25 18z
" />
    <glyph glyph-name="aacute" unicode="&#xe1;" horiz-adv-x="722" 
d="M69.5 32.5q-39.5 37.5 -39.5 111.5t38 108t111 34h429v32q0 48 -12 75t-42 40t-86 13h-238q-55 0 -78.5 -15.5t-28.5 -51.5q-1 -7 -4.5 -10t-11.5 -3h-31q-9 0 -13 4.5t-4 16.5q0 57 38.5 87t122.5 30h259q105 0 149 -43t44 -138v-309q0 -14 -14 -14h-36q-14 0 -14 14v57
h-6q-26 -34 -66.5 -55t-97.5 -21h-257q-72 0 -111.5 37.5zM569 86q39 31 39 79v68h-426q-44 0 -66 -19.5t-22 -68.5q0 -48 22 -69t66 -21h288q60 0 99 31zM339 552q-4 3 -4 7t3 8l69 115q6 10 10.5 14t11.5 4h50q13 0 13 -9q0 -4 -3 -9l-84 -115q-13 -18 -25 -18h-32
q-5 0 -9 3z" />
    <glyph glyph-name="acircumflex" unicode="&#xe2;" horiz-adv-x="722" 
d="M69.5 32.5q-39.5 37.5 -39.5 111.5t38 108t111 34h429v32q0 48 -12 75t-42 40t-86 13h-238q-55 0 -78.5 -15.5t-28.5 -51.5q-1 -7 -4.5 -10t-11.5 -3h-31q-9 0 -13 4.5t-4 16.5q0 57 38.5 87t122.5 30h259q105 0 149 -43t44 -138v-309q0 -14 -14 -14h-36q-14 0 -14 14v57
h-6q-26 -34 -66.5 -55t-97.5 -21h-257q-72 0 -111.5 37.5zM569 86q39 31 39 79v68h-426q-44 0 -66 -19.5t-22 -68.5q0 -48 22 -69t66 -21h288q60 0 99 31zM204 559q0 4 4 8l105 120q7 8 12 10.5t13 2.5h39q9 0 15.5 -2.5t12.5 -10.5l105 -120q4 -4 4 -8q0 -8 -10 -8h-39
q-8 0 -13 2.5t-12 10.5l-76 87h-10l-76 -87q-7 -8 -11.5 -10.5t-13.5 -2.5h-39q-10 0 -10 8z" />
    <glyph glyph-name="atilde" unicode="&#xe3;" horiz-adv-x="722" 
d="M69.5 32.5q-39.5 37.5 -39.5 111.5t38 108t111 34h429v32q0 48 -12 75t-42 40t-86 13h-238q-55 0 -78.5 -15.5t-28.5 -51.5q-1 -7 -4.5 -10t-11.5 -3h-31q-9 0 -13 4.5t-4 16.5q0 57 38.5 87t122.5 30h259q105 0 149 -43t44 -138v-309q0 -14 -14 -14h-36q-14 0 -14 14v57
h-6q-26 -34 -66.5 -55t-97.5 -21h-257q-72 0 -111.5 37.5zM569 86q39 31 39 79v68h-426q-44 0 -66 -19.5t-22 -68.5q0 -48 22 -69t66 -21h288q60 0 99 31zM398.5 607q-16.5 6 -41.5 19q-22 11 -36 16.5t-33 5.5q-15 0 -28 -4t-30 -15q-4 -3 -8 -3t-8 7l-13 29q0 3 -1 5
q0 6 8 11q42 27 84 27q22 0 40 -6.5t38 -18.5q21 -11 36 -16.5t34 -5.5q16 0 29 4t30 15q5 3 8 3q4 0 7 -7l13 -29q1 -2 1 -5q0 -7 -8 -12q-43 -26 -83 -26q-22 0 -38.5 6z" />
    <glyph glyph-name="adieresis" unicode="&#xe4;" horiz-adv-x="722" 
d="M69.5 32.5q-39.5 37.5 -39.5 111.5t38 108t111 34h429v32q0 48 -12 75t-42 40t-86 13h-238q-55 0 -78.5 -15.5t-28.5 -51.5q-1 -7 -4.5 -10t-11.5 -3h-31q-9 0 -13 4.5t-4 16.5q0 57 38.5 87t122.5 30h259q105 0 149 -43t44 -138v-309q0 -14 -14 -14h-36q-14 0 -14 14v57
h-6q-26 -34 -66.5 -55t-97.5 -21h-257q-72 0 -111.5 37.5zM569 86q39 31 39 79v68h-426q-44 0 -66 -19.5t-22 -68.5q0 -48 22 -69t66 -21h288q60 0 99 31zM435 643v44q0 7 3 10t11 3h44q8 0 10.5 -2.5t2.5 -10.5v-44q0 -8 -3 -11t-10 -3h-44q-14 0 -14 14zM202 632
q-3 3 -3 11v44q0 8 3 10.5t10 2.5h44q8 0 11 -3t3 -10v-44q0 -14 -14 -14h-44q-7 0 -10 3z" />
    <glyph glyph-name="aring" unicode="&#xe5;" horiz-adv-x="722" 
d="M69.5 32.5q-39.5 37.5 -39.5 111.5t38 108t111 34h429v32q0 48 -12 75t-42 40t-86 13h-238q-55 0 -78.5 -15.5t-28.5 -51.5q-1 -7 -4.5 -10t-11.5 -3h-31q-9 0 -13 4.5t-4 16.5q0 57 38.5 87t122.5 30h259q105 0 149 -43t44 -138v-309q0 -14 -14 -14h-36q-14 0 -14 14v57
h-6q-26 -34 -66.5 -55t-97.5 -21h-257q-72 0 -111.5 37.5zM569 86q39 31 39 79v68h-426q-44 0 -66 -19.5t-22 -68.5q0 -48 22 -69t66 -21h288q60 0 99 31zM267 562.5q-24 23.5 -24 58.5v12q0 35 24 58.5t60 23.5h72q36 0 60 -23.5t24 -58.5v-12q0 -35 -24 -58.5t-60 -23.5
h-72q-36 0 -60 23.5zM428 593q11 11 11 30v8q0 19 -11 30t-31 11h-68q-20 0 -31 -11t-11 -30v-8q0 -19 11 -30t31 -11h68q20 0 31 11z" />
    <glyph glyph-name="ae" unicode="&#xe6;" horiz-adv-x="1292" 
d="M69.5 32.5q-39.5 37.5 -39.5 111.5t38 108t111 34h429v32q0 48 -12 75t-42 40t-86 13l-238 -1q-55 0 -78.5 -15.5t-28.5 -51.5q-2 -14 -16 -14h-31q-9 0 -13 5t-4 16q0 119 162 119h258q62 0 100 -15t57 -46q43 61 145 61h293q85 0 129 -44t44 -128v-67q0 -23 -9.5 -32
t-32.5 -9h-533v-56q0 -58 28 -85.5t84 -27.5h273q55 0 79 5t51 23q5 4 11 4q5 0 11 -3l23 -12q5 -2 5 -6t-5 -11q-23 -31 -59.5 -45.5t-115.5 -14.5h-276q-120 0 -158 84q-26 -38 -68.5 -61t-101.5 -23h-272q-72 0 -111.5 37.5zM569 86q39 31 39 79v68h-426q-44 0 -66 -19.5
t-22 -68.5q0 -48 22 -69t66 -21h288q60 0 99 31zM1183 276v54q0 59 -28 86.5t-85 27.5h-286q-56 0 -84 -27.5t-28 -86.5v-54h511z" />
    <glyph glyph-name="ccedilla" unicode="&#xe7;" horiz-adv-x="721" 
d="M88.5 38q-43.5 43 -43.5 127v168q0 171 173 171h299q164 0 164 -141v-24q0 -13 -14 -13h-35q-15 0 -15 11v23q0 84 -107 84h-289q-56 0 -84 -27.5t-28 -86.5v-162q0 -58 28 -85.5t84 -27.5h273q55 0 79 5t51 23q5 4 11 4q5 0 11 -3l23 -12q5 -2 5 -6t-5 -11
q-23 -31 -59.5 -45.5t-115.5 -14.5h-105q-29 -23 -29 -37q0 -12 24 -12h39q32 0 48.5 -15t16.5 -56q0 -40 -20.5 -57.5t-68.5 -17.5h-48q-47 0 -66.5 19t-19.5 57q0 12 11 12h32q4 0 7 -2t3 -6q0 -19 11.5 -28t37.5 -9h20q25 0 36 7.5t11 24.5t-7 24.5t-23 7.5h-71
q-16 0 -27 9t-11 25q0 12 7.5 24t26.5 30h-111q-86 0 -129.5 43z" />
    <glyph glyph-name="egrave" unicode="&#xe8;" horiz-adv-x="729" 
d="M88.5 38q-43.5 43 -43.5 127v168q0 171 173 171h293q85 0 129 -44t44 -128v-67q0 -23 -9.5 -32t-32.5 -9h-533v-56q0 -58 28 -85.5t84 -27.5h273q55 0 79 5t51 23q5 4 11 4q5 0 11 -3l23 -12q5 -2 5 -6t-5 -11q-23 -31 -59.5 -45.5t-115.5 -14.5h-276q-86 0 -129.5 43z
M620 276v54q0 59 -28 86.5t-85 27.5h-286q-56 0 -84 -27.5t-28 -86.5v-54h511zM324 567l-84 115q-4 5 -4 9q0 9 13 9h50q8 0 12.5 -4t10.5 -14l69 -115q3 -4 3 -8t-4 -7t-9 -3h-32q-12 0 -25 18z" />
    <glyph glyph-name="eacute" unicode="&#xe9;" horiz-adv-x="729" 
d="M88.5 38q-43.5 43 -43.5 127v168q0 171 173 171h293q85 0 129 -44t44 -128v-67q0 -23 -9.5 -32t-32.5 -9h-533v-56q0 -58 28 -85.5t84 -27.5h273q55 0 79 5t51 23q5 4 11 4q5 0 11 -3l23 -12q5 -2 5 -6t-5 -11q-23 -31 -59.5 -45.5t-115.5 -14.5h-276q-86 0 -129.5 43z
M620 276v54q0 59 -28 86.5t-85 27.5h-286q-56 0 -84 -27.5t-28 -86.5v-54h511zM337 552q-4 3 -4 7t3 8l69 115q6 10 10.5 14t11.5 4h50q13 0 13 -9q0 -4 -3 -9l-84 -115q-13 -18 -25 -18h-32q-5 0 -9 3z" />
    <glyph glyph-name="ecircumflex" unicode="&#xea;" horiz-adv-x="729" 
d="M88.5 38q-43.5 43 -43.5 127v168q0 171 173 171h293q85 0 129 -44t44 -128v-67q0 -23 -9.5 -32t-32.5 -9h-533v-56q0 -58 28 -85.5t84 -27.5h273q55 0 79 5t51 23q5 4 11 4q5 0 11 -3l23 -12q5 -2 5 -6t-5 -11q-23 -31 -59.5 -45.5t-115.5 -14.5h-276q-86 0 -129.5 43z
M620 276v54q0 59 -28 86.5t-85 27.5h-286q-56 0 -84 -27.5t-28 -86.5v-54h511zM203 559q0 4 4 8l105 120q7 8 12 10.5t13 2.5h39q9 0 15.5 -2.5t12.5 -10.5l105 -120q4 -4 4 -8q0 -8 -10 -8h-39q-8 0 -13 2.5t-12 10.5l-76 87h-10l-76 -87q-7 -8 -11.5 -10.5t-13.5 -2.5h-39
q-10 0 -10 8z" />
    <glyph glyph-name="edieresis" unicode="&#xeb;" horiz-adv-x="729" 
d="M88.5 38q-43.5 43 -43.5 127v168q0 171 173 171h293q85 0 129 -44t44 -128v-67q0 -23 -9.5 -32t-32.5 -9h-533v-56q0 -58 28 -85.5t84 -27.5h273q55 0 79 5t51 23q5 4 11 4q5 0 11 -3l23 -12q5 -2 5 -6t-5 -11q-23 -31 -59.5 -45.5t-115.5 -14.5h-276q-86 0 -129.5 43z
M620 276v54q0 59 -28 86.5t-85 27.5h-286q-56 0 -84 -27.5t-28 -86.5v-54h511zM434 643v44q0 7 3 10t11 3h44q8 0 10.5 -2.5t2.5 -10.5v-44q0 -8 -3 -11t-10 -3h-44q-14 0 -14 14zM201 632q-3 3 -3 11v44q0 8 3 10.5t10 2.5h44q8 0 11 -3t3 -10v-44q0 -14 -14 -14h-44
q-7 0 -10 3z" />
    <glyph glyph-name="igrave" unicode="&#xec;" horiz-adv-x="164" 
d="M50 14v472q0 14 14 14h36q14 0 14 -14v-472q0 -14 -14 -14h-36q-14 0 -14 14zM43 567l-84 115q-4 5 -4 9q0 9 13 9h50q8 0 12.5 -4t10.5 -14l69 -115q3 -4 3 -8t-4 -7t-9 -3h-32q-12 0 -25 18z" />
    <glyph glyph-name="iacute" unicode="&#xed;" horiz-adv-x="164" 
d="M50 14v472q0 14 14 14h36q14 0 14 -14v-472q0 -14 -14 -14h-36q-14 0 -14 14zM56 552q-4 3 -4 7t3 8l69 115q6 10 10.5 14t11.5 4h50q13 0 13 -9q0 -4 -3 -9l-84 -115q-13 -18 -25 -18h-32q-5 0 -9 3z" />
    <glyph glyph-name="icircumflex" unicode="&#xee;" horiz-adv-x="164" 
d="M50 14v472q0 14 14 14h36q14 0 14 -14v-472q0 -14 -14 -14h-36q-14 0 -14 14zM-79 559q0 4 4 8l105 120q7 8 12 10.5t13 2.5h39q9 0 15.5 -2.5t12.5 -10.5l105 -120q4 -4 4 -8q0 -8 -10 -8h-39q-8 0 -13 2.5t-12 10.5l-76 87h-10l-76 -87q-7 -8 -11.5 -10.5t-13.5 -2.5
h-39q-10 0 -10 8z" />
    <glyph glyph-name="idieresis" unicode="&#xef;" horiz-adv-x="164" 
d="M50 14v472q0 14 14 14h36q14 0 14 -14v-472q0 -14 -14 -14h-36q-14 0 -14 14zM153 643v44q0 7 3 10t11 3h44q8 0 10.5 -2.5t2.5 -10.5v-44q0 -8 -3 -11t-10 -3h-44q-14 0 -14 14zM-80 632q-3 3 -3 11v44q0 8 3 10.5t10 2.5h44q8 0 11 -3t3 -10v-44q0 -14 -14 -14h-44
q-7 0 -10 3z" />
    <glyph glyph-name="eth" unicode="&#xf0;" horiz-adv-x="761" 
d="M89 38.5q-44 43.5 -44 127.5v166q0 85 44 128.5t130 43.5h256q61 0 89 -13t51 -43h7v91q0 48 -21 70l-47 -50q-10 -10 -15 -13.5t-11 -3.5h-30q-6 0 -9.5 2.5t-3.5 6.5q0 5 4 9l69 74q-25 6 -61 6h-282q-15 0 -15 14v32q0 14 15 14h293q59 0 97 -16l36 38q10 10 15 13.5
t12 3.5h30q6 0 9.5 -2.5t3.5 -6.5t-5 -9l-60 -64q40 -41 40 -123v-520q0 -14 -14 -14h-35q-15 0 -15 14v38h-7q-22 -31 -50.5 -44t-89.5 -13h-256q-86 0 -130 43.5zM594.5 82.5q27.5 27.5 27.5 85.5v162q0 59 -27.5 86.5t-83.5 27.5h-290q-56 0 -84 -27.5t-28 -86.5v-162
q0 -58 28 -85.5t84 -27.5h290q56 0 83.5 27.5z" />
    <glyph glyph-name="ntilde" unicode="&#xf1;" horiz-adv-x="741" 
d="M50 14v472q0 14 14 14h36q14 0 14 -14v-38h7q23 30 51 43t89 13h257q85 0 129 -43.5t44 -128.5v-318q0 -14 -14 -14h-35q-15 0 -15 14v316q0 59 -28 86.5t-84 27.5h-289q-56 0 -84 -27.5t-28 -86.5v-316q0 -14 -14 -14h-36q-14 0 -14 14zM405.5 607q-16.5 6 -41.5 19
q-22 11 -36 16.5t-33 5.5q-15 0 -28 -4t-30 -15q-4 -3 -8 -3t-8 7l-13 29q0 3 -1 5q0 6 8 11q42 27 84 27q22 0 40 -6.5t38 -18.5q21 -11 36 -16.5t34 -5.5q16 0 29 4t30 15q5 3 8 3q4 0 7 -7l13 -29q1 -2 1 -5q0 -7 -8 -12q-43 -26 -83 -26q-22 0 -38.5 6z" />
    <glyph glyph-name="ograve" unicode="&#xf2;" horiz-adv-x="731" 
d="M88.5 38q-43.5 43 -43.5 127v168q0 171 173 171h295q173 0 173 -171v-168q0 -84 -43.5 -127t-129.5 -43h-295q-86 0 -129.5 43zM594 82.5q28 27.5 28 85.5v162q0 59 -28 86.5t-84 27.5h-289q-56 0 -84 -27.5t-28 -86.5v-162q0 -58 28 -85.5t84 -27.5h289q56 0 84 27.5z
M326 567l-84 115q-4 5 -4 9q0 9 13 9h50q8 0 12.5 -4t10.5 -14l69 -115q3 -4 3 -8t-4 -7t-9 -3h-32q-12 0 -25 18z" />
    <glyph glyph-name="oacute" unicode="&#xf3;" horiz-adv-x="731" 
d="M88.5 38q-43.5 43 -43.5 127v168q0 171 173 171h295q173 0 173 -171v-168q0 -84 -43.5 -127t-129.5 -43h-295q-86 0 -129.5 43zM594 82.5q28 27.5 28 85.5v162q0 59 -28 86.5t-84 27.5h-289q-56 0 -84 -27.5t-28 -86.5v-162q0 -58 28 -85.5t84 -27.5h289q56 0 84 27.5z
M339 552q-4 3 -4 7t3 8l69 115q6 10 10.5 14t11.5 4h50q13 0 13 -9q0 -4 -3 -9l-84 -115q-13 -18 -25 -18h-32q-5 0 -9 3z" />
    <glyph glyph-name="ocircumflex" unicode="&#xf4;" horiz-adv-x="731" 
d="M88.5 38q-43.5 43 -43.5 127v168q0 171 173 171h295q173 0 173 -171v-168q0 -84 -43.5 -127t-129.5 -43h-295q-86 0 -129.5 43zM594 82.5q28 27.5 28 85.5v162q0 59 -28 86.5t-84 27.5h-289q-56 0 -84 -27.5t-28 -86.5v-162q0 -58 28 -85.5t84 -27.5h289q56 0 84 27.5z
M205 559q0 4 4 8l105 120q7 8 12 10.5t13 2.5h39q9 0 15.5 -2.5t12.5 -10.5l105 -120q4 -4 4 -8q0 -8 -10 -8h-39q-8 0 -13 2.5t-12 10.5l-76 87h-10l-76 -87q-7 -8 -11.5 -10.5t-13.5 -2.5h-39q-10 0 -10 8z" />
    <glyph glyph-name="otilde" unicode="&#xf5;" horiz-adv-x="731" 
d="M88.5 38q-43.5 43 -43.5 127v168q0 171 173 171h295q173 0 173 -171v-168q0 -84 -43.5 -127t-129.5 -43h-295q-86 0 -129.5 43zM594 82.5q28 27.5 28 85.5v162q0 59 -28 86.5t-84 27.5h-289q-56 0 -84 -27.5t-28 -86.5v-162q0 -58 28 -85.5t84 -27.5h289q56 0 84 27.5z
M399.5 607q-16.5 6 -41.5 19q-22 11 -36 16.5t-33 5.5q-15 0 -28 -4t-30 -15q-4 -3 -8 -3t-8 7l-13 29q0 3 -1 5q0 6 8 11q42 27 84 27q22 0 40 -6.5t38 -18.5q21 -11 36 -16.5t34 -5.5q16 0 29 4t30 15q5 3 8 3q4 0 7 -7l13 -29q1 -2 1 -5q0 -7 -8 -12q-43 -26 -83 -26
q-22 0 -38.5 6z" />
    <glyph glyph-name="odieresis" unicode="&#xf6;" horiz-adv-x="731" 
d="M88.5 38q-43.5 43 -43.5 127v168q0 171 173 171h295q173 0 173 -171v-168q0 -84 -43.5 -127t-129.5 -43h-295q-86 0 -129.5 43zM594 82.5q28 27.5 28 85.5v162q0 59 -28 86.5t-84 27.5h-289q-56 0 -84 -27.5t-28 -86.5v-162q0 -58 28 -85.5t84 -27.5h289q56 0 84 27.5z
M436 643v44q0 7 3 10t11 3h44q8 0 10.5 -2.5t2.5 -10.5v-44q0 -8 -3 -11t-10 -3h-44q-14 0 -14 14zM203 632q-3 3 -3 11v44q0 8 3 10.5t10 2.5h44q8 0 11 -3t3 -10v-44q0 -14 -14 -14h-44q-7 0 -10 3z" />
    <glyph glyph-name="divide" unicode="&#xf7;" horiz-adv-x="491" 
d="M204 460v54q0 15 15 15h53q15 0 15 -15v-54q0 -15 -15 -15h-53q-15 0 -15 15zM204 132v54q0 15 15 15h53q15 0 15 -15v-54q0 -15 -15 -15h-53q-15 0 -15 15zM53 293q-3 3 -3 10v40q0 7 3 10t11 3h364q8 0 10.5 -2.5t2.5 -10.5v-40q0 -8 -3 -10.5t-11 -2.5h-363
q-8 0 -11 3z" />
    <glyph glyph-name="oslash" unicode="&#xf8;" horiz-adv-x="731" 
d="M225 -18l5 13h-12q-86 0 -129.5 43t-43.5 127v168q0 171 173 171h224l5 13q6 15 20 15h31q16 0 10 -15l-5 -13h10q173 0 173 -171v-168q0 -84 -43.5 -127t-129.5 -43h-222l-5 -13q-6 -15 -20 -15h-31q-16 0 -10 15zM594 82.5q28 27.5 28 85.5v162q0 59 -28 86.5t-84 27.5
h-32l-162 -389h194q56 0 84 27.5zM137 82.5q28 -27.5 84 -27.5h34l162 389h-196q-56 0 -84 -27.5t-28 -86.5v-162q0 -58 28 -85.5z" />
    <glyph glyph-name="ugrave" unicode="&#xf9;" horiz-adv-x="741" 
d="M94 39.5q-44 43.5 -44 128.5v318q0 14 14 14h36q14 0 14 -14v-316q0 -59 28 -86.5t84 -27.5h289q56 0 84 27.5t28 86.5v316q0 14 15 14h35q14 0 14 -14v-472q0 -14 -14 -14h-36q-14 0 -14 14v39h-7q-22 -31 -50.5 -44t-89.5 -13h-256q-86 0 -130 43.5zM332 567l-84 115
q-4 5 -4 9q0 9 13 9h50q8 0 12.5 -4t10.5 -14l69 -115q3 -4 3 -8t-4 -7t-9 -3h-32q-12 0 -25 18z" />
    <glyph glyph-name="uacute" unicode="&#xfa;" horiz-adv-x="741" 
d="M94 39.5q-44 43.5 -44 128.5v318q0 14 14 14h36q14 0 14 -14v-316q0 -59 28 -86.5t84 -27.5h289q56 0 84 27.5t28 86.5v316q0 14 15 14h35q14 0 14 -14v-472q0 -14 -14 -14h-36q-14 0 -14 14v39h-7q-22 -31 -50.5 -44t-89.5 -13h-256q-86 0 -130 43.5zM345 552q-4 3 -4 7
t3 8l69 115q6 10 10.5 14t11.5 4h50q13 0 13 -9q0 -4 -3 -9l-84 -115q-13 -18 -25 -18h-32q-5 0 -9 3z" />
    <glyph glyph-name="ucircumflex" unicode="&#xfb;" horiz-adv-x="741" 
d="M94 39.5q-44 43.5 -44 128.5v318q0 14 14 14h36q14 0 14 -14v-316q0 -59 28 -86.5t84 -27.5h289q56 0 84 27.5t28 86.5v316q0 14 15 14h35q14 0 14 -14v-472q0 -14 -14 -14h-36q-14 0 -14 14v39h-7q-22 -31 -50.5 -44t-89.5 -13h-256q-86 0 -130 43.5zM210 559q0 4 4 8
l105 120q7 8 12 10.5t13 2.5h39q9 0 15.5 -2.5t12.5 -10.5l105 -120q4 -4 4 -8q0 -8 -10 -8h-39q-8 0 -13 2.5t-12 10.5l-76 87h-10l-76 -87q-7 -8 -11.5 -10.5t-13.5 -2.5h-39q-10 0 -10 8z" />
    <glyph glyph-name="udieresis" unicode="&#xfc;" horiz-adv-x="741" 
d="M94 39.5q-44 43.5 -44 128.5v318q0 14 14 14h36q14 0 14 -14v-316q0 -59 28 -86.5t84 -27.5h289q56 0 84 27.5t28 86.5v316q0 14 15 14h35q14 0 14 -14v-472q0 -14 -14 -14h-36q-14 0 -14 14v39h-7q-22 -31 -50.5 -44t-89.5 -13h-256q-86 0 -130 43.5zM442 643v44
q0 7 3 10t11 3h44q8 0 10.5 -2.5t2.5 -10.5v-44q0 -8 -3 -11t-10 -3h-44q-14 0 -14 14zM209 632q-3 3 -3 11v44q0 8 3 10.5t10 2.5h44q8 0 11 -3t3 -10v-44q0 -14 -14 -14h-44q-7 0 -10 3z" />
    <glyph glyph-name="yacute" unicode="&#xfd;" horiz-adv-x="765" 
d="M228 -172q0 3 3 8l115 174l-308 473q-3 5 -3 9q0 8 12 8h45q7 0 11.5 -4t9.5 -13l264 -409h11l264 409q5 9 9.5 13t11.5 4h45q12 0 12 -8q0 -4 -3 -9l-421 -647q-5 -9 -9.5 -13t-11.5 -4h-46q-11 0 -11 9zM357 552q-4 3 -4 7t3 8l69 115q6 10 10.5 14t11.5 4h50
q13 0 13 -9q0 -4 -3 -9l-84 -115q-13 -18 -25 -18h-32q-5 0 -9 3z" />
    <glyph glyph-name="thorn" unicode="&#xfe;" horiz-adv-x="736" 
d="M50 -185v896q0 15 15 15h34q15 0 15 -15v-276q31 69 127 69h274q79 0 127.5 -49.5t48.5 -132.5v-144q0 -82 -48.5 -132.5t-127.5 -50.5h-274q-93 0 -127 74v-254q0 -15 -15 -15h-34q-15 0 -15 15zM597.5 85q29.5 30 29.5 87v152q0 60 -29 90t-84 30h-286q-55 0 -84.5 -30
t-29.5 -90v-152q0 -57 29.5 -87t84.5 -30h286q54 0 83.5 30z" />
    <glyph glyph-name="ydieresis" unicode="&#xff;" horiz-adv-x="765" 
d="M228 -172q0 3 3 8l115 174l-308 473q-3 5 -3 9q0 8 12 8h45q7 0 11.5 -4t9.5 -13l264 -409h11l264 409q5 9 9.5 13t11.5 4h45q12 0 12 -8q0 -4 -3 -9l-421 -647q-5 -9 -9.5 -13t-11.5 -4h-46q-11 0 -11 9zM453 643v44q0 7 3 10t11 3h44q8 0 10.5 -2.5t2.5 -10.5v-44
q0 -8 -3 -11t-10 -3h-44q-14 0 -14 14zM220 632q-3 3 -3 11v44q0 8 3 10.5t10 2.5h44q8 0 11 -3t3 -10v-44q0 -14 -14 -14h-44q-7 0 -10 3z" />
    <glyph glyph-name="Amacron" unicode="&#x100;" horiz-adv-x="1054" 
d="M564 696.5q4 -3.5 9 -12.5l438 -668q3 -4 3 -8q0 -8 -12 -8h-46q-8 0 -12 3.5t-10 12.5l-78 120h-658l-78 -120q-6 -9 -10 -12.5t-11 -3.5h-46q-5 0 -9 2t-4 6t3 8l438 668q5 9 9 12.5t11 3.5h53q6 0 10 -3.5zM817 195l-285 436h-10l-285 -436h580zM350 854v31
q0 15 15 15h324q15 0 15 -15v-31q0 -15 -15 -15h-324q-15 0 -15 15z" />
    <glyph glyph-name="amacron" unicode="&#x101;" horiz-adv-x="722" 
d="M69.5 32.5q-39.5 37.5 -39.5 111.5t38 108t111 34h429v32q0 48 -12 75t-42 40t-86 13h-238q-55 0 -78.5 -15.5t-28.5 -51.5q-1 -7 -4.5 -10t-11.5 -3h-31q-9 0 -13 4.5t-4 16.5q0 57 38.5 87t122.5 30h259q105 0 149 -43t44 -138v-309q0 -14 -14 -14h-36q-14 0 -14 14v57
h-6q-26 -34 -66.5 -55t-97.5 -21h-257q-72 0 -111.5 37.5zM569 86q39 31 39 79v68h-426q-44 0 -66 -19.5t-22 -68.5q0 -48 22 -69t66 -21h288q60 0 99 31zM187 654v31q0 15 15 15h324q15 0 15 -15v-31q0 -15 -15 -15h-324q-15 0 -15 15z" />
    <glyph glyph-name="Abreve" unicode="&#x102;" horiz-adv-x="1054" 
d="M564 696.5q4 -3.5 9 -12.5l438 -668q3 -4 3 -8q0 -8 -12 -8h-46q-8 0 -12 3.5t-10 12.5l-78 120h-658l-78 -120q-6 -9 -10 -12.5t-11 -3.5h-46q-5 0 -9 2t-4 6t3 8l438 668q5 9 9 12.5t11 3.5h53q6 0 10 -3.5zM817 195l-285 436h-10l-285 -436h580zM387 886q0 14 13 14
h29q13 0 13 -14q2 -34 18.5 -54t49.5 -20h33q33 0 49.5 20t18.5 54q0 14 13 14h29q13 0 13 -14q0 -62 -29.5 -92t-89.5 -30h-41q-119 0 -119 122z" />
    <glyph glyph-name="abreve" unicode="&#x103;" horiz-adv-x="722" 
d="M69.5 32.5q-39.5 37.5 -39.5 111.5t38 108t111 34h429v32q0 48 -12 75t-42 40t-86 13h-238q-55 0 -78.5 -15.5t-28.5 -51.5q-1 -7 -4.5 -10t-11.5 -3h-31q-9 0 -13 4.5t-4 16.5q0 57 38.5 87t122.5 30h259q105 0 149 -43t44 -138v-309q0 -14 -14 -14h-36q-14 0 -14 14v57
h-6q-26 -34 -66.5 -55t-97.5 -21h-257q-72 0 -111.5 37.5zM569 86q39 31 39 79v68h-426q-44 0 -66 -19.5t-22 -68.5q0 -48 22 -69t66 -21h288q60 0 99 31zM225 686q0 14 13 14h29q13 0 13 -14q2 -34 18.5 -54t49.5 -20h33q33 0 49.5 20t18.5 54q0 14 13 14h29q13 0 13 -14
q0 -62 -29.5 -92t-89.5 -30h-41q-119 0 -119 122z" />
    <glyph glyph-name="Aogonek" unicode="&#x104;" horiz-adv-x="1079" 
d="M822.5 -186q-18.5 16 -18.5 61q0 29 7.5 43.5t23.5 20t50 9.5l42 5q32 3 32 18q0 5 -3 11l-24 37l-76 117h-658l-78 -120q-6 -9 -10 -12.5t-11 -3.5h-46q-5 0 -9 2t-4 6t3 8l438 668q5 9 9 12.5t11 3.5h53q6 0 10 -3.5t9 -12.5l437 -665l18 -30q11 -19 11 -33
q0 -16 -11.5 -26.5t-30.5 -12.5l-110 -13q-14 -2 -19 -7t-5 -21q0 -18 8.5 -24.5t32.5 -6.5h98q10 0 10 -10v-27q0 -10 -10 -10h-108q-53 0 -71.5 16zM817 195l-285 436h-10l-285 -436h580z" />
    <glyph glyph-name="aogonek" unicode="&#x105;" horiz-adv-x="722" 
d="M69.5 32.5q-39.5 37.5 -39.5 111.5t38 108t111 34h429v32q0 48 -12 75t-42 40t-86 13h-238q-55 0 -78.5 -15.5t-28.5 -51.5q-1 -7 -4.5 -10t-11.5 -3h-31q-9 0 -13 4.5t-4 16.5q0 57 38.5 87t122.5 30h259q105 0 149 -43t44 -138v-340q0 -32 -10.5 -44t-38.5 -15l-88 -11
q-14 -2 -19 -6.5t-5 -20.5q0 -18 8.5 -24.5t32.5 -6.5h98q10 0 10 -10v-27q0 -10 -10 -10h-108q-53 0 -71.5 16t-18.5 61q0 29 7.5 43t23.5 19.5t50 9.5l43 5q20 2 26 8t6 22v79h-6q-26 -34 -66.5 -55t-97.5 -21h-257q-72 0 -111.5 37.5zM569 86q39 31 39 79v68h-426
q-44 0 -66 -19.5t-22 -68.5q0 -48 22 -69t66 -21h288q60 0 99 31z" />
    <glyph glyph-name="Cacute" unicode="&#x106;" horiz-adv-x="1011" 
d="M105.5 40.5q-45.5 44.5 -45.5 133.5v352q0 89 45.5 133.5t138.5 44.5h529q93 0 138 -44t45 -134v-21q0 -12 -11 -12h-43q-13 0 -13 12v13q0 65 -30.5 95t-97.5 30h-508q-67 0 -97 -29.5t-30 -95.5v-335q0 -67 30 -96.5t97 -29.5h508q67 0 97.5 26.5t30.5 82.5v6
q0 12 12 12h44q11 0 11 -12v-14q0 -162 -183 -162h-529q-93 0 -138.5 44.5zM455 752q-4 3 -4 7t3 8l69 115q6 10 10.5 14t11.5 4h50q13 0 13 -9q0 -4 -3 -9l-84 -115q-13 -18 -25 -18h-32q-5 0 -9 3z" />
    <glyph glyph-name="cacute" unicode="&#x107;" horiz-adv-x="721" 
d="M88.5 38q-43.5 43 -43.5 127v168q0 171 173 171h299q164 0 164 -141v-24q0 -13 -14 -13h-35q-15 0 -15 11v23q0 84 -107 84h-289q-56 0 -84 -27.5t-28 -86.5v-162q0 -58 28 -85.5t84 -27.5h273q55 0 79 5t51 23q5 4 11 4q5 0 11 -3l23 -12q5 -2 5 -6t-5 -11
q-23 -31 -59.5 -45.5t-115.5 -14.5h-276q-86 0 -129.5 43zM330 552q-4 3 -4 7t3 8l69 115q6 10 10.5 14t11.5 4h50q13 0 13 -9q0 -4 -3 -9l-84 -115q-13 -18 -25 -18h-32q-5 0 -9 3z" />
    <glyph glyph-name="Ccircumflex" unicode="&#x108;" horiz-adv-x="1011" 
d="M105.5 40.5q-45.5 44.5 -45.5 133.5v352q0 89 45.5 133.5t138.5 44.5h529q93 0 138 -44t45 -134v-21q0 -12 -11 -12h-43q-13 0 -13 12v13q0 65 -30.5 95t-97.5 30h-508q-67 0 -97 -29.5t-30 -95.5v-335q0 -67 30 -96.5t97 -29.5h508q67 0 97.5 26.5t30.5 82.5v6
q0 12 12 12h44q11 0 11 -12v-14q0 -162 -183 -162h-529q-93 0 -138.5 44.5zM375 759q0 4 4 8l105 120q7 8 12 10.5t13 2.5h39q9 0 15.5 -2.5t12.5 -10.5l105 -120q4 -4 4 -8q0 -8 -10 -8h-39q-8 0 -13 2.5t-12 10.5l-76 87h-10l-76 -87q-7 -8 -11.5 -10.5t-13.5 -2.5h-39
q-10 0 -10 8z" />
    <glyph glyph-name="ccircumflex" unicode="&#x109;" horiz-adv-x="721" 
d="M88.5 38q-43.5 43 -43.5 127v168q0 171 173 171h299q164 0 164 -141v-24q0 -13 -14 -13h-35q-15 0 -15 11v23q0 84 -107 84h-289q-56 0 -84 -27.5t-28 -86.5v-162q0 -58 28 -85.5t84 -27.5h273q55 0 79 5t51 23q5 4 11 4q5 0 11 -3l23 -12q5 -2 5 -6t-5 -11
q-23 -31 -59.5 -45.5t-115.5 -14.5h-276q-86 0 -129.5 43zM195 559q0 4 4 8l105 120q7 8 12 10.5t13 2.5h39q9 0 15.5 -2.5t12.5 -10.5l105 -120q4 -4 4 -8q0 -8 -10 -8h-39q-8 0 -13 2.5t-12 10.5l-76 87h-10l-76 -87q-7 -8 -11.5 -10.5t-13.5 -2.5h-39q-10 0 -10 8z" />
    <glyph glyph-name="Cdotaccent" unicode="&#x10a;" horiz-adv-x="1011" 
d="M105.5 40.5q-45.5 44.5 -45.5 133.5v352q0 89 45.5 133.5t138.5 44.5h529q93 0 138 -44t45 -134v-21q0 -12 -11 -12h-43q-13 0 -13 12v13q0 65 -30.5 95t-97.5 30h-508q-67 0 -97 -29.5t-30 -95.5v-335q0 -67 30 -96.5t97 -29.5h508q67 0 97.5 26.5t30.5 82.5v6
q0 12 12 12h44q11 0 11 -12v-14q0 -162 -183 -162h-529q-93 0 -138.5 44.5zM453 832q-3 3 -3 10v44q0 8 3 11t10 3h44q14 0 14 -14v-44q0 -7 -3 -10t-11 -3h-44q-7 0 -10 3z" />
    <glyph glyph-name="cdotaccent" unicode="&#x10b;" horiz-adv-x="721" 
d="M88.5 38q-43.5 43 -43.5 127v168q0 171 173 171h299q164 0 164 -141v-24q0 -13 -14 -13h-35q-15 0 -15 11v23q0 84 -107 84h-289q-56 0 -84 -27.5t-28 -86.5v-162q0 -58 28 -85.5t84 -27.5h273q55 0 79 5t51 23q5 4 11 4q5 0 11 -3l23 -12q5 -2 5 -6t-5 -11
q-23 -31 -59.5 -45.5t-115.5 -14.5h-276q-86 0 -129.5 43zM323 632q-3 3 -3 10v44q0 8 3 11t10 3h44q14 0 14 -14v-44q0 -7 -3 -10t-11 -3h-44q-7 0 -10 3z" />
    <glyph glyph-name="Ccaron" unicode="&#x10c;" horiz-adv-x="1011" 
d="M105.5 40.5q-45.5 44.5 -45.5 133.5v352q0 89 45.5 133.5t138.5 44.5h529q93 0 138 -44t45 -134v-21q0 -12 -11 -12h-43q-13 0 -13 12v13q0 65 -30.5 95t-97.5 30h-508q-67 0 -97 -29.5t-30 -95.5v-335q0 -67 30 -96.5t97 -29.5h508q67 0 97.5 26.5t30.5 82.5v6
q0 12 12 12h44q11 0 11 -12v-14q0 -162 -183 -162h-529q-93 0 -138.5 44.5zM431 753.5q-5 2.5 -12 10.5l-105 120q-4 4 -4 8q0 8 10 8h39q9 0 13.5 -2.5t11.5 -11.5l76 -86h10l76 86q7 9 11.5 11.5t13.5 2.5h39q10 0 10 -8q0 -4 -4 -8l-105 -120q-6 -8 -12.5 -10.5
t-15.5 -2.5h-39q-8 0 -13 2.5z" />
    <glyph glyph-name="ccaron" unicode="&#x10d;" horiz-adv-x="721" 
d="M88.5 38q-43.5 43 -43.5 127v168q0 171 173 171h299q164 0 164 -141v-24q0 -13 -14 -13h-35q-15 0 -15 11v23q0 84 -107 84h-289q-56 0 -84 -27.5t-28 -86.5v-162q0 -58 28 -85.5t84 -27.5h273q55 0 79 5t51 23q5 4 11 4q5 0 11 -3l23 -12q5 -2 5 -6t-5 -11
q-23 -31 -59.5 -45.5t-115.5 -14.5h-276q-86 0 -129.5 43zM322 553.5q-5 2.5 -12 10.5l-105 120q-4 4 -4 8q0 8 10 8h39q9 0 13.5 -2.5t11.5 -11.5l76 -86h10l76 86q7 9 11.5 11.5t13.5 2.5h39q10 0 10 -8q0 -4 -4 -8l-105 -120q-6 -8 -12.5 -10.5t-15.5 -2.5h-39
q-8 0 -13 2.5z" />
    <glyph glyph-name="Dcaron" unicode="&#x10e;" horiz-adv-x="1018" 
d="M65 14v672q0 14 14 14h695q93 0 138.5 -44.5t45.5 -133.5v-344q0 -89 -45.5 -133.5t-138.5 -44.5h-695q-14 0 -14 14zM765 61q67 0 96.5 29.5t29.5 96.5v327q0 66 -29.5 95.5t-96.5 29.5h-634v-578h634zM475 753.5q-5 2.5 -12 10.5l-105 120q-4 4 -4 8q0 8 10 8h39
q9 0 13.5 -2.5t11.5 -11.5l76 -86h10l76 86q7 9 11.5 11.5t13.5 2.5h39q10 0 10 -8q0 -4 -4 -8l-105 -120q-6 -8 -12.5 -10.5t-15.5 -2.5h-39q-8 0 -13 2.5z" />
    <glyph glyph-name="dcaron" unicode="&#x10f;" horiz-adv-x="798" 
d="M89 38.5q-44 43.5 -44 127.5v166q0 85 44 128.5t130 43.5h256q61 0 89 -13t51 -43h7v238q0 14 14 14h36q14 0 14 -14v-672q0 -14 -14 -14h-35q-15 0 -15 14v38h-7q-22 -31 -50.5 -44t-89.5 -13h-256q-86 0 -130 43.5zM594.5 82.5q27.5 27.5 27.5 85.5v162
q0 59 -27.5 86.5t-83.5 27.5h-290q-56 0 -84 -27.5t-28 -86.5v-162q0 -58 28 -85.5t84 -27.5h290q56 0 83.5 27.5zM720 490.5q-3 2.5 -3 10.5v28q0 8 3 11t10 3h31v143q0 8 3 11t10 3h31q14 0 14 -14v-173q0 -13 -6 -19t-20 -6h-63q-7 0 -10 2.5z" />
    <glyph glyph-name="Dcroat" unicode="&#x110;" horiz-adv-x="1042" 
d="M90 14v307h-73q-12 0 -12 13v33q0 13 12 13h73v306q0 14 14 14h695q93 0 138.5 -44.5t45.5 -133.5v-344q0 -89 -45.5 -133.5t-138.5 -44.5h-695q-14 0 -14 14zM790 61q67 0 96.5 29.5t29.5 96.5v327q0 66 -29.5 95.5t-96.5 29.5h-634v-259h405q13 0 13 -13v-33
q0 -13 -13 -13h-405v-260h634z" />
    <glyph glyph-name="dcroat" unicode="&#x111;" horiz-adv-x="748" 
d="M89 38.5q-44 43.5 -44 127.5v166q0 85 44 128.5t130 43.5h256q61 0 89 -13t51 -43h7v118h-240q-15 0 -15 14v26q0 15 15 15h240v65q0 14 14 14h36q14 0 14 -14v-65h33q14 0 14 -15v-26q0 -14 -14 -14h-33v-552q0 -14 -14 -14h-35q-15 0 -15 14v38h-7q-22 -31 -50.5 -44
t-89.5 -13h-256q-86 0 -130 43.5zM594.5 82.5q27.5 27.5 27.5 85.5v162q0 59 -27.5 86.5t-83.5 27.5h-290q-56 0 -84 -27.5t-28 -86.5v-162q0 -58 28 -85.5t84 -27.5h290q56 0 83.5 27.5z" />
    <glyph glyph-name="Emacron" unicode="&#x112;" horiz-adv-x="926" 
d="M65 14v672q0 14 14 14h772q15 0 15 -15v-31q0 -15 -15 -15h-720v-258h710q15 0 15 -15v-32q0 -15 -15 -15h-710v-258h725q15 0 15 -15v-31q0 -15 -15 -15h-777q-14 0 -14 14zM297 854v31q0 15 15 15h324q15 0 15 -15v-31q0 -15 -15 -15h-324q-15 0 -15 15z" />
    <glyph glyph-name="emacron" unicode="&#x113;" horiz-adv-x="729" 
d="M88.5 38q-43.5 43 -43.5 127v168q0 171 173 171h293q85 0 129 -44t44 -128v-67q0 -23 -9.5 -32t-32.5 -9h-533v-56q0 -58 28 -85.5t84 -27.5h273q55 0 79 5t51 23q5 4 11 4q5 0 11 -3l23 -12q5 -2 5 -6t-5 -11q-23 -31 -59.5 -45.5t-115.5 -14.5h-276q-86 0 -129.5 43z
M620 276v54q0 59 -28 86.5t-85 27.5h-286q-56 0 -84 -27.5t-28 -86.5v-54h511zM186 654v31q0 15 15 15h324q15 0 15 -15v-31q0 -15 -15 -15h-324q-15 0 -15 15z" />
    <glyph glyph-name="Edotaccent" unicode="&#x116;" horiz-adv-x="926" 
d="M65 14v672q0 14 14 14h772q15 0 15 -15v-31q0 -15 -15 -15h-720v-258h710q15 0 15 -15v-32q0 -15 -15 -15h-710v-258h725q15 0 15 -15v-31q0 -15 -15 -15h-777q-14 0 -14 14zM441 832q-3 3 -3 10v44q0 8 3 11t10 3h44q14 0 14 -14v-44q0 -7 -3 -10t-11 -3h-44q-7 0 -10 3
z" />
    <glyph glyph-name="edotaccent" unicode="&#x117;" horiz-adv-x="729" 
d="M88.5 38q-43.5 43 -43.5 127v168q0 171 173 171h293q85 0 129 -44t44 -128v-67q0 -23 -9.5 -32t-32.5 -9h-533v-56q0 -58 28 -85.5t84 -27.5h273q55 0 79 5t51 23q5 4 11 4q5 0 11 -3l23 -12q5 -2 5 -6t-5 -11q-23 -31 -59.5 -45.5t-115.5 -14.5h-276q-86 0 -129.5 43z
M620 276v54q0 59 -28 86.5t-85 27.5h-286q-56 0 -84 -27.5t-28 -86.5v-54h511zM330 632q-3 3 -3 10v44q0 8 3 11t10 3h44q14 0 14 -14v-44q0 -7 -3 -10t-11 -3h-44q-7 0 -10 3z" />
    <glyph glyph-name="Eogonek" unicode="&#x118;" horiz-adv-x="926" 
d="M65 14v672q0 14 14 14h772q15 0 15 -15v-31q0 -15 -15 -15h-720v-258h710q15 0 15 -15v-32q0 -15 -15 -15h-710v-258h725q15 0 15 -15v-73q0 -32 -10.5 -44t-38.5 -15l-88 -11q-14 -2 -19 -6.5t-5 -20.5q0 -18 8.5 -24.5t32.5 -6.5h98q10 0 10 -10v-27q0 -10 -10 -10
h-108q-53 0 -71.5 16t-18.5 61q0 29 7.5 43t23.5 19.5t50 9.5l43 5q20 2 26 8t6 22v18h-728q-14 0 -14 14z" />
    <glyph glyph-name="eogonek" unicode="&#x119;" horiz-adv-x="729" 
d="M88.5 38q-43.5 43 -43.5 127v168q0 171 173 171h293q85 0 129 -44t44 -128v-67q0 -23 -9.5 -32t-32.5 -9h-533v-56q0 -58 28 -85.5t84 -27.5h273q55 0 79 5t51 23q5 4 11 4q5 0 11 -3l23 -12q5 -2 5 -6t-5 -11q-23 -31 -59.5 -45.5t-115.5 -14.5h-25v-22q0 -32 -10.5 -44
t-38.5 -15l-88 -11q-14 -2 -19 -6.5t-5 -20.5q0 -18 8.5 -24.5t32.5 -6.5h98q10 0 10 -10v-27q0 -10 -10 -10h-108q-53 0 -71.5 16t-18.5 61q0 29 7.5 43t23.5 19.5t50 9.5l43 5q20 2 26 8t6 22v13h-187q-86 0 -129.5 43zM620 276v54q0 59 -28 86.5t-85 27.5h-286
q-56 0 -84 -27.5t-28 -86.5v-54h511z" />
    <glyph glyph-name="Ecaron" unicode="&#x11a;" horiz-adv-x="926" 
d="M65 14v672q0 14 14 14h772q15 0 15 -15v-31q0 -15 -15 -15h-720v-258h710q15 0 15 -15v-32q0 -15 -15 -15h-710v-258h725q15 0 15 -15v-31q0 -15 -15 -15h-777q-14 0 -14 14zM440 753.5q-5 2.5 -12 10.5l-105 120q-4 4 -4 8q0 8 10 8h39q9 0 13.5 -2.5t11.5 -11.5l76 -86
h10l76 86q7 9 11.5 11.5t13.5 2.5h39q10 0 10 -8q0 -4 -4 -8l-105 -120q-6 -8 -12.5 -10.5t-15.5 -2.5h-39q-8 0 -13 2.5z" />
    <glyph glyph-name="ecaron" unicode="&#x11b;" horiz-adv-x="729" 
d="M88.5 38q-43.5 43 -43.5 127v168q0 171 173 171h293q85 0 129 -44t44 -128v-67q0 -23 -9.5 -32t-32.5 -9h-533v-56q0 -58 28 -85.5t84 -27.5h273q55 0 79 5t51 23q5 4 11 4q5 0 11 -3l23 -12q5 -2 5 -6t-5 -11q-23 -31 -59.5 -45.5t-115.5 -14.5h-276q-86 0 -129.5 43z
M620 276v54q0 59 -28 86.5t-85 27.5h-286q-56 0 -84 -27.5t-28 -86.5v-54h511zM329 553.5q-5 2.5 -12 10.5l-105 120q-4 4 -4 8q0 8 10 8h39q9 0 13.5 -2.5t11.5 -11.5l76 -86h10l76 86q7 9 11.5 11.5t13.5 2.5h39q10 0 10 -8q0 -4 -4 -8l-105 -120q-6 -8 -12.5 -10.5
t-15.5 -2.5h-39q-8 0 -13 2.5z" />
    <glyph glyph-name="Gcircumflex" unicode="&#x11c;" horiz-adv-x="1011" 
d="M105.5 40.5q-45.5 44.5 -45.5 133.5v352q0 89 45.5 133.5t138.5 44.5h527q93 0 138 -44t45 -134v-21q0 -12 -11 -12h-43q-13 0 -13 12v13q0 65 -30.5 95t-97.5 30h-506q-67 0 -97 -29.5t-30 -95.5v-335q0 -67 30 -96.5t97 -29.5h510q67 0 96.5 29.5t29.5 96.5v96h-316
q-15 0 -15 15v31q0 14 15 14h367q7 0 11.5 -4.5t4.5 -10.5v-150q0 -89 -45.5 -133.5t-138.5 -44.5h-528q-93 0 -138.5 44.5zM355 759q0 4 4 8l105 120q7 8 12 10.5t13 2.5h39q9 0 15.5 -2.5t12.5 -10.5l105 -120q4 -4 4 -8q0 -8 -10 -8h-39q-8 0 -13 2.5t-12 10.5l-76 87
h-10l-76 -87q-7 -8 -11.5 -10.5t-13.5 -2.5h-39q-10 0 -10 8z" />
    <glyph glyph-name="gcircumflex" unicode="&#x11d;" horiz-adv-x="736" 
d="M131 -167v27q0 8 3 11.5t11 3.5h362q59 0 87 28t28 91v58h-7q-22 -31 -50.5 -44t-89.5 -13h-256q-86 0 -130 43.5t-44 127.5v166q0 85 44 128.5t130 43.5h256q61 0 89 -13t51 -43h7v38q0 14 14 14h36q14 0 14 -14v-495q0 -85 -44 -128.5t-129 -43.5h-368q-14 0 -14 14z
M594.5 82.5q27.5 27.5 27.5 85.5v162q0 59 -27.5 86.5t-83.5 27.5h-290q-56 0 -84 -27.5t-28 -86.5v-162q0 -58 28 -85.5t84 -27.5h290q56 0 83.5 27.5zM213 559q0 4 4 8l105 120q7 8 12 10.5t13 2.5h39q9 0 15.5 -2.5t12.5 -10.5l105 -120q4 -4 4 -8q0 -8 -10 -8h-39
q-8 0 -13 2.5t-12 10.5l-76 87h-10l-76 -87q-7 -8 -11.5 -10.5t-13.5 -2.5h-39q-10 0 -10 8z" />
    <glyph glyph-name="Gbreve" unicode="&#x11e;" horiz-adv-x="1011" 
d="M105.5 40.5q-45.5 44.5 -45.5 133.5v352q0 89 45.5 133.5t138.5 44.5h527q93 0 138 -44t45 -134v-21q0 -12 -11 -12h-43q-13 0 -13 12v13q0 65 -30.5 95t-97.5 30h-506q-67 0 -97 -29.5t-30 -95.5v-335q0 -67 30 -96.5t97 -29.5h510q67 0 96.5 29.5t29.5 96.5v96h-316
q-15 0 -15 15v31q0 14 15 14h367q7 0 11.5 -4.5t4.5 -10.5v-150q0 -89 -45.5 -133.5t-138.5 -44.5h-528q-93 0 -138.5 44.5zM375 886q0 14 13 14h29q13 0 13 -14q2 -34 18.5 -54t49.5 -20h33q33 0 49.5 20t18.5 54q0 14 13 14h29q13 0 13 -14q0 -62 -29.5 -92t-89.5 -30h-41
q-119 0 -119 122z" />
    <glyph glyph-name="gbreve" unicode="&#x11f;" horiz-adv-x="736" 
d="M131 -167v27q0 8 3 11.5t11 3.5h362q59 0 87 28t28 91v58h-7q-22 -31 -50.5 -44t-89.5 -13h-256q-86 0 -130 43.5t-44 127.5v166q0 85 44 128.5t130 43.5h256q61 0 89 -13t51 -43h7v38q0 14 14 14h36q14 0 14 -14v-495q0 -85 -44 -128.5t-129 -43.5h-368q-14 0 -14 14z
M594.5 82.5q27.5 27.5 27.5 85.5v162q0 59 -27.5 86.5t-83.5 27.5h-290q-56 0 -84 -27.5t-28 -86.5v-162q0 -58 28 -85.5t84 -27.5h290q56 0 83.5 27.5zM234 686q0 14 13 14h29q13 0 13 -14q2 -34 18.5 -54t49.5 -20h33q33 0 49.5 20t18.5 54q0 14 13 14h29q13 0 13 -14
q0 -62 -29.5 -92t-89.5 -30h-41q-119 0 -119 122z" />
    <glyph glyph-name="Gdotaccent" unicode="&#x120;" horiz-adv-x="1011" 
d="M105.5 40.5q-45.5 44.5 -45.5 133.5v352q0 89 45.5 133.5t138.5 44.5h527q93 0 138 -44t45 -134v-21q0 -12 -11 -12h-43q-13 0 -13 12v13q0 65 -30.5 95t-97.5 30h-506q-67 0 -97 -29.5t-30 -95.5v-335q0 -67 30 -96.5t97 -29.5h510q67 0 96.5 29.5t29.5 96.5v96h-316
q-15 0 -15 15v31q0 14 15 14h367q7 0 11.5 -4.5t4.5 -10.5v-150q0 -89 -45.5 -133.5t-138.5 -44.5h-528q-93 0 -138.5 44.5zM483 832q-3 3 -3 10v44q0 8 3 11t10 3h44q14 0 14 -14v-44q0 -7 -3 -10t-11 -3h-44q-7 0 -10 3z" />
    <glyph glyph-name="gdotaccent" unicode="&#x121;" horiz-adv-x="736" 
d="M131 -167v27q0 8 3 11.5t11 3.5h362q59 0 87 28t28 91v58h-7q-22 -31 -50.5 -44t-89.5 -13h-256q-86 0 -130 43.5t-44 127.5v166q0 85 44 128.5t130 43.5h256q61 0 89 -13t51 -43h7v38q0 14 14 14h36q14 0 14 -14v-495q0 -85 -44 -128.5t-129 -43.5h-368q-14 0 -14 14z
M594.5 82.5q27.5 27.5 27.5 85.5v162q0 59 -27.5 86.5t-83.5 27.5h-290q-56 0 -84 -27.5t-28 -86.5v-162q0 -58 28 -85.5t84 -27.5h290q56 0 83.5 27.5zM341 632q-3 3 -3 10v44q0 8 3 11t10 3h44q14 0 14 -14v-44q0 -7 -3 -10t-11 -3h-44q-7 0 -10 3z" />
    <glyph glyph-name="uni0122" unicode="&#x122;" horiz-adv-x="1011" 
d="M105.5 40.5q-45.5 44.5 -45.5 133.5v352q0 89 45.5 133.5t138.5 44.5h527q93 0 138 -44t45 -134v-21q0 -12 -11 -12h-43q-13 0 -13 12v13q0 65 -30.5 95t-97.5 30h-506q-67 0 -97 -29.5t-30 -95.5v-335q0 -67 30 -96.5t97 -29.5h510q67 0 96.5 29.5t29.5 96.5v96h-316
q-15 0 -15 15v31q0 14 15 14h367q7 0 11.5 -4.5t4.5 -10.5v-150q0 -89 -45.5 -133.5t-138.5 -44.5h-528q-93 0 -138.5 44.5zM439 -252q-3 3 -3 11v28q0 7 3 10t10 3h31v127q0 7 3 10t10 3h31q8 0 11 -3t3 -10v-157q0 -25 -26 -25h-63q-7 0 -10 3z" />
    <glyph glyph-name="uni0123" unicode="&#x123;" horiz-adv-x="736" 
d="M318 597q-3 3 -3 10v168q0 13 6 19t20 6h63q8 0 10.5 -2.5t2.5 -10.5v-29q0 -7 -2.5 -10t-10.5 -3h-31v-138q0 -7 -2.5 -10t-10.5 -3h-31q-8 0 -11 3zM131 -167v27q0 8 3 11.5t11 3.5h362q59 0 87 28t28 91v58h-7q-22 -31 -50.5 -44t-89.5 -13h-256q-86 0 -130 43.5
t-44 127.5v166q0 85 44 128.5t130 43.5h256q61 0 89 -13t51 -43h7v38q0 14 14 14h36q14 0 14 -14v-495q0 -85 -44 -128.5t-129 -43.5h-368q-14 0 -14 14zM594.5 82.5q27.5 27.5 27.5 85.5v162q0 59 -27.5 86.5t-83.5 27.5h-290q-56 0 -84 -27.5t-28 -86.5v-162
q0 -58 28 -85.5t84 -27.5h290q56 0 83.5 27.5z" />
    <glyph glyph-name="Hcircumflex" unicode="&#x124;" horiz-adv-x="963" 
d="M65 14v672q0 14 14 14h38q14 0 14 -14v-305h701v305q0 14 14 14h38q14 0 14 -14v-672q0 -14 -14 -14h-38q-14 0 -14 14v305h-701v-305q0 -14 -14 -14h-38q-14 0 -14 14zM317 759q0 4 4 8l105 120q7 8 12 10.5t13 2.5h39q9 0 15.5 -2.5t12.5 -10.5l105 -120q4 -4 4 -8
q0 -8 -10 -8h-39q-8 0 -13 2.5t-12 10.5l-76 87h-10l-76 -87q-7 -8 -11.5 -10.5t-13.5 -2.5h-39q-10 0 -10 8z" />
    <glyph glyph-name="hcircumflex" unicode="&#x125;" horiz-adv-x="741" 
d="M50 14v672q0 14 14 14h36q14 0 14 -14v-238h7q23 30 51 43t89 13h257q85 0 129 -43.5t44 -128.5v-318q0 -14 -14 -14h-35q-15 0 -15 14v316q0 59 -28 86.5t-84 27.5h-289q-56 0 -84 -27.5t-28 -86.5v-316q0 -14 -14 -14h-36q-14 0 -14 14zM-78 759q0 4 4 8l105 120
q7 8 12 10.5t13 2.5h39q9 0 15.5 -2.5t12.5 -10.5l105 -120q4 -4 4 -8q0 -8 -10 -8h-39q-8 0 -13 2.5t-12 10.5l-76 87h-10l-76 -87q-7 -8 -11.5 -10.5t-13.5 -2.5h-39q-10 0 -10 8z" />
    <glyph glyph-name="Hbar" unicode="&#x126;" horiz-adv-x="963" 
d="M65 14v672q0 14 14 14h38q14 0 14 -14v-145h701v145q0 14 14 14h38q14 0 14 -14v-672q0 -14 -14 -14h-38q-14 0 -14 14v305h-701v-305q0 -14 -14 -14h-38q-14 0 -14 14zM832 381v99h-701v-99h701z" />
    <glyph glyph-name="hbar" unicode="&#x127;" horiz-adv-x="771" 
d="M30 571v24q0 15 15 15h35v76q0 14 14 14h36q14 0 14 -14v-76h149q15 0 15 -15v-24q0 -15 -15 -15h-149v-108h7q23 30 51 43t89 13h257q85 0 129 -43.5t44 -128.5v-318q0 -14 -14 -14h-35q-15 0 -15 14v316q0 59 -28 86.5t-84 27.5h-289q-56 0 -84 -27.5t-28 -86.5v-316
q0 -14 -14 -14h-36q-14 0 -14 14v542h-35q-15 0 -15 15z" />
    <glyph glyph-name="Itilde" unicode="&#x128;" horiz-adv-x="196" 
d="M65 14v672q0 14 14 14h38q14 0 14 -14v-672q0 -14 -14 -14h-38q-14 0 -14 14zM132.5 807q-16.5 6 -41.5 19q-22 11 -36 16.5t-33 5.5q-15 0 -28 -4t-30 -15q-4 -3 -8 -3t-8 7l-13 29q0 3 -1 5q0 6 8 11q42 27 84 27q22 0 40 -6.5t38 -18.5q21 -11 36 -16.5t34 -5.5
q16 0 29 4t30 15q5 3 8 3q4 0 7 -7l13 -29q1 -2 1 -5q0 -7 -8 -12q-43 -26 -83 -26q-22 0 -38.5 6z" />
    <glyph glyph-name="itilde" unicode="&#x129;" horiz-adv-x="164" 
d="M50 14v472q0 14 14 14h36q14 0 14 -14v-472q0 -14 -14 -14h-36q-14 0 -14 14zM116.5 607q-16.5 6 -41.5 19q-22 11 -36 16.5t-33 5.5q-15 0 -28 -4t-30 -15q-4 -3 -8 -3t-8 7l-13 29q0 3 -1 5q0 6 8 11q42 27 84 27q22 0 40 -6.5t38 -18.5q21 -11 36 -16.5t34 -5.5
q16 0 29 4t30 15q5 3 8 3q4 0 7 -7l13 -29q1 -2 1 -5q0 -7 -8 -12q-43 -26 -83 -26q-22 0 -38.5 6z" />
    <glyph glyph-name="Imacron" unicode="&#x12a;" horiz-adv-x="196" 
d="M65 14v672q0 14 14 14h38q14 0 14 -14v-672q0 -14 -14 -14h-38q-14 0 -14 14zM-79 854v31q0 15 15 15h324q15 0 15 -15v-31q0 -15 -15 -15h-324q-15 0 -15 15z" />
    <glyph glyph-name="imacron" unicode="&#x12b;" horiz-adv-x="164" 
d="M50 14v472q0 14 14 14h36q14 0 14 -14v-472q0 -14 -14 -14h-36q-14 0 -14 14zM-95 654v31q0 15 15 15h324q15 0 15 -15v-31q0 -15 -15 -15h-324q-15 0 -15 15z" />
    <glyph glyph-name="Iogonek" unicode="&#x12e;" horiz-adv-x="197" 
d="M-69.5 -186q-18.5 16 -18.5 61q0 29 7.5 43t23.5 19.5t50 9.5l42 5q20 2 25.5 8t5.5 22v704q0 14 14 14h38q14 0 14 -14v-713q0 -32 -10.5 -44t-38.5 -15l-88 -11q-14 -1 -19 -6t-5 -21q0 -19 8 -25.5t33 -6.5h98q10 0 10 -10v-26q0 -10 -10 -10h-108q-53 0 -71.5 16z
" />
    <glyph glyph-name="iogonek" unicode="&#x12f;" horiz-adv-x="164" 
d="M49 632q-3 3 -3 10v44q0 8 3 11t10 3h44q14 0 14 -14v-44q0 -7 -3 -10t-11 -3h-44q-7 0 -10 3zM-87.5 -186q-18.5 16 -18.5 61q0 29 7.5 43t23.5 19.5t50 9.5l43 5q20 2 26 8t6 22v504q0 14 14 14h36q14 0 14 -14v-513q0 -32 -10.5 -44t-38.5 -15l-88 -11
q-14 -2 -19 -6.5t-5 -20.5q0 -18 8.5 -24.5t32.5 -6.5h98q10 0 10 -10v-27q0 -10 -10 -10h-108q-53 0 -71.5 16z" />
    <glyph glyph-name="Idotaccent" unicode="&#x130;" horiz-adv-x="196" 
d="M65 14v672q0 14 14 14h38q14 0 14 -14v-672q0 -14 -14 -14h-38q-14 0 -14 14zM65 832q-3 3 -3 10v44q0 8 3 11t10 3h44q14 0 14 -14v-44q0 -7 -3 -10t-11 -3h-44q-7 0 -10 3z" />
    <glyph glyph-name="dotlessi" unicode="&#x131;" horiz-adv-x="164" 
d="M50 14v472q0 14 14 14h36q14 0 14 -14v-472q0 -14 -14 -14h-36q-14 0 -14 14z" />
    <glyph glyph-name="IJ" unicode="&#x132;" horiz-adv-x="1162" 
d="M65 14v672q0 14 14 14h38q14 0 14 -14v-672q0 -14 -14 -14h-38q-14 0 -14 14zM251 14v33q0 14 14 14h640q67 0 96.5 29.5t29.5 96.5v499q0 14 14 14h38q14 0 14 -14v-508q0 -89 -45.5 -133.5t-138.5 -44.5h-648q-14 0 -14 14z" />
    <glyph glyph-name="ij" unicode="&#x133;" horiz-adv-x="354" 
d="M50 651v35q0 14 14 14h36q14 0 14 -14v-35q0 -15 -14 -15h-36q-14 0 -14 15zM50 14v472q0 14 14 14h36q14 0 14 -14v-472q0 -14 -14 -14h-36q-14 0 -14 14zM241 651v35q0 14 14 14h35q15 0 15 -14v-35q0 -15 -15 -15h-35q-14 0 -14 15zM87 -178q-13 1 -13 13v33
q0 10 11 10h45q56 0 83.5 28.5t27.5 89.5v490q0 14 14 14h35q15 0 15 -14v-495q0 -85 -43 -128.5t-126 -43.5q-24 0 -49 3z" />
    <glyph glyph-name="Jcircumflex" unicode="&#x134;" horiz-adv-x="966" 
d="M55 14v33q0 14 14 14h640q67 0 96.5 29.5t29.5 96.5v499q0 14 14 14h38q14 0 14 -14v-508q0 -89 -45.5 -133.5t-138.5 -44.5h-648q-14 0 -14 14zM714 759q0 4 4 8l105 120q7 8 12 10.5t13 2.5h39q9 0 15.5 -2.5t12.5 -10.5l105 -120q4 -4 4 -8q0 -8 -10 -8h-39
q-8 0 -13 2.5t-12 10.5l-76 87h-10l-76 -87q-7 -8 -11.5 -10.5t-13.5 -2.5h-39q-10 0 -10 8z" />
    <glyph glyph-name="jcircumflex" unicode="&#x135;" horiz-adv-x="171" 
d="M-97 -178q-13 1 -13 13v33q0 10 11 10h45q56 0 83.5 28.5t27.5 89.5v490q0 14 14 14h35q15 0 15 -14v-495q0 -85 -43 -128.5t-126 -43.5q-24 0 -49 3zM-70 559q0 4 4 8l105 120q7 8 12 10.5t13 2.5h39q9 0 15.5 -2.5t12.5 -10.5l105 -120q4 -4 4 -8q0 -8 -10 -8h-39
q-8 0 -13 2.5t-12 10.5l-76 87h-10l-76 -87q-7 -8 -11.5 -10.5t-13.5 -2.5h-39q-10 0 -10 8z" />
    <glyph glyph-name="uni0136" unicode="&#x136;" horiz-adv-x="955" 
d="M65 14v672q0 14 14 14h38q14 0 14 -14v-395l669 398q15 11 29 11h59q11 0 11 -10q0 -5 -6 -10l-479 -287l500 -373q6 -4 6 -10q0 -10 -13 -10h-54q-8 0 -16.5 4t-16.5 10l-461 346l-228 -136v-210q0 -14 -14 -14h-38q-14 0 -14 14zM411 -252q-3 3 -3 11v28q0 7 3 10t10 3
h31v127q0 7 3 10t10 3h31q8 0 11 -3t3 -10v-157q0 -25 -26 -25h-63q-7 0 -10 3z" />
    <glyph glyph-name="uni0137" unicode="&#x137;" horiz-adv-x="714" 
d="M50 14v672q0 14 14 14h36q14 0 14 -14v-466l460 269q7 5 14.5 8t15.5 3h55q5 0 8.5 -3t3.5 -8q0 -6 -7 -10l-346 -200l360 -259q6 -4 6 -10q0 -4 -3 -7t-9 -3h-45q-14 0 -33 13l-327 237l-153 -89v-147q0 -14 -14 -14h-36q-14 0 -14 14zM266 -252q-3 3 -3 11v28q0 7 3 10
t10 3h31v127q0 7 3 10t10 3h31q8 0 11 -3t3 -10v-157q0 -25 -26 -25h-63q-7 0 -10 3z" />
    <glyph glyph-name="Lacute" unicode="&#x139;" horiz-adv-x="912" 
d="M65 14v672q0 14 14 14h38q14 0 14 -14v-625h717q14 0 14 -14v-33q0 -14 -14 -14h-769q-14 0 -14 14zM72 752q-4 3 -4 7t3 8l69 115q6 10 10.5 14t11.5 4h50q13 0 13 -9q0 -4 -3 -9l-84 -115q-13 -18 -25 -18h-32q-5 0 -9 3z" />
    <glyph glyph-name="lacute" unicode="&#x13a;" horiz-adv-x="164" 
d="M50 14v672q0 14 14 14h36q14 0 14 -14v-672q0 -14 -14 -14h-36q-14 0 -14 14zM56 752q-4 3 -4 7t3 8l69 115q6 10 10.5 14t11.5 4h50q13 0 13 -9q0 -4 -3 -9l-84 -115q-13 -18 -25 -18h-32q-5 0 -9 3z" />
    <glyph glyph-name="uni013B" unicode="&#x13b;" horiz-adv-x="912" 
d="M65 14v672q0 14 14 14h38q14 0 14 -14v-625h717q14 0 14 -14v-33q0 -14 -14 -14h-769q-14 0 -14 14zM390 -252q-3 3 -3 11v28q0 7 3 10t10 3h31v127q0 7 3 10t10 3h31q8 0 11 -3t3 -10v-157q0 -25 -26 -25h-63q-7 0 -10 3z" />
    <glyph glyph-name="uni013C" unicode="&#x13c;" horiz-adv-x="164" 
d="M50 14v672q0 14 14 14h36q14 0 14 -14v-672q0 -14 -14 -14h-36q-14 0 -14 14zM11 -252q-3 3 -3 11v28q0 7 3 10t10 3h31v127q0 7 3 10t10 3h31q8 0 11 -3t3 -10v-157q0 -25 -26 -25h-63q-7 0 -10 3z" />
    <glyph glyph-name="Lcaron" unicode="&#x13d;" horiz-adv-x="912" 
d="M65 14v672q0 14 14 14h38q14 0 14 -14v-625h717q14 0 14 -14v-33q0 -14 -14 -14h-769q-14 0 -14 14zM204 490.5q-3 2.5 -3 10.5v28q0 8 3 11t10 3h31v143q0 8 3 11t10 3h31q14 0 14 -14v-173q0 -13 -6 -19t-20 -6h-63q-7 0 -10 2.5z" />
    <glyph glyph-name="lcaron" unicode="&#x13e;" horiz-adv-x="208" 
d="M50 14v672q0 14 14 14h36q14 0 14 -14v-672q0 -14 -14 -14h-36q-14 0 -14 14zM150 490.5q-3 2.5 -3 10.5v28q0 8 3 11t10 3h31v143q0 8 3 11t10 3h31q14 0 14 -14v-173q0 -13 -6 -19t-20 -6h-63q-7 0 -10 2.5z" />
    <glyph glyph-name="Ldot" unicode="&#x13f;" horiz-adv-x="912" 
d="M65 14v672q0 14 14 14h38q14 0 14 -14v-625h717q14 0 14 -14v-33q0 -14 -14 -14h-769q-14 0 -14 14zM339 290q-3 3 -3 10v44q0 8 3 11t10 3h44q14 0 14 -14v-44q0 -7 -3 -10t-11 -3h-44q-7 0 -10 3z" />
    <glyph glyph-name="ldot" unicode="&#x140;" horiz-adv-x="217" 
d="M50 14v672q0 14 14 14h36q14 0 14 -14v-672q0 -14 -14 -14h-36q-14 0 -14 14zM164 318q-3 3 -3 10v44q0 8 3 11t10 3h44q14 0 14 -14v-44q0 -7 -3 -10t-11 -3h-44q-7 0 -10 3z" />
    <glyph glyph-name="Lslash" unicode="&#x141;" horiz-adv-x="919" 
d="M-32 156q0 4 4 8l100 119v403q0 14 14 14h38q14 0 14 -14v-324l77 92q7 10 12 13t11 3h43q13 0 13 -7q0 -5 -4 -9l-152 -183v-210h717q14 0 14 -14v-33q0 -14 -14 -14h-769q-14 0 -14 14v178l-23 -28q-8 -10 -12.5 -13t-10.5 -3h-44q-14 0 -14 8z" />
    <glyph glyph-name="lslash" unicode="&#x142;" horiz-adv-x="216" 
d="M-1.5 253.5q-3.5 2.5 -3.5 6.5q0 5 4 9l78 83v334q0 14 14 14h36q14 0 14 -14v-267l11 12q8 9 13 13t11 4h32q6 0 9.5 -2.5t3.5 -6.5t-5 -9l-75 -80v-336q0 -14 -14 -14h-36q-14 0 -14 14v267l-12 -13q-8 -8 -13.5 -12.5t-11.5 -4.5h-32q-6 0 -9.5 2.5z" />
    <glyph glyph-name="Nacute" unicode="&#x143;" horiz-adv-x="973" 
d="M65 14v672q0 14 14 14h67q5 0 9.5 -3t8.5 -7l671 -620h7v616q0 14 14 14h38q14 0 14 -14v-672q0 -14 -14 -14h-67q-5 0 -9.5 3t-8.5 7l-671 620h-7v-616q0 -14 -14 -14h-38q-14 0 -14 14zM461 752q-4 3 -4 7t3 8l69 115q6 10 10.5 14t11.5 4h50q13 0 13 -9q0 -4 -3 -9
l-84 -115q-13 -18 -25 -18h-32q-5 0 -9 3z" />
    <glyph glyph-name="nacute" unicode="&#x144;" horiz-adv-x="741" 
d="M50 14v472q0 14 14 14h36q14 0 14 -14v-38h7q23 30 51 43t89 13h257q85 0 129 -43.5t44 -128.5v-318q0 -14 -14 -14h-35q-15 0 -15 14v316q0 59 -28 86.5t-84 27.5h-289q-56 0 -84 -27.5t-28 -86.5v-316q0 -14 -14 -14h-36q-14 0 -14 14zM345 552q-4 3 -4 7t3 8l69 115
q6 10 10.5 14t11.5 4h50q13 0 13 -9q0 -4 -3 -9l-84 -115q-13 -18 -25 -18h-32q-5 0 -9 3z" />
    <glyph glyph-name="uni0145" unicode="&#x145;" horiz-adv-x="973" 
d="M65 14v672q0 14 14 14h67q5 0 9.5 -3t8.5 -7l671 -620h7v616q0 14 14 14h38q14 0 14 -14v-672q0 -14 -14 -14h-67q-5 0 -9.5 3t-8.5 7l-671 620h-7v-616q0 -14 -14 -14h-38q-14 0 -14 14zM421 -252q-3 3 -3 11v28q0 7 3 10t10 3h31v127q0 7 3 10t10 3h31q8 0 11 -3t3 -10
v-157q0 -25 -26 -25h-63q-7 0 -10 3z" />
    <glyph glyph-name="uni0146" unicode="&#x146;" horiz-adv-x="741" 
d="M50 14v472q0 14 14 14h36q14 0 14 -14v-38h7q23 30 51 43t89 13h257q85 0 129 -43.5t44 -128.5v-318q0 -14 -14 -14h-35q-15 0 -15 14v316q0 59 -28 86.5t-84 27.5h-289q-56 0 -84 -27.5t-28 -86.5v-316q0 -14 -14 -14h-36q-14 0 -14 14zM300 -252q-3 3 -3 11v28
q0 7 3 10t10 3h31v127q0 7 3 10t10 3h31q8 0 11 -3t3 -10v-157q0 -25 -26 -25h-63q-7 0 -10 3z" />
    <glyph glyph-name="Ncaron" unicode="&#x147;" horiz-adv-x="973" 
d="M65 14v672q0 14 14 14h67q5 0 9.5 -3t8.5 -7l671 -620h7v616q0 14 14 14h38q14 0 14 -14v-672q0 -14 -14 -14h-67q-5 0 -9.5 3t-8.5 7l-671 620h-7v-616q0 -14 -14 -14h-38q-14 0 -14 14zM453 753.5q-5 2.5 -12 10.5l-105 120q-4 4 -4 8q0 8 10 8h39q9 0 13.5 -2.5
t11.5 -11.5l76 -86h10l76 86q7 9 11.5 11.5t13.5 2.5h39q10 0 10 -8q0 -4 -4 -8l-105 -120q-6 -8 -12.5 -10.5t-15.5 -2.5h-39q-8 0 -13 2.5z" />
    <glyph glyph-name="ncaron" unicode="&#x148;" horiz-adv-x="741" 
d="M50 14v472q0 14 14 14h36q14 0 14 -14v-38h7q23 30 51 43t89 13h257q85 0 129 -43.5t44 -128.5v-318q0 -14 -14 -14h-35q-15 0 -15 14v316q0 59 -28 86.5t-84 27.5h-289q-56 0 -84 -27.5t-28 -86.5v-316q0 -14 -14 -14h-36q-14 0 -14 14zM337 553.5q-5 2.5 -12 10.5
l-105 120q-4 4 -4 8q0 8 10 8h39q9 0 13.5 -2.5t11.5 -11.5l76 -86h10l76 86q7 9 11.5 11.5t13.5 2.5h39q10 0 10 -8q0 -4 -4 -8l-105 -120q-6 -8 -12.5 -10.5t-15.5 -2.5h-39q-8 0 -13 2.5z" />
    <glyph glyph-name="Eng" unicode="&#x14a;" horiz-adv-x="973" 
d="M65 -186v33q0 14 14 14h637q67 0 96.5 29.5t29.5 96.5v13h-15q-5 0 -9.5 3t-8.5 7l-671 620h-7v-616q0 -14 -14 -14h-38q-14 0 -14 14v672q0 14 14 14h67q5 0 9.5 -3t8.5 -7l671 -620h7v616q0 14 14 14h38q14 0 14 -14v-708q0 -89 -45.5 -133.5t-138.5 -44.5h-645
q-14 0 -14 14z" />
    <glyph glyph-name="eng" unicode="&#x14b;" horiz-adv-x="741" 
d="M474 -197q-13 1 -13 13v33q0 10 11 10h45q56 0 83 28.5t27 89.5v353q0 59 -28 86.5t-84 27.5h-289q-56 0 -84 -27.5t-28 -86.5v-316q0 -14 -14 -14h-36q-14 0 -14 14v472q0 14 14 14h36q14 0 14 -14v-38h7q23 30 51 43t89 13h257q85 0 129 -43.5t44 -128.5v-360
q0 -85 -42.5 -128.5t-125.5 -43.5q-23 0 -49 3z" />
    <glyph glyph-name="Omacron" unicode="&#x14c;" 
d="M105.5 40.5q-45.5 44.5 -45.5 133.5v352q0 89 45.5 133.5t138.5 44.5h527q185 0 185 -178v-352q0 -178 -185 -178h-527q-93 0 -138.5 44.5zM859.5 86.5q29.5 29.5 29.5 96.5v335q0 66 -29.5 95.5t-96.5 29.5h-510q-67 0 -97 -29.5t-30 -95.5v-335q0 -67 30 -96.5
t97 -29.5h510q67 0 96.5 29.5zM331 854v31q0 15 15 15h324q15 0 15 -15v-31q0 -15 -15 -15h-324q-15 0 -15 15z" />
    <glyph glyph-name="omacron" unicode="&#x14d;" horiz-adv-x="731" 
d="M88.5 38q-43.5 43 -43.5 127v168q0 171 173 171h295q173 0 173 -171v-168q0 -84 -43.5 -127t-129.5 -43h-295q-86 0 -129.5 43zM594 82.5q28 27.5 28 85.5v162q0 59 -28 86.5t-84 27.5h-289q-56 0 -84 -27.5t-28 -86.5v-162q0 -58 28 -85.5t84 -27.5h289q56 0 84 27.5z
M188 654v31q0 15 15 15h324q15 0 15 -15v-31q0 -15 -15 -15h-324q-15 0 -15 15z" />
    <glyph glyph-name="Ohungarumlaut" unicode="&#x150;" 
d="M105.5 40.5q-45.5 44.5 -45.5 133.5v352q0 89 45.5 133.5t138.5 44.5h527q185 0 185 -178v-352q0 -178 -185 -178h-527q-93 0 -138.5 44.5zM859.5 86.5q29.5 29.5 29.5 96.5v335q0 66 -29.5 95.5t-96.5 29.5h-510q-67 0 -97 -29.5t-30 -95.5v-335q0 -67 30 -96.5
t97 -29.5h510q67 0 96.5 29.5zM551 752q-4 3 -4 7t3 8l69 115q6 10 10.5 14t11.5 4h50q13 0 13 -9q0 -4 -3 -9l-84 -115q-13 -18 -25 -18h-32q-5 0 -9 3zM416 752q-4 3 -4 7t3 8l69 115q6 10 10.5 14t11.5 4h50q13 0 13 -9q0 -4 -3 -9l-84 -115q-13 -18 -25 -18h-32
q-5 0 -9 3z" />
    <glyph glyph-name="ohungarumlaut" unicode="&#x151;" horiz-adv-x="731" 
d="M88.5 38q-43.5 43 -43.5 127v168q0 171 173 171h295q173 0 173 -171v-168q0 -84 -43.5 -127t-129.5 -43h-295q-86 0 -129.5 43zM594 82.5q28 27.5 28 85.5v162q0 59 -28 86.5t-84 27.5h-289q-56 0 -84 -27.5t-28 -86.5v-162q0 -58 28 -85.5t84 -27.5h289q56 0 84 27.5z
M408 552q-4 3 -4 7t3 8l69 115q6 10 10.5 14t11.5 4h50q13 0 13 -9q0 -4 -3 -9l-84 -115q-13 -18 -25 -18h-32q-5 0 -9 3zM273 552q-4 3 -4 7t3 8l69 115q6 10 10.5 14t11.5 4h50q13 0 13 -9q0 -4 -3 -9l-84 -115q-13 -18 -25 -18h-32q-5 0 -9 3z" />
    <glyph glyph-name="OE" unicode="&#x152;" horiz-adv-x="1750" 
d="M105.5 40.5q-45.5 44.5 -45.5 133.5v352q0 89 45.5 133.5t138.5 44.5h527q75 0 118 -28v10q0 14 14 14h772q15 0 15 -15v-31q0 -15 -15 -15h-720v-88l1 -25v-145h709q15 0 15 -15v-32q0 -15 -15 -15h-709v-145l-1 -25v-88h725q15 0 15 -15v-31q0 -15 -15 -15h-777
q-14 0 -14 14v10q-43 -28 -118 -28h-527q-93 0 -138.5 44.5zM859.5 86.5q29.5 29.5 29.5 96.5v335q0 66 -29.5 95.5t-96.5 29.5h-510q-67 0 -97 -29.5t-30 -95.5v-335q0 -67 30 -96.5t97 -29.5h510q67 0 96.5 29.5z" />
    <glyph glyph-name="oe" unicode="&#x153;" horiz-adv-x="1306" 
d="M88.5 38q-43.5 43 -43.5 127v168q0 171 173 171h295q99 0 141 -56q42 56 141 56h293q85 0 129 -44t44 -128v-67q0 -23 -9.5 -32t-32.5 -9h-533v-56q0 -58 28 -85.5t84 -27.5h273q55 0 79 5t51 23q5 4 11 4q5 0 11 -3l23 -12q5 -2 5 -6t-5 -11q-23 -31 -59.5 -45.5
t-115.5 -14.5h-276q-99 0 -141 56q-42 -56 -141 -56h-295q-86 0 -129.5 43zM594 82.5q28 27.5 28 85.5v162q0 59 -28 86.5t-84 27.5h-289q-56 0 -84 -27.5t-28 -86.5v-162q0 -58 28 -85.5t84 -27.5h289q56 0 84 27.5zM1197 276v54q0 59 -28 86.5t-85 27.5h-286
q-56 0 -84 -27.5t-28 -86.5v-54h511z" />
    <glyph glyph-name="Racute" unicode="&#x154;" horiz-adv-x="953" 
d="M65 14v672q0 14 14 14h624q93 0 138.5 -44.5t45.5 -133.5v-141q0 -147 -123 -172l126 -190q3 -4 3 -8q0 -5 -4.5 -8t-10.5 -3h-39q-11 0 -18 11l-127 192h-563v-189q0 -14 -14 -14h-38q-14 0 -14 14zM695 264q67 0 96.5 29t29.5 96v125q0 66 -29.5 95.5t-96.5 29.5h-564
v-375h564zM444 752q-4 3 -4 7t3 8l69 115q6 10 10.5 14t11.5 4h50q13 0 13 -9q0 -4 -3 -9l-84 -115q-13 -18 -25 -18h-32q-5 0 -9 3z" />
    <glyph glyph-name="racute" unicode="&#x155;" horiz-adv-x="722" 
d="M50 14v472q0 14 14 14h36q14 0 14 -14v-38h7q23 30 51 43t89 13h260q83 0 121.5 -30t38.5 -88q0 -12 -3.5 -16.5t-13.5 -4.5h-30q-9 0 -12.5 3t-4.5 10q-4 36 -27.5 51t-78.5 15h-285q-56 0 -84 -27.5t-28 -86.5v-316q0 -14 -14 -14h-36q-14 0 -14 14zM340 552q-4 3 -4 7
t3 8l69 115q6 10 10.5 14t11.5 4h50q13 0 13 -9q0 -4 -3 -9l-84 -115q-13 -18 -25 -18h-32q-5 0 -9 3z" />
    <glyph glyph-name="uni0156" unicode="&#x156;" horiz-adv-x="953" 
d="M65 14v672q0 14 14 14h624q93 0 138.5 -44.5t45.5 -133.5v-141q0 -147 -123 -172l126 -190q3 -4 3 -8q0 -5 -4.5 -8t-10.5 -3h-39q-11 0 -18 11l-127 192h-563v-189q0 -14 -14 -14h-38q-14 0 -14 14zM695 264q67 0 96.5 29t29.5 96v125q0 66 -29.5 95.5t-96.5 29.5h-564
v-375h564zM403 -252q-3 3 -3 11v28q0 7 3 10t10 3h31v127q0 7 3 10t10 3h31q8 0 11 -3t3 -10v-157q0 -25 -26 -25h-63q-7 0 -10 3z" />
    <glyph glyph-name="uni0157" unicode="&#x157;" horiz-adv-x="722" 
d="M50 14v472q0 14 14 14h36q14 0 14 -14v-38h7q23 30 51 43t89 13h260q83 0 121.5 -30t38.5 -88q0 -12 -3.5 -16.5t-13.5 -4.5h-30q-9 0 -12.5 3t-4.5 10q-4 36 -27.5 51t-78.5 15h-285q-56 0 -84 -27.5t-28 -86.5v-316q0 -14 -14 -14h-36q-14 0 -14 14zM13 -252
q-3 3 -3 11v28q0 7 3 10t10 3h31v127q0 7 3 10t10 3h31q8 0 11 -3t3 -10v-157q0 -25 -26 -25h-63q-7 0 -10 3z" />
    <glyph glyph-name="Rcaron" unicode="&#x158;" horiz-adv-x="953" 
d="M65 14v672q0 14 14 14h624q93 0 138.5 -44.5t45.5 -133.5v-141q0 -147 -123 -172l126 -190q3 -4 3 -8q0 -5 -4.5 -8t-10.5 -3h-39q-11 0 -18 11l-127 192h-563v-189q0 -14 -14 -14h-38q-14 0 -14 14zM695 264q67 0 96.5 29t29.5 96v125q0 66 -29.5 95.5t-96.5 29.5h-564
v-375h564zM436 753.5q-5 2.5 -12 10.5l-105 120q-4 4 -4 8q0 8 10 8h39q9 0 13.5 -2.5t11.5 -11.5l76 -86h10l76 86q7 9 11.5 11.5t13.5 2.5h39q10 0 10 -8q0 -4 -4 -8l-105 -120q-6 -8 -12.5 -10.5t-15.5 -2.5h-39q-8 0 -13 2.5z" />
    <glyph glyph-name="rcaron" unicode="&#x159;" horiz-adv-x="722" 
d="M50 14v472q0 14 14 14h36q14 0 14 -14v-38h7q23 30 51 43t89 13h260q83 0 121.5 -30t38.5 -88q0 -12 -3.5 -16.5t-13.5 -4.5h-30q-9 0 -12.5 3t-4.5 10q-4 36 -27.5 51t-78.5 15h-285q-56 0 -84 -27.5t-28 -86.5v-316q0 -14 -14 -14h-36q-14 0 -14 14zM332 553.5
q-5 2.5 -12 10.5l-105 120q-4 4 -4 8q0 8 10 8h39q9 0 13.5 -2.5t11.5 -11.5l76 -86h10l76 86q7 9 11.5 11.5t13.5 2.5h39q10 0 10 -8q0 -4 -4 -8l-105 -120q-6 -8 -12.5 -10.5t-15.5 -2.5h-39q-8 0 -13 2.5z" />
    <glyph glyph-name="Sacute" unicode="&#x15a;" horiz-adv-x="982" 
d="M60 155q0 15 15 15h36q8 0 11 -3.5t4 -11.5q5 -52 33.5 -75t94.5 -23h467q69 0 102 29t33 93q0 65 -35 93.5t-101 33.5l-465 30q-94 6 -144.5 50t-50.5 135q0 183 192 183h476q181 0 181 -159q0 -15 -15 -15h-36q-7 0 -10.5 3.5t-4.5 11.5q-5 51 -33.5 74.5t-94.5 23.5
h-454q-69 0 -102 -29t-33 -93q0 -65 35 -93.5t101 -33.5l465 -30q94 -6 144.5 -50t50.5 -135q0 -183 -192 -183h-489q-181 0 -181 159zM439 752q-4 3 -4 7t3 8l69 115q6 10 10.5 14t11.5 4h50q13 0 13 -9q0 -4 -3 -9l-84 -115q-13 -18 -25 -18h-32q-5 0 -9 3z" />
    <glyph glyph-name="sacute" unicode="&#x15b;" horiz-adv-x="732" 
d="M45 119q0 11 3.5 16t13.5 5h30q9 0 12.5 -3t4.5 -11q4 -36 27.5 -52t78.5 -16h306q49 0 75.5 18t26.5 59q0 44 -23.5 62t-76.5 20l-315 13q-82 3 -121.5 35t-39.5 102q0 67 43 100t121 33h298q161 0 161 -119q0 -11 -3.5 -16t-13.5 -5h-30q-15 0 -17 14q-4 36 -27.5 52
t-78.5 16h-288q-49 0 -75 -17.5t-26 -57.5q0 -44 23.5 -62.5t75.5 -20.5l315 -13q82 -3 122 -35t40 -101q0 -68 -43.5 -101.5t-120.5 -33.5h-317q-161 0 -161 119zM340 552q-4 3 -4 7t3 8l69 115q6 10 10.5 14t11.5 4h50q13 0 13 -9q0 -4 -3 -9l-84 -115q-13 -18 -25 -18
h-32q-5 0 -9 3z" />
    <glyph glyph-name="Scircumflex" unicode="&#x15c;" horiz-adv-x="982" 
d="M60 155q0 15 15 15h36q8 0 11 -3.5t4 -11.5q5 -52 33.5 -75t94.5 -23h467q69 0 102 29t33 93q0 65 -35 93.5t-101 33.5l-465 30q-94 6 -144.5 50t-50.5 135q0 183 192 183h476q181 0 181 -159q0 -15 -15 -15h-36q-7 0 -10.5 3.5t-4.5 11.5q-5 51 -33.5 74.5t-94.5 23.5
h-454q-69 0 -102 -29t-33 -93q0 -65 35 -93.5t101 -33.5l465 -30q94 -6 144.5 -50t50.5 -135q0 -183 -192 -183h-489q-181 0 -181 159zM305 759q0 4 4 8l105 120q7 8 12 10.5t13 2.5h39q9 0 15.5 -2.5t12.5 -10.5l105 -120q4 -4 4 -8q0 -8 -10 -8h-39q-8 0 -13 2.5t-12 10.5
l-76 87h-10l-76 -87q-7 -8 -11.5 -10.5t-13.5 -2.5h-39q-10 0 -10 8z" />
    <glyph glyph-name="scircumflex" unicode="&#x15d;" horiz-adv-x="732" 
d="M45 119q0 11 3.5 16t13.5 5h30q9 0 12.5 -3t4.5 -11q4 -36 27.5 -52t78.5 -16h306q49 0 75.5 18t26.5 59q0 44 -23.5 62t-76.5 20l-315 13q-82 3 -121.5 35t-39.5 102q0 67 43 100t121 33h298q161 0 161 -119q0 -11 -3.5 -16t-13.5 -5h-30q-15 0 -17 14q-4 36 -27.5 52
t-78.5 16h-288q-49 0 -75 -17.5t-26 -57.5q0 -44 23.5 -62.5t75.5 -20.5l315 -13q82 -3 122 -35t40 -101q0 -68 -43.5 -101.5t-120.5 -33.5h-317q-161 0 -161 119zM206 559q0 4 4 8l105 120q7 8 12 10.5t13 2.5h39q9 0 15.5 -2.5t12.5 -10.5l105 -120q4 -4 4 -8q0 -8 -10 -8
h-39q-8 0 -13 2.5t-12 10.5l-76 87h-10l-76 -87q-7 -8 -11.5 -10.5t-13.5 -2.5h-39q-10 0 -10 8z" />
    <glyph glyph-name="Scedilla" unicode="&#x15e;" horiz-adv-x="982" 
d="M60 155q0 15 15 15h36q8 0 11 -3.5t4 -11.5q5 -52 33.5 -75t94.5 -23h467q69 0 102 29t33 93q0 65 -35 93.5t-101 33.5l-465 30q-94 6 -144.5 50t-50.5 135q0 183 192 183h476q181 0 181 -159q0 -15 -15 -15h-36q-7 0 -10.5 3.5t-4.5 11.5q-5 51 -33.5 74.5t-94.5 23.5
h-454q-69 0 -102 -29t-33 -93q0 -65 35 -93.5t101 -33.5l465 -30q94 -6 144.5 -50t50.5 -135q0 -183 -192 -183h-230q-30 -25 -30 -38q0 -12 24 -12h39q32 0 48.5 -15t16.5 -56q0 -40 -20.5 -57.5t-68.5 -17.5h-48q-47 0 -66.5 19t-19.5 57q0 12 11 12h32q4 0 7 -2t3 -6
q0 -19 11.5 -28t37.5 -9h20q25 0 36 7.5t11 24.5t-7 24.5t-23 7.5h-71q-16 0 -27 9t-11 25q0 12 7.5 24.5t27.5 30.5h-199q-181 0 -181 159z" />
    <glyph glyph-name="scedilla" unicode="&#x15f;" horiz-adv-x="732" 
d="M45 119q0 11 3.5 16t13.5 5h30q9 0 12.5 -3t4.5 -11q4 -36 27.5 -52t78.5 -16h306q49 0 75.5 18t26.5 59q0 44 -23.5 62t-76.5 20l-315 13q-82 3 -121.5 35t-39.5 102q0 67 43 100t121 33h298q161 0 161 -119q0 -11 -3.5 -16t-13.5 -5h-30q-15 0 -17 14q-4 36 -27.5 52
t-78.5 16h-288q-49 0 -75 -17.5t-26 -57.5q0 -44 23.5 -62.5t75.5 -20.5l315 -13q82 -3 122 -35t40 -101q0 -68 -43.5 -101.5t-120.5 -33.5h-317q-161 0 -161 119zM294.5 -181q-19.5 19 -19.5 57q0 12 11 12h32q4 0 7 -2t3 -6q0 -19 11.5 -28t37.5 -9h20q25 0 36 7.5
t11 24.5t-7 24.5t-23 7.5h-71q-16 0 -27 9t-11 25q0 12 8.5 25t30.5 34h61q-35 -27 -35 -42q0 -12 24 -12h39q32 0 48.5 -15t16.5 -56q0 -40 -20.5 -57.5t-68.5 -17.5h-48q-47 0 -66.5 19z" />
    <glyph glyph-name="Scaron" unicode="&#x160;" horiz-adv-x="982" 
d="M60 155q0 15 15 15h36q8 0 11 -3.5t4 -11.5q5 -52 33.5 -75t94.5 -23h467q69 0 102 29t33 93q0 65 -35 93.5t-101 33.5l-465 30q-94 6 -144.5 50t-50.5 135q0 183 192 183h476q181 0 181 -159q0 -15 -15 -15h-36q-7 0 -10.5 3.5t-4.5 11.5q-5 51 -33.5 74.5t-94.5 23.5
h-454q-69 0 -102 -29t-33 -93q0 -65 35 -93.5t101 -33.5l465 -30q94 -6 144.5 -50t50.5 -135q0 -183 -192 -183h-489q-181 0 -181 159zM431 753.5q-5 2.5 -12 10.5l-105 120q-4 4 -4 8q0 8 10 8h39q9 0 13.5 -2.5t11.5 -11.5l76 -86h10l76 86q7 9 11.5 11.5t13.5 2.5h39
q10 0 10 -8q0 -4 -4 -8l-105 -120q-6 -8 -12.5 -10.5t-15.5 -2.5h-39q-8 0 -13 2.5z" />
    <glyph glyph-name="scaron" unicode="&#x161;" horiz-adv-x="732" 
d="M45 119q0 11 3.5 16t13.5 5h30q9 0 12.5 -3t4.5 -11q4 -36 27.5 -52t78.5 -16h306q49 0 75.5 18t26.5 59q0 44 -23.5 62t-76.5 20l-315 13q-82 3 -121.5 35t-39.5 102q0 67 43 100t121 33h298q161 0 161 -119q0 -11 -3.5 -16t-13.5 -5h-30q-15 0 -17 14q-4 36 -27.5 52
t-78.5 16h-288q-49 0 -75 -17.5t-26 -57.5q0 -44 23.5 -62.5t75.5 -20.5l315 -13q82 -3 122 -35t40 -101q0 -68 -43.5 -101.5t-120.5 -33.5h-317q-161 0 -161 119zM332 553.5q-5 2.5 -12 10.5l-105 120q-4 4 -4 8q0 8 10 8h39q9 0 13.5 -2.5t11.5 -11.5l76 -86h10l76 86
q7 9 11.5 11.5t13.5 2.5h39q10 0 10 -8q0 -4 -4 -8l-105 -120q-6 -8 -12.5 -10.5t-15.5 -2.5h-39q-8 0 -13 2.5z" />
    <glyph glyph-name="uni0162" unicode="&#x162;" horiz-adv-x="961" 
d="M406 -180.5q-20 19.5 -20 58.5q0 10 10 10h33q9 0 11 -8q0 -19 11 -27.5t37 -8.5h22q27 0 36.5 6t9.5 24q0 17 -10 24t-36 7h-36q-14 0 -20 8t-6 25v701h-389q-14 0 -14 14v33q0 14 14 14h843q14 0 14 -14v-33q0 -14 -14 -14h-388v-681q0 -7 4 -10t15 -3q36 0 56.5 -15
t20.5 -56q0 -38 -21 -56t-68 -18h-48q-47 0 -67 19.5z" />
    <glyph glyph-name="uni0163" unicode="&#x163;" horiz-adv-x="534" 
d="M172 43.5q-44 43.5 -44 127.5v269h-84q-14 0 -14 14v31q0 8 3 11.5t11 3.5h84v60q0 15 14 15h36q14 0 14 -15v-60h282q8 0 11.5 -3t3.5 -11v-32q0 -14 -14 -14h-283v-267q0 -58 28 -85.5t84 -27.5h169q16 0 16 -15v-30q0 -15 -15 -15h-172q-86 0 -130 43.5zM270.5 -181
q-19.5 19 -19.5 57q0 12 11 12h32q4 0 7 -2t3 -6q0 -19 11.5 -28t37.5 -9h20q25 0 36 7.5t11 24.5t-7 24.5t-23 7.5h-71q-16 0 -27 9t-11 25q0 12 8.5 25t30.5 34h61q-35 -27 -35 -42q0 -12 24 -12h39q32 0 48.5 -15t16.5 -56q0 -40 -20.5 -57.5t-68.5 -17.5h-48
q-47 0 -66.5 19z" />
    <glyph glyph-name="Tcaron" unicode="&#x164;" horiz-adv-x="961" 
d="M45 653v33q0 14 14 14h843q14 0 14 -14v-33q0 -14 -14 -14h-388v-625q0 -14 -15 -14h-37q-14 0 -14 14v625h-389q-14 0 -14 14zM448 753.5q-5 2.5 -12 10.5l-105 120q-4 4 -4 8q0 8 10 8h39q9 0 13.5 -2.5t11.5 -11.5l76 -86h10l76 86q7 9 11.5 11.5t13.5 2.5h39
q10 0 10 -8q0 -4 -4 -8l-105 -120q-6 -8 -12.5 -10.5t-15.5 -2.5h-39q-8 0 -13 2.5z" />
    <glyph glyph-name="tcaron" unicode="&#x165;" horiz-adv-x="534" 
d="M172 43.5q-44 43.5 -44 127.5v269h-84q-14 0 -14 14v31q0 8 3 11.5t11 3.5h84v60q0 15 14 15h36q14 0 14 -15v-60h282q8 0 11.5 -3t3.5 -11v-32q0 -14 -14 -14h-283v-267q0 -58 28 -85.5t84 -27.5h169q16 0 16 -15v-30q0 -15 -15 -15h-172q-86 0 -130 43.5zM233 541.5
q-3 2.5 -3 10.5v28q0 8 3 11t10 3h31v143q0 8 3 11t10 3h31q14 0 14 -14v-173q0 -13 -6 -19t-20 -6h-63q-7 0 -10 2.5z" />
    <glyph glyph-name="Tbar" unicode="&#x166;" horiz-adv-x="961" 
d="M242 398v31q0 15 15 15h191v195h-389q-14 0 -14 14v33q0 14 14 14h843q14 0 14 -14v-33q0 -14 -14 -14h-388v-195h191q15 0 15 -15v-31q0 -15 -15 -15h-191v-369q0 -14 -15 -14h-37q-14 0 -14 14v369h-191q-15 0 -15 15z" />
    <glyph glyph-name="tbar" unicode="&#x167;" horiz-adv-x="539" 
d="M35 284v30q0 15 15 15h78v111h-84q-14 0 -14 14v31q0 8 3 11.5t11 3.5h84v60q0 15 14 15h36q14 0 14 -15v-60h282q8 0 11.5 -3t3.5 -11v-32q0 -14 -14 -14h-283v-111h287q15 0 15 -15v-30q0 -15 -15 -15h-287v-96q0 -58 28 -85.5t84 -27.5h169q16 0 16 -15v-30
q0 -15 -15 -15h-172q-86 0 -130 43.5t-44 127.5v98h-78q-15 0 -15 15z" />
    <glyph glyph-name="Utilde" unicode="&#x168;" horiz-adv-x="1026" 
d="M110.5 44.5q-45.5 44.5 -45.5 133.5v508q0 14 14 14h38q14 0 14 -14v-499q0 -67 30 -96.5t97 -29.5h510q67 0 96.5 29.5t29.5 96.5v499q0 14 14 14h38q15 0 15 -14v-508q0 -89 -45.5 -133.5t-138.5 -44.5h-528q-93 0 -138.5 44.5zM547.5 807q-16.5 6 -41.5 19
q-22 11 -36 16.5t-33 5.5q-15 0 -28 -4t-30 -15q-4 -3 -8 -3t-8 7l-13 29q0 3 -1 5q0 6 8 11q42 27 84 27q22 0 40 -6.5t38 -18.5q21 -11 36 -16.5t34 -5.5q16 0 29 4t30 15q5 3 8 3q4 0 7 -7l13 -29q1 -2 1 -5q0 -7 -8 -12q-43 -26 -83 -26q-22 0 -38.5 6z" />
    <glyph glyph-name="utilde" unicode="&#x169;" horiz-adv-x="741" 
d="M94 39.5q-44 43.5 -44 128.5v318q0 14 14 14h36q14 0 14 -14v-316q0 -59 28 -86.5t84 -27.5h289q56 0 84 27.5t28 86.5v316q0 14 15 14h35q14 0 14 -14v-472q0 -14 -14 -14h-36q-14 0 -14 14v39h-7q-22 -31 -50.5 -44t-89.5 -13h-256q-86 0 -130 43.5zM405.5 607
q-16.5 6 -41.5 19q-22 11 -36 16.5t-33 5.5q-15 0 -28 -4t-30 -15q-4 -3 -8 -3t-8 7l-13 29q0 3 -1 5q0 6 8 11q42 27 84 27q22 0 40 -6.5t38 -18.5q21 -11 36 -16.5t34 -5.5q16 0 29 4t30 15q5 3 8 3q4 0 7 -7l13 -29q1 -2 1 -5q0 -7 -8 -12q-43 -26 -83 -26q-22 0 -38.5 6
z" />
    <glyph glyph-name="Umacron" unicode="&#x16a;" horiz-adv-x="1026" 
d="M110.5 44.5q-45.5 44.5 -45.5 133.5v508q0 14 14 14h38q14 0 14 -14v-499q0 -67 30 -96.5t97 -29.5h510q67 0 96.5 29.5t29.5 96.5v499q0 14 14 14h38q15 0 15 -14v-508q0 -89 -45.5 -133.5t-138.5 -44.5h-528q-93 0 -138.5 44.5zM336 854v31q0 15 15 15h324q15 0 15 -15
v-31q0 -15 -15 -15h-324q-15 0 -15 15z" />
    <glyph glyph-name="umacron" unicode="&#x16b;" horiz-adv-x="741" 
d="M94 39.5q-44 43.5 -44 128.5v318q0 14 14 14h36q14 0 14 -14v-316q0 -59 28 -86.5t84 -27.5h289q56 0 84 27.5t28 86.5v316q0 14 15 14h35q14 0 14 -14v-472q0 -14 -14 -14h-36q-14 0 -14 14v39h-7q-22 -31 -50.5 -44t-89.5 -13h-256q-86 0 -130 43.5zM194 654v31
q0 15 15 15h324q15 0 15 -15v-31q0 -15 -15 -15h-324q-15 0 -15 15z" />
    <glyph glyph-name="Ubreve" unicode="&#x16c;" horiz-adv-x="1026" 
d="M110.5 44.5q-45.5 44.5 -45.5 133.5v508q0 14 14 14h38q14 0 14 -14v-499q0 -67 30 -96.5t97 -29.5h510q67 0 96.5 29.5t29.5 96.5v499q0 14 14 14h38q15 0 15 -14v-508q0 -89 -45.5 -133.5t-138.5 -44.5h-528q-93 0 -138.5 44.5zM373 886q0 14 13 14h29q13 0 13 -14
q2 -34 18.5 -54t49.5 -20h33q33 0 49.5 20t18.5 54q0 14 13 14h29q13 0 13 -14q0 -62 -29.5 -92t-89.5 -30h-41q-119 0 -119 122z" />
    <glyph glyph-name="ubreve" unicode="&#x16d;" horiz-adv-x="741" 
d="M94 39.5q-44 43.5 -44 128.5v318q0 14 14 14h36q14 0 14 -14v-316q0 -59 28 -86.5t84 -27.5h289q56 0 84 27.5t28 86.5v316q0 14 15 14h35q14 0 14 -14v-472q0 -14 -14 -14h-36q-14 0 -14 14v39h-7q-22 -31 -50.5 -44t-89.5 -13h-256q-86 0 -130 43.5zM231 686
q0 14 13 14h29q13 0 13 -14q2 -34 18.5 -54t49.5 -20h33q33 0 49.5 20t18.5 54q0 14 13 14h29q13 0 13 -14q0 -62 -29.5 -92t-89.5 -30h-41q-119 0 -119 122z" />
    <glyph glyph-name="Uring" unicode="&#x16e;" horiz-adv-x="1026" 
d="M110.5 44.5q-45.5 44.5 -45.5 133.5v508q0 14 14 14h38q14 0 14 -14v-499q0 -67 30 -96.5t97 -29.5h510q67 0 96.5 29.5t29.5 96.5v499q0 14 14 14h38q15 0 15 -14v-508q0 -89 -45.5 -133.5t-138.5 -44.5h-528q-93 0 -138.5 44.5zM416 762.5q-24 23.5 -24 58.5v12
q0 35 24 58.5t60 23.5h72q36 0 60 -23.5t24 -58.5v-12q0 -35 -24 -58.5t-60 -23.5h-72q-36 0 -60 23.5zM577 793q11 11 11 30v8q0 19 -11 30t-31 11h-68q-20 0 -31 -11t-11 -30v-8q0 -19 11 -30t31 -11h68q20 0 31 11z" />
    <glyph glyph-name="uring" unicode="&#x16f;" horiz-adv-x="741" 
d="M94 39.5q-44 43.5 -44 128.5v318q0 14 14 14h36q14 0 14 -14v-316q0 -59 28 -86.5t84 -27.5h289q56 0 84 27.5t28 86.5v316q0 14 15 14h35q14 0 14 -14v-472q0 -14 -14 -14h-36q-14 0 -14 14v39h-7q-22 -31 -50.5 -44t-89.5 -13h-256q-86 0 -130 43.5zM274 562.5
q-24 23.5 -24 58.5v12q0 35 24 58.5t60 23.5h72q36 0 60 -23.5t24 -58.5v-12q0 -35 -24 -58.5t-60 -23.5h-72q-36 0 -60 23.5zM435 593q11 11 11 30v8q0 19 -11 30t-31 11h-68q-20 0 -31 -11t-11 -30v-8q0 -19 11 -30t31 -11h68q20 0 31 11z" />
    <glyph glyph-name="Uhungarumlaut" unicode="&#x170;" horiz-adv-x="1026" 
d="M110.5 44.5q-45.5 44.5 -45.5 133.5v508q0 14 14 14h38q14 0 14 -14v-499q0 -67 30 -96.5t97 -29.5h510q67 0 96.5 29.5t29.5 96.5v499q0 14 14 14h38q15 0 15 -14v-508q0 -89 -45.5 -133.5t-138.5 -44.5h-528q-93 0 -138.5 44.5zM556 752q-4 3 -4 7t3 8l69 115
q6 10 10.5 14t11.5 4h50q13 0 13 -9q0 -4 -3 -9l-84 -115q-13 -18 -25 -18h-32q-5 0 -9 3zM421 752q-4 3 -4 7t3 8l69 115q6 10 10.5 14t11.5 4h50q13 0 13 -9q0 -4 -3 -9l-84 -115q-13 -18 -25 -18h-32q-5 0 -9 3z" />
    <glyph glyph-name="uhungarumlaut" unicode="&#x171;" horiz-adv-x="741" 
d="M94 39.5q-44 43.5 -44 128.5v318q0 14 14 14h36q14 0 14 -14v-316q0 -59 28 -86.5t84 -27.5h289q56 0 84 27.5t28 86.5v316q0 14 15 14h35q14 0 14 -14v-472q0 -14 -14 -14h-36q-14 0 -14 14v39h-7q-22 -31 -50.5 -44t-89.5 -13h-256q-86 0 -130 43.5zM413 552q-4 3 -4 7
t3 8l69 115q6 10 10.5 14t11.5 4h50q13 0 13 -9q0 -4 -3 -9l-84 -115q-13 -18 -25 -18h-32q-5 0 -9 3zM278 552q-4 3 -4 7t3 8l69 115q6 10 10.5 14t11.5 4h50q13 0 13 -9q0 -4 -3 -9l-84 -115q-13 -18 -25 -18h-32q-5 0 -9 3z" />
    <glyph glyph-name="Uogonek" unicode="&#x172;" horiz-adv-x="1026" 
d="M110.5 44.5q-45.5 44.5 -45.5 133.5v508q0 14 14 14h38q14 0 14 -14v-499q0 -67 30 -96.5t97 -29.5h510q67 0 96.5 29.5t29.5 96.5v499q0 14 14 14h38q15 0 15 -14v-508q0 -89 -45.5 -133.5t-138.5 -44.5v-27q0 -32 -10.5 -44t-38.5 -15l-88 -11q-14 -2 -19 -6.5
t-5 -20.5q0 -18 8.5 -24.5t32.5 -6.5h98q10 0 10 -10v-27q0 -10 -10 -10h-108q-53 0 -71.5 16t-18.5 61q0 29 7.5 43t23.5 19.5t50 9.5l43 5q20 2 26 8t6 22v18h-464q-93 0 -138.5 44.5z" />
    <glyph glyph-name="uogonek" unicode="&#x173;" horiz-adv-x="741" 
d="M94 39.5q-44 43.5 -44 128.5v318q0 14 14 14h36q14 0 14 -14v-316q0 -59 28 -86.5t84 -27.5h289q56 0 84 27.5t28 86.5v316q0 14 15 14h35q14 0 14 -14v-466h1v-47q0 -32 -10.5 -44t-38.5 -15l-88 -11q-14 -2 -19 -6.5t-5 -20.5q0 -18 8.5 -24.5t32.5 -6.5h98
q10 0 10 -10v-27q0 -10 -10 -10h-108q-53 0 -71.5 16t-18.5 61q0 29 7.5 43t23.5 19.5t50 9.5l43 5q20 2 26 8t6 22v25q-1 2 -1 7v39h-7q-22 -31 -50.5 -44t-89.5 -13h-256q-86 0 -130 43.5z" />
    <glyph glyph-name="Wcircumflex" unicode="&#x174;" horiz-adv-x="1831" 
d="M447 3.5q-4 3.5 -9 12.5l-395 668q-3 5 -3 8q0 4 4 6t9 2h46q7 0 10.5 -3t9.5 -13l362 -612h10l376 612q6 10 9.5 13t10.5 3h57q7 0 10.5 -3t9.5 -13l376 -612h10l362 612q6 10 9.5 13t10.5 3h46q5 0 9 -2t4 -6q0 -3 -3 -8l-395 -668q-5 -9 -9 -12.5t-10 -3.5h-56
q-6 0 -10 3.5t-9 12.5l-383 622l-384 -622q-5 -9 -9 -12.5t-10 -3.5h-56q-6 0 -10 3.5zM755 759q0 4 4 8l105 120q7 8 12 10.5t13 2.5h39q9 0 15.5 -2.5t12.5 -10.5l105 -120q4 -4 4 -8q0 -8 -10 -8h-39q-8 0 -13 2.5t-12 10.5l-76 87h-10l-76 -87q-7 -8 -11.5 -10.5
t-13.5 -2.5h-39q-10 0 -10 8z" />
    <glyph glyph-name="wcircumflex" unicode="&#x175;" horiz-adv-x="1289" 
d="M323.5 4q-4.5 4 -10.5 14l-275 465q-3 5 -3 9q0 8 12 8h44q7 0 11.5 -4t9.5 -13l239 -409h10l242 409q9 17 20 17h43q11 0 21 -17l241 -409h10l239 409q7 10 10.5 13.5t10.5 3.5h44q12 0 12 -8q0 -4 -3 -9l-274 -465q-11 -18 -22 -18h-42q-7 0 -11.5 4t-11.5 14l-245 414
l-246 -414q-11 -18 -22 -18h-42q-7 0 -11.5 4zM485 559q0 4 4 8l105 120q7 8 12 10.5t13 2.5h39q9 0 15.5 -2.5t12.5 -10.5l105 -120q4 -4 4 -8q0 -8 -10 -8h-39q-8 0 -13 2.5t-12 10.5l-76 87h-10l-76 -87q-7 -8 -11.5 -10.5t-13.5 -2.5h-39q-10 0 -10 8z" />
    <glyph glyph-name="Ycircumflex" unicode="&#x176;" horiz-adv-x="949" 
d="M442 14v268l-397 405q-5 5 -5 8q0 5 8 5h57q7 0 12 -3.5t13 -11.5l340 -345h9l340 345q8 8 13 11.5t12 3.5h58q7 0 7 -5q0 -3 -5 -8l-396 -405v-268q0 -14 -15 -14h-37q-14 0 -14 14zM314 759q0 4 4 8l105 120q7 8 12 10.5t13 2.5h39q9 0 15.5 -2.5t12.5 -10.5l105 -120
q4 -4 4 -8q0 -8 -10 -8h-39q-8 0 -13 2.5t-12 10.5l-76 87h-10l-76 -87q-7 -8 -11.5 -10.5t-13.5 -2.5h-39q-10 0 -10 8z" />
    <glyph glyph-name="ycircumflex" unicode="&#x177;" horiz-adv-x="765" 
d="M228 -172q0 3 3 8l115 174l-308 473q-3 5 -3 9q0 8 12 8h45q7 0 11.5 -4t9.5 -13l264 -409h11l264 409q5 9 9.5 13t11.5 4h45q12 0 12 -8q0 -4 -3 -9l-421 -647q-5 -9 -9.5 -13t-11.5 -4h-46q-11 0 -11 9zM222 559q0 4 4 8l105 120q7 8 12 10.5t13 2.5h39q9 0 15.5 -2.5
t12.5 -10.5l105 -120q4 -4 4 -8q0 -8 -10 -8h-39q-8 0 -13 2.5t-12 10.5l-76 87h-10l-76 -87q-7 -8 -11.5 -10.5t-13.5 -2.5h-39q-10 0 -10 8z" />
    <glyph glyph-name="Ydieresis" unicode="&#x178;" horiz-adv-x="949" 
d="M442 14v268l-397 405q-5 5 -5 8q0 5 8 5h57q7 0 12 -3.5t13 -11.5l340 -345h9l340 345q8 8 13 11.5t12 3.5h58q7 0 7 -5q0 -3 -5 -8l-396 -405v-268q0 -14 -15 -14h-37q-14 0 -14 14zM545 843v44q0 7 3 10t11 3h44q8 0 10.5 -2.5t2.5 -10.5v-44q0 -8 -3 -11t-10 -3h-44
q-14 0 -14 14zM312 832q-3 3 -3 11v44q0 8 3 10.5t10 2.5h44q8 0 11 -3t3 -10v-44q0 -14 -14 -14h-44q-7 0 -10 3z" />
    <glyph glyph-name="Zacute" unicode="&#x179;" horiz-adv-x="910" 
d="M50 14v40q0 9 6 14l699 563v8h-684q-14 0 -14 14v33q0 14 14 14h774q14 0 14 -14v-40q0 -9 -6 -14l-699 -563v-8h692q14 0 14 -14v-33q0 -14 -14 -14h-782q-14 0 -14 14zM429 752q-4 3 -4 7t3 8l69 115q6 10 10.5 14t11.5 4h50q13 0 13 -9q0 -4 -3 -9l-84 -115
q-13 -18 -25 -18h-32q-5 0 -9 3z" />
    <glyph glyph-name="zacute" unicode="&#x17a;" horiz-adv-x="691" 
d="M40 14v43q0 12 8 18l503 358v7h-492q-14 0 -14 14v31q0 8 3 11.5t11 3.5h576q16 0 16 -14v-43q0 -12 -9 -18l-503 -357v-8h496q16 0 16 -14v-32q0 -14 -15 -14h-582q-14 0 -14 14zM325 552q-4 3 -4 7t3 8l69 115q6 10 10.5 14t11.5 4h50q13 0 13 -9q0 -4 -3 -9l-84 -115
q-13 -18 -25 -18h-32q-5 0 -9 3z" />
    <glyph glyph-name="Zdotaccent" unicode="&#x17b;" horiz-adv-x="910" 
d="M50 14v40q0 9 6 14l699 563v8h-684q-14 0 -14 14v33q0 14 14 14h774q14 0 14 -14v-40q0 -9 -6 -14l-699 -563v-8h692q14 0 14 -14v-33q0 -14 -14 -14h-782q-14 0 -14 14zM422 832q-3 3 -3 10v44q0 8 3 11t10 3h44q14 0 14 -14v-44q0 -7 -3 -10t-11 -3h-44q-7 0 -10 3z
" />
    <glyph glyph-name="zdotaccent" unicode="&#x17c;" horiz-adv-x="691" 
d="M40 14v43q0 12 8 18l503 358v7h-492q-14 0 -14 14v31q0 8 3 11.5t11 3.5h576q16 0 16 -14v-43q0 -12 -9 -18l-503 -357v-8h496q16 0 16 -14v-32q0 -14 -15 -14h-582q-14 0 -14 14zM318 632q-3 3 -3 10v44q0 8 3 11t10 3h44q14 0 14 -14v-44q0 -7 -3 -10t-11 -3h-44
q-7 0 -10 3z" />
    <glyph glyph-name="Zcaron" unicode="&#x17d;" horiz-adv-x="910" 
d="M50 14v40q0 9 6 14l699 563v8h-684q-14 0 -14 14v33q0 14 14 14h774q14 0 14 -14v-40q0 -9 -6 -14l-699 -563v-8h692q14 0 14 -14v-33q0 -14 -14 -14h-782q-14 0 -14 14zM421 753.5q-5 2.5 -12 10.5l-105 120q-4 4 -4 8q0 8 10 8h39q9 0 13.5 -2.5t11.5 -11.5l76 -86h10
l76 86q7 9 11.5 11.5t13.5 2.5h39q10 0 10 -8q0 -4 -4 -8l-105 -120q-6 -8 -12.5 -10.5t-15.5 -2.5h-39q-8 0 -13 2.5z" />
    <glyph glyph-name="zcaron" unicode="&#x17e;" horiz-adv-x="691" 
d="M40 14v43q0 12 8 18l503 358v7h-492q-14 0 -14 14v31q0 8 3 11.5t11 3.5h576q16 0 16 -14v-43q0 -12 -9 -18l-503 -357v-8h496q16 0 16 -14v-32q0 -14 -15 -14h-582q-14 0 -14 14zM317 553.5q-5 2.5 -12 10.5l-105 120q-4 4 -4 8q0 8 10 8h39q9 0 13.5 -2.5t11.5 -11.5
l76 -86h10l76 86q7 9 11.5 11.5t13.5 2.5h39q10 0 10 -8q0 -4 -4 -8l-105 -120q-6 -8 -12.5 -10.5t-15.5 -2.5h-39q-8 0 -13 2.5z" />
    <glyph glyph-name="uni018F" unicode="&#x18f;" 
d="M105.5 40.5q-45.5 44.5 -45.5 133.5v150q0 6 4.5 10.5t11.5 4.5h813v179q0 66 -29.5 95.5t-96.5 29.5h-506q-67 0 -98 -30t-31 -95v-13q0 -12 -12 -12h-43q-6 0 -8.5 3t-2.5 9v21q0 90 45 134t138 44h526q185 0 185 -178v-352q0 -178 -185 -178h-527q-93 0 -138.5 44.5z
M156 86.5q30 -29.5 97 -29.5h510q67 0 96.5 29.5t29.5 96.5v96h-763v-96q0 -67 30 -96.5z" />
    <glyph glyph-name="florin" unicode="&#x192;" horiz-adv-x="601" 
d="M40 -185v29q0 15 15 15h124q47 0 67.5 25.5t20.5 75.5v482h-57q-12 0 -12 12v34q0 12 12 12h57v45q0 155 145 155h139q15 0 15 -15v-29q0 -15 -15 -15h-133q-46 0 -66.5 -25t-20.5 -75v-586q0 -155 -145 -155h-131q-15 0 -15 15z" />
    <glyph glyph-name="Ohorn" unicode="&#x1a0;" 
d="M105.5 40.5q-45.5 44.5 -45.5 133.5v352q0 89 45.5 133.5t138.5 44.5h615q44 0 44 43v32q0 13 13 13h26q14 0 14 -13v-35q0 -63 -52 -79q52 -43 52 -139v-352q0 -178 -185 -178h-527q-93 0 -138.5 44.5zM859.5 86.5q29.5 29.5 29.5 96.5v335q0 66 -29.5 95.5t-96.5 29.5
h-510q-67 0 -97 -29.5t-30 -95.5v-335q0 -67 30 -96.5t97 -29.5h510q67 0 96.5 29.5z" />
    <glyph glyph-name="ohorn" unicode="&#x1a1;" horiz-adv-x="731" 
d="M88.5 38q-43.5 43 -43.5 127v168q0 171 173 171h376q44 0 44 43v31q0 13 13 13h22q13 0 13 -13v-34q0 -62 -49 -78q49 -42 49 -133v-168q0 -84 -43.5 -127t-129.5 -43h-295q-86 0 -129.5 43zM594 82.5q28 27.5 28 85.5v162q0 59 -28 86.5t-84 27.5h-289q-56 0 -84 -27.5
t-28 -86.5v-162q0 -58 28 -85.5t84 -27.5h289q56 0 84 27.5z" />
    <glyph glyph-name="Uhorn" unicode="&#x1af;" horiz-adv-x="1026" 
d="M110.5 44.5q-45.5 44.5 -45.5 133.5v508q0 14 14 14h38q14 0 14 -14v-499q0 -67 30 -96.5t97 -29.5h510q67 0 96.5 29.5t29.5 96.5v499q0 14 14 14h31q44 0 44 43v36q0 13 13 13h26q14 0 14 -13v-39q0 -37 -19 -58.5t-56 -24.5v-479q0 -89 -45.5 -133.5t-138.5 -44.5
h-528q-93 0 -138.5 44.5z" />
    <glyph glyph-name="uhorn" unicode="&#x1b0;" horiz-adv-x="741" 
d="M94 39.5q-44 43.5 -44 128.5v318q0 14 14 14h36q14 0 14 -14v-316q0 -59 28 -86.5t84 -27.5h289q56 0 84 27.5t28 86.5v316q0 14 15 14h27q44 0 44 43v35q0 13 13 13h22q14 0 14 -13v-38q0 -36 -18 -57t-53 -25v-444q0 -14 -14 -14h-36q-14 0 -14 14v39h-7
q-22 -31 -50.5 -44t-89.5 -13h-256q-86 0 -130 43.5z" />
    <glyph glyph-name="uni01CD" unicode="&#x1cd;" horiz-adv-x="1054" 
d="M564 696.5q4 -3.5 9 -12.5l438 -668q3 -4 3 -8q0 -8 -12 -8h-46q-8 0 -12 3.5t-10 12.5l-78 120h-658l-78 -120q-6 -9 -10 -12.5t-11 -3.5h-46q-5 0 -9 2t-4 6t3 8l438 668q5 9 9 12.5t11 3.5h53q6 0 10 -3.5zM817 195l-285 436h-10l-285 -436h580zM493 753.5
q-5 2.5 -12 10.5l-105 120q-4 4 -4 8q0 8 10 8h39q9 0 13.5 -2.5t11.5 -11.5l76 -86h10l76 86q7 9 11.5 11.5t13.5 2.5h39q10 0 10 -8q0 -4 -4 -8l-105 -120q-6 -8 -12.5 -10.5t-15.5 -2.5h-39q-8 0 -13 2.5z" />
    <glyph glyph-name="uni01CE" unicode="&#x1ce;" horiz-adv-x="722" 
d="M69.5 32.5q-39.5 37.5 -39.5 111.5t38 108t111 34h429v32q0 48 -12 75t-42 40t-86 13h-238q-55 0 -78.5 -15.5t-28.5 -51.5q-1 -7 -4.5 -10t-11.5 -3h-31q-9 0 -13 4.5t-4 16.5q0 57 38.5 87t122.5 30h259q105 0 149 -43t44 -138v-309q0 -14 -14 -14h-36q-14 0 -14 14v57
h-6q-26 -34 -66.5 -55t-97.5 -21h-257q-72 0 -111.5 37.5zM569 86q39 31 39 79v68h-426q-44 0 -66 -19.5t-22 -68.5q0 -48 22 -69t66 -21h288q60 0 99 31zM331 553.5q-5 2.5 -12 10.5l-105 120q-4 4 -4 8q0 8 10 8h39q9 0 13.5 -2.5t11.5 -11.5l76 -86h10l76 86
q7 9 11.5 11.5t13.5 2.5h39q10 0 10 -8q0 -4 -4 -8l-105 -120q-6 -8 -12.5 -10.5t-15.5 -2.5h-39q-8 0 -13 2.5z" />
    <glyph glyph-name="uni01CF" unicode="&#x1cf;" horiz-adv-x="196" 
d="M65 14v672q0 14 14 14h38q14 0 14 -14v-672q0 -14 -14 -14h-38q-14 0 -14 14zM64 753.5q-5 2.5 -12 10.5l-105 120q-4 4 -4 8q0 8 10 8h39q9 0 13.5 -2.5t11.5 -11.5l76 -86h10l76 86q7 9 11.5 11.5t13.5 2.5h39q10 0 10 -8q0 -4 -4 -8l-105 -120q-6 -8 -12.5 -10.5
t-15.5 -2.5h-39q-8 0 -13 2.5z" />
    <glyph glyph-name="uni01D0" unicode="&#x1d0;" horiz-adv-x="164" 
d="M50 14v472q0 14 14 14h36q14 0 14 -14v-472q0 -14 -14 -14h-36q-14 0 -14 14zM48 553.5q-5 2.5 -12 10.5l-105 120q-4 4 -4 8q0 8 10 8h39q9 0 13.5 -2.5t11.5 -11.5l76 -86h10l76 86q7 9 11.5 11.5t13.5 2.5h39q10 0 10 -8q0 -4 -4 -8l-105 -120q-6 -8 -12.5 -10.5
t-15.5 -2.5h-39q-8 0 -13 2.5z" />
    <glyph glyph-name="uni01D1" unicode="&#x1d1;" 
d="M105.5 40.5q-45.5 44.5 -45.5 133.5v352q0 89 45.5 133.5t138.5 44.5h527q185 0 185 -178v-352q0 -178 -185 -178h-527q-93 0 -138.5 44.5zM859.5 86.5q29.5 29.5 29.5 96.5v335q0 66 -29.5 95.5t-96.5 29.5h-510q-67 0 -97 -29.5t-30 -95.5v-335q0 -67 30 -96.5
t97 -29.5h510q67 0 96.5 29.5zM474 753.5q-5 2.5 -12 10.5l-105 120q-4 4 -4 8q0 8 10 8h39q9 0 13.5 -2.5t11.5 -11.5l76 -86h10l76 86q7 9 11.5 11.5t13.5 2.5h39q10 0 10 -8q0 -4 -4 -8l-105 -120q-6 -8 -12.5 -10.5t-15.5 -2.5h-39q-8 0 -13 2.5z" />
    <glyph glyph-name="uni01D2" unicode="&#x1d2;" horiz-adv-x="731" 
d="M88.5 38q-43.5 43 -43.5 127v168q0 171 173 171h295q173 0 173 -171v-168q0 -84 -43.5 -127t-129.5 -43h-295q-86 0 -129.5 43zM594 82.5q28 27.5 28 85.5v162q0 59 -28 86.5t-84 27.5h-289q-56 0 -84 -27.5t-28 -86.5v-162q0 -58 28 -85.5t84 -27.5h289q56 0 84 27.5z
M331 553.5q-5 2.5 -12 10.5l-105 120q-4 4 -4 8q0 8 10 8h39q9 0 13.5 -2.5t11.5 -11.5l76 -86h10l76 86q7 9 11.5 11.5t13.5 2.5h39q10 0 10 -8q0 -4 -4 -8l-105 -120q-6 -8 -12.5 -10.5t-15.5 -2.5h-39q-8 0 -13 2.5z" />
    <glyph glyph-name="uni01D4" unicode="&#x1d4;" horiz-adv-x="741" 
d="M94 39.5q-44 43.5 -44 128.5v318q0 14 14 14h36q14 0 14 -14v-316q0 -59 28 -86.5t84 -27.5h289q56 0 84 27.5t28 86.5v316q0 14 15 14h35q14 0 14 -14v-472q0 -14 -14 -14h-36q-14 0 -14 14v39h-7q-22 -31 -50.5 -44t-89.5 -13h-256q-86 0 -130 43.5zM337 553.5
q-5 2.5 -12 10.5l-105 120q-4 4 -4 8q0 8 10 8h39q9 0 13.5 -2.5t11.5 -11.5l76 -86h10l76 86q7 9 11.5 11.5t13.5 2.5h39q10 0 10 -8q0 -4 -4 -8l-105 -120q-6 -8 -12.5 -10.5t-15.5 -2.5h-39q-8 0 -13 2.5z" />
    <glyph glyph-name="Gcaron" unicode="&#x1e6;" horiz-adv-x="1011" 
d="M105.5 40.5q-45.5 44.5 -45.5 133.5v352q0 89 45.5 133.5t138.5 44.5h527q93 0 138 -44t45 -134v-21q0 -12 -11 -12h-43q-13 0 -13 12v13q0 65 -30.5 95t-97.5 30h-506q-67 0 -97 -29.5t-30 -95.5v-335q0 -67 30 -96.5t97 -29.5h510q67 0 96.5 29.5t29.5 96.5v96h-316
q-15 0 -15 15v31q0 14 15 14h367q7 0 11.5 -4.5t4.5 -10.5v-150q0 -89 -45.5 -133.5t-138.5 -44.5h-528q-93 0 -138.5 44.5zM481 753.5q-5 2.5 -12 10.5l-105 120q-4 4 -4 8q0 8 10 8h39q9 0 13.5 -2.5t11.5 -11.5l76 -86h10l76 86q7 9 11.5 11.5t13.5 2.5h39q10 0 10 -8
q0 -4 -4 -8l-105 -120q-6 -8 -12.5 -10.5t-15.5 -2.5h-39q-8 0 -13 2.5z" />
    <glyph glyph-name="gcaron" unicode="&#x1e7;" horiz-adv-x="736" 
d="M131 -167v27q0 8 3 11.5t11 3.5h362q59 0 87 28t28 91v58h-7q-22 -31 -50.5 -44t-89.5 -13h-256q-86 0 -130 43.5t-44 127.5v166q0 85 44 128.5t130 43.5h256q61 0 89 -13t51 -43h7v38q0 14 14 14h36q14 0 14 -14v-495q0 -85 -44 -128.5t-129 -43.5h-368q-14 0 -14 14z
M594.5 82.5q27.5 27.5 27.5 85.5v162q0 59 -27.5 86.5t-83.5 27.5h-290q-56 0 -84 -27.5t-28 -86.5v-162q0 -58 28 -85.5t84 -27.5h290q56 0 83.5 27.5zM340 553.5q-5 2.5 -12 10.5l-105 120q-4 4 -4 8q0 8 10 8h39q9 0 13.5 -2.5t11.5 -11.5l76 -86h10l76 86q7 9 11.5 11.5
t13.5 2.5h39q10 0 10 -8q0 -4 -4 -8l-105 -120q-6 -8 -12.5 -10.5t-15.5 -2.5h-39q-8 0 -13 2.5z" />
    <glyph glyph-name="uni0218" unicode="&#x218;" horiz-adv-x="982" 
d="M60 155q0 15 15 15h36q8 0 11 -3.5t4 -11.5q5 -52 33.5 -75t94.5 -23h467q69 0 102 29t33 93q0 65 -35 93.5t-101 33.5l-465 30q-94 6 -144.5 50t-50.5 135q0 183 192 183h476q181 0 181 -159q0 -15 -15 -15h-36q-7 0 -10.5 3.5t-4.5 11.5q-5 51 -33.5 74.5t-94.5 23.5
h-454q-69 0 -102 -29t-33 -93q0 -65 35 -93.5t101 -33.5l465 -30q94 -6 144.5 -50t50.5 -135q0 -183 -192 -183h-489q-181 0 -181 159zM399 -252q-3 3 -3 11v28q0 7 3 10t10 3h31v127q0 7 3 10t10 3h31q8 0 11 -3t3 -10v-157q0 -25 -26 -25h-63q-7 0 -10 3z" />
    <glyph glyph-name="uni0219" unicode="&#x219;" horiz-adv-x="732" 
d="M45 119q0 11 3.5 16t13.5 5h30q9 0 12.5 -3t4.5 -11q4 -36 27.5 -52t78.5 -16h306q49 0 75.5 18t26.5 59q0 44 -23.5 62t-76.5 20l-315 13q-82 3 -121.5 35t-39.5 102q0 67 43 100t121 33h298q161 0 161 -119q0 -11 -3.5 -16t-13.5 -5h-30q-15 0 -17 14q-4 36 -27.5 52
t-78.5 16h-288q-49 0 -75 -17.5t-26 -57.5q0 -44 23.5 -62.5t75.5 -20.5l315 -13q82 -3 122 -35t40 -101q0 -68 -43.5 -101.5t-120.5 -33.5h-317q-161 0 -161 119zM295 -252q-3 3 -3 11v28q0 7 3 10t10 3h31v127q0 7 3 10t10 3h31q8 0 11 -3t3 -10v-157q0 -25 -26 -25h-63
q-7 0 -10 3z" />
    <glyph glyph-name="uni021A" unicode="&#x21a;" horiz-adv-x="961" 
d="M45 653v33q0 14 14 14h843q14 0 14 -14v-33q0 -14 -14 -14h-388v-625q0 -14 -15 -14h-37q-14 0 -14 14v625h-389q-14 0 -14 14zM411 -252q-3 3 -3 11v28q0 7 3 10t10 3h31v127q0 7 3 10t10 3h31q8 0 11 -3t3 -10v-157q0 -25 -26 -25h-63q-7 0 -10 3z" />
    <glyph glyph-name="uni021B" unicode="&#x21b;" horiz-adv-x="534" 
d="M172 43.5q-44 43.5 -44 127.5v269h-84q-14 0 -14 14v31q0 8 3 11.5t11 3.5h84v60q0 15 14 15h36q14 0 14 -15v-60h282q8 0 11.5 -3t3.5 -11v-32q0 -14 -14 -14h-283v-267q0 -58 28 -85.5t84 -27.5h169q16 0 16 -15v-30q0 -15 -15 -15h-172q-86 0 -130 43.5zM253 -252
q-3 3 -3 11v28q0 7 3 10t10 3h31v127q0 7 3 10t10 3h31q8 0 11 -3t3 -10v-157q0 -25 -26 -25h-63q-7 0 -10 3z" />
    <glyph glyph-name="uni0228" unicode="&#x228;" horiz-adv-x="926" 
d="M65 14v672q0 14 14 14h772q15 0 15 -15v-31q0 -15 -15 -15h-720v-258h710q15 0 15 -15v-32q0 -15 -15 -15h-710v-258h725q15 0 15 -15v-31q0 -15 -15 -15h-777q-14 0 -14 14zM402.5 -181q-19.5 19 -19.5 57q0 12 11 12h32q4 0 7 -2t3 -6q0 -19 11.5 -28t37.5 -9h20
q25 0 36 7.5t11 24.5t-7 24.5t-23 7.5h-71q-16 0 -27 9t-11 25q0 12 8.5 25t30.5 34h61q-35 -27 -35 -42q0 -12 24 -12h39q32 0 48.5 -15t16.5 -56q0 -40 -20.5 -57.5t-68.5 -17.5h-48q-47 0 -66.5 19z" />
    <glyph glyph-name="uni0229" unicode="&#x229;" horiz-adv-x="729" 
d="M88.5 38q-43.5 43 -43.5 127v168q0 171 173 171h293q85 0 129 -44t44 -128v-67q0 -23 -9.5 -32t-32.5 -9h-533v-56q0 -58 28 -85.5t84 -27.5h273q55 0 79 5t51 23q5 4 11 4q5 0 11 -3l23 -12q5 -2 5 -6t-5 -11q-23 -31 -59.5 -45.5t-115.5 -14.5h-97q-29 -23 -29 -37
q0 -12 24 -12h39q32 0 48.5 -15t16.5 -56q0 -40 -20.5 -57.5t-68.5 -17.5h-48q-47 0 -66.5 19t-19.5 57q0 12 11 12h32q4 0 7 -2t3 -6q0 -19 11.5 -28t37.5 -9h20q25 0 36 7.5t11 24.5t-7 24.5t-23 7.5h-71q-16 0 -27 9t-11 25q0 12 7.5 24t26.5 30h-119q-86 0 -129.5 43z
M620 276v54q0 59 -28 86.5t-85 27.5h-286q-56 0 -84 -27.5t-28 -86.5v-54h511z" />
    <glyph glyph-name="uni0237" unicode="&#x237;" horiz-adv-x="171" 
d="M-97 -178q-13 1 -13 13v33q0 10 11 10h45q56 0 83.5 28.5t27.5 89.5v490q0 14 14 14h35q15 0 15 -14v-495q0 -85 -43 -128.5t-126 -43.5q-24 0 -49 3z" />
    <glyph glyph-name="uni0259" unicode="&#x259;" horiz-adv-x="729" 
d="M88.5 39q-43.5 44 -43.5 128v67q0 23 9.5 32t32.5 9h533v56q0 58 -28.5 85.5t-84.5 27.5h-272q-55 0 -79 -5t-51 -23q-5 -4 -12 -4q-4 0 -10 3l-24 12q-4 3 -4 6q0 4 5 12q22 30 59 44.5t115 14.5h277q85 0 129 -43.5t44 -126.5v-168q0 -84 -44 -127.5t-129 -43.5h-293
q-86 0 -129.5 44zM137 82.5q28 -27.5 84 -27.5h286q57 0 85 27.5t28 86.5v54h-511v-54q0 -59 28 -86.5z" />
    <glyph glyph-name="circumflex" unicode="&#x2c6;" horiz-adv-x="410" 
d="M50 559q0 4 4 8l105 120q7 8 12 10.5t13 2.5h39q9 0 15.5 -2.5t12.5 -10.5l105 -120q4 -4 4 -8q0 -8 -10 -8h-39q-8 0 -13 2.5t-12 10.5l-76 87h-10l-76 -87q-7 -8 -11.5 -10.5t-13.5 -2.5h-39q-10 0 -10 8z" />
    <glyph glyph-name="caron" unicode="&#x2c7;" horiz-adv-x="410" 
d="M171 553.5q-5 2.5 -12 10.5l-105 120q-4 4 -4 8q0 8 10 8h39q9 0 13.5 -2.5t11.5 -11.5l76 -86h10l76 86q7 9 11.5 11.5t13.5 2.5h39q10 0 10 -8q0 -4 -4 -8l-105 -120q-6 -8 -12.5 -10.5t-15.5 -2.5h-39q-8 0 -13 2.5z" />
    <glyph glyph-name="breve" unicode="&#x2d8;" horiz-adv-x="379" 
d="M50 686q0 14 13 14h29q13 0 13 -14q2 -34 18.5 -54t49.5 -20h33q33 0 49.5 20t18.5 54q0 14 13 14h29q13 0 13 -14q0 -62 -29.5 -92t-89.5 -30h-41q-119 0 -119 122z" />
    <glyph glyph-name="dotaccent" unicode="&#x2d9;" horiz-adv-x="171" 
d="M53 632q-3 3 -3 10v44q0 8 3 11t10 3h44q14 0 14 -14v-44q0 -7 -3 -10t-11 -3h-44q-7 0 -10 3z" />
    <glyph glyph-name="ring" unicode="&#x2da;" horiz-adv-x="340" 
d="M74 562.5q-24 23.5 -24 58.5v12q0 35 24 58.5t60 23.5h72q36 0 60 -23.5t24 -58.5v-12q0 -35 -24 -58.5t-60 -23.5h-72q-36 0 -60 23.5zM235 593q11 11 11 30v8q0 19 -11 30t-31 11h-68q-20 0 -31 -11t-11 -30v-8q0 -19 11 -30t31 -11h68q20 0 31 11z" />
    <glyph glyph-name="ogonek" unicode="&#x2db;" horiz-adv-x="320" 
d="M68.5 -186q-18.5 16 -18.5 61q0 29 7.5 43t23.5 19.5t50 9.5l43 5q20 2 26 8t6 22v38h64v-47q0 -32 -10.5 -44t-38.5 -15l-88 -11q-14 -2 -19 -6.5t-5 -20.5q0 -18 8.5 -24.5t32.5 -6.5h98q10 0 10 -10v-27q0 -10 -10 -10h-108q-53 0 -71.5 16z" />
    <glyph glyph-name="tilde" unicode="&#x2dc;" horiz-adv-x="428" 
d="M248.5 607q-16.5 6 -41.5 19q-22 11 -36 16.5t-33 5.5q-15 0 -28 -4t-30 -15q-4 -3 -8 -3t-8 7l-13 29q0 3 -1 5q0 6 8 11q42 27 84 27q22 0 40 -6.5t38 -18.5q21 -11 36 -16.5t34 -5.5q16 0 29 4t30 15q5 3 8 3q4 0 7 -7l13 -29q1 -2 1 -5q0 -7 -8 -12q-43 -26 -83 -26
q-22 0 -38.5 6z" />
    <glyph glyph-name="hungarumlaut" unicode="&#x2dd;" horiz-adv-x="392" 
d="M189 552q-4 3 -4 7t3 8l69 115q6 10 10.5 14t11.5 4h50q13 0 13 -9q0 -4 -3 -9l-84 -115q-13 -18 -25 -18h-32q-5 0 -9 3zM54 552q-4 3 -4 7t3 8l69 115q6 10 10.5 14t11.5 4h50q13 0 13 -9q0 -4 -3 -9l-84 -115q-13 -18 -25 -18h-32q-5 0 -9 3z" />
    <glyph glyph-name="gravecomb" unicode="&#x300;" horiz-adv-x="0" 
d="M138 567l-84 115q-4 5 -4 9q0 9 13 9h50q8 0 12.5 -4t10.5 -14l69 -115q3 -4 3 -8t-4 -7t-9 -3h-32q-12 0 -25 18z" />
    <glyph glyph-name="acutecomb" unicode="&#x301;" horiz-adv-x="0" 
d="M54 552q-4 3 -4 7t3 8l69 115q6 10 10.5 14t11.5 4h50q13 0 13 -9q0 -4 -3 -9l-84 -115q-13 -18 -25 -18h-32q-5 0 -9 3z" />
    <glyph glyph-name="uni0302" unicode="&#x302;" horiz-adv-x="0" 
d="M50 559q0 4 4 8l105 120q7 8 12 10.5t13 2.5h39q9 0 15.5 -2.5t12.5 -10.5l105 -120q4 -4 4 -8q0 -8 -10 -8h-39q-8 0 -13 2.5t-12 10.5l-76 87h-10l-76 -87q-7 -8 -11.5 -10.5t-13.5 -2.5h-39q-10 0 -10 8z" />
    <glyph glyph-name="tildecomb" unicode="&#x303;" horiz-adv-x="0" 
d="M248.5 607q-16.5 6 -41.5 19q-22 11 -36 16.5t-33 5.5q-15 0 -28 -4t-30 -15q-4 -3 -8 -3t-8 7l-13 29q0 3 -1 5q0 6 8 11q42 27 84 27q22 0 40 -6.5t38 -18.5q21 -11 36 -16.5t34 -5.5q16 0 29 4t30 15q5 3 8 3q4 0 7 -7l13 -29q1 -2 1 -5q0 -7 -8 -12q-43 -26 -83 -26
q-22 0 -38.5 6z" />
    <glyph glyph-name="uni0304" unicode="&#x304;" horiz-adv-x="0" 
d="M50 654v31q0 15 15 15h324q15 0 15 -15v-31q0 -15 -15 -15h-324q-15 0 -15 15z" />
    <glyph glyph-name="uni0306" unicode="&#x306;" horiz-adv-x="0" 
d="M50 686q0 14 13 14h29q13 0 13 -14q2 -34 18.5 -54t49.5 -20h33q33 0 49.5 20t18.5 54q0 14 13 14h29q13 0 13 -14q0 -62 -29.5 -92t-89.5 -30h-41q-119 0 -119 122z" />
    <glyph glyph-name="uni0307" unicode="&#x307;" horiz-adv-x="0" 
d="M53 632q-3 3 -3 10v44q0 8 3 11t10 3h44q14 0 14 -14v-44q0 -7 -3 -10t-11 -3h-44q-7 0 -10 3z" />
    <glyph glyph-name="uni0308" unicode="&#x308;" horiz-adv-x="0" 
d="M286 643v44q0 7 3 10t11 3h44q8 0 10.5 -2.5t2.5 -10.5v-44q0 -8 -3 -11t-10 -3h-44q-14 0 -14 14zM53 632q-3 3 -3 11v44q0 8 3 10.5t10 2.5h44q8 0 11 -3t3 -10v-44q0 -14 -14 -14h-44q-7 0 -10 3z" />
    <glyph glyph-name="hookabovecomb" unicode="&#x309;" horiz-adv-x="0" 
d="M145 571v17q0 13 13 13h12q44 0 44 43v21q0 41 -44 41h-28q-43 0 -43 -41v-9q0 -13 -13 -13h-23q-13 0 -13 13v11q0 40 21.5 62t64.5 22h40q43 0 64.5 -22t21.5 -62v-26q0 -40 -21.5 -61.5t-64.5 -21.5h-18q-13 0 -13 13z" />
    <glyph glyph-name="uni030A" unicode="&#x30a;" horiz-adv-x="0" 
d="M74 562.5q-24 23.5 -24 58.5v12q0 35 24 58.5t60 23.5h72q36 0 60 -23.5t24 -58.5v-12q0 -35 -24 -58.5t-60 -23.5h-72q-36 0 -60 23.5zM235 593q11 11 11 30v8q0 19 -11 30t-31 11h-68q-20 0 -31 -11t-11 -30v-8q0 -19 11 -30t31 -11h68q20 0 31 11z" />
    <glyph glyph-name="uni030B" unicode="&#x30b;" horiz-adv-x="0" 
d="M189 552q-4 3 -4 7t3 8l69 115q6 10 10.5 14t11.5 4h50q13 0 13 -9q0 -4 -3 -9l-84 -115q-13 -18 -25 -18h-32q-5 0 -9 3zM54 552q-4 3 -4 7t3 8l69 115q6 10 10.5 14t11.5 4h50q13 0 13 -9q0 -4 -3 -9l-84 -115q-13 -18 -25 -18h-32q-5 0 -9 3z" />
    <glyph glyph-name="uni030C" unicode="&#x30c;" horiz-adv-x="0" 
d="M171 553.5q-5 2.5 -12 10.5l-105 120q-4 4 -4 8q0 8 10 8h39q9 0 13.5 -2.5t11.5 -11.5l76 -86h10l76 86q7 9 11.5 11.5t13.5 2.5h39q10 0 10 -8q0 -4 -4 -8l-105 -120q-6 -8 -12.5 -10.5t-15.5 -2.5h-39q-8 0 -13 2.5z" />
    <glyph glyph-name="uni031B" unicode="&#x31b;" horiz-adv-x="0" 
d="M50 601h14q44 0 44 43v35q0 13 13 13h22q14 0 14 -13v-38q0 -40 -22 -61.5t-65 -21.5h-20v43z" />
    <glyph glyph-name="dotbelowcomb" unicode="&#x323;" horiz-adv-x="0" 
d="M53 -174.5q-3 2.5 -3 10.5v58q0 7 3 10t10 3h58q8 0 10.5 -3t2.5 -10v-58q0 -8 -2.5 -10.5t-10.5 -2.5h-58q-7 0 -10 2.5z" />
    <glyph glyph-name="uni0326" unicode="&#x326;" horiz-adv-x="0" 
d="M53 -252q-3 3 -3 11v28q0 7 3 10t10 3h31v127q0 7 3 10t10 3h31q8 0 11 -3t3 -10v-157q0 -25 -26 -25h-63q-7 0 -10 3z" />
    <glyph glyph-name="uni0327" unicode="&#x327;" horiz-adv-x="0" 
d="M69.5 -181q-19.5 19 -19.5 57q0 12 11 12h32q4 0 7 -2t3 -6q0 -19 11.5 -28t37.5 -9h20q25 0 36 7.5t11 24.5t-7 24.5t-23 7.5h-71q-16 0 -27 9t-11 25q0 12 8.5 25t30.5 34h61q-35 -27 -35 -42q0 -12 24 -12h39q32 0 48.5 -15t16.5 -56q0 -40 -20.5 -57.5t-68.5 -17.5
h-48q-47 0 -66.5 19z" />
    <glyph glyph-name="uni0328" unicode="&#x328;" horiz-adv-x="0" 
d="M68.5 -186q-18.5 16 -18.5 61q0 29 7.5 43t23.5 19.5t50 9.5l43 5q20 2 26 8t6 22v38h64v-47q0 -32 -10.5 -44t-38.5 -15l-88 -11q-14 -2 -19 -6.5t-5 -20.5q0 -18 8.5 -24.5t32.5 -6.5h98q10 0 10 -10v-27q0 -10 -10 -10h-108q-53 0 -71.5 16z" />
    <glyph glyph-name="uni0394" unicode="&#x394;" horiz-adv-x="833" 
d="M43.5 3.5q-3.5 3.5 -3.5 8.5l2 8l342 693q8 16 19 16h28q11 0 19 -16l341 -693q2 -6 2 -8q0 -5 -3.5 -8.5t-9.5 -3.5h-728q-5 0 -8.5 3.5zM700 66l-283 584l-285 -584h568z" />
    <glyph glyph-name="uni03A9" unicode="&#x3a9;" horiz-adv-x="961" 
d="M60 15v36q0 15 15 15h68q-41 26 -62 61.5t-21 86.5v318q0 97 54.5 151.5t143.5 54.5h446q89 0 143 -54t54 -152v-318q0 -51 -20.5 -86.5t-61.5 -61.5h67q15 0 15 -15v-36q0 -15 -15 -15h-179q-15 0 -15 15v38q0 15 15 15h3q32 0 60.5 21t46.5 57t18 76v306
q0 72 -35.5 108t-99.5 36h-439q-64 0 -99.5 -36t-35.5 -108v-306q0 -40 18 -76t46.5 -57t60.5 -21h3q15 0 15 -15v-38q0 -15 -15 -15h-179q-15 0 -15 15z" />
    <glyph glyph-name="uni03BC" unicode="&#x3bc;" horiz-adv-x="741" 
d="M50 -186v672q0 14 14 14h36q14 0 14 -14v-316q0 -59 28 -86.5t84 -27.5h289q56 0 84 27.5t28 86.5v316q0 14 15 14h35q14 0 14 -14v-472q0 -14 -14 -14h-36q-14 0 -14 14v39h-7q-22 -31 -50.5 -44t-89.5 -13h-256q-70 0 -111 28v-210q0 -14 -14 -14h-35q-14 0 -14 14z
" />
    <glyph glyph-name="pi" unicode="&#x3c0;" horiz-adv-x="781" 
d="M40 449v36q0 15 14 15h672q15 0 15 -15v-37q0 -14 -15 -14h-45v-419q0 -15 -15 -15h-36q-15 0 -15 15v419h-450v-419q0 -15 -15 -15h-36q-15 0 -15 15v419h-44q-15 0 -15 15z" />
    <glyph glyph-name="uni0401" unicode="&#x401;" horiz-adv-x="926" 
d="M65 14v672q0 14 14 14h772q15 0 15 -15v-31q0 -15 -15 -15h-720v-258h710q15 0 15 -15v-32q0 -15 -15 -15h-710v-258h725q15 0 15 -15v-31q0 -15 -15 -15h-777q-14 0 -14 14zM544 843v44q0 7 3 10t11 3h44q8 0 10.5 -2.5t2.5 -10.5v-44q0 -8 -3 -11t-10 -3h-44
q-14 0 -14 14zM311 832q-3 3 -3 11v44q0 8 3 10.5t10 2.5h44q8 0 11 -3t3 -10v-44q0 -14 -14 -14h-44q-7 0 -10 3z" />
    <glyph glyph-name="uni0403" unicode="&#x403;" horiz-adv-x="906" 
d="M65 14v672q0 14 14 14h768q14 0 14 -14v-33q0 -14 -14 -14h-716v-625q0 -14 -14 -14h-38q-14 0 -14 14zM433 752q-4 3 -4 7t3 8l69 115q6 10 10.5 14t11.5 4h50q13 0 13 -9q0 -4 -3 -9l-84 -115q-13 -18 -25 -18h-32q-5 0 -9 3z" />
    <glyph glyph-name="uni0404" unicode="&#x404;" horiz-adv-x="1011" 
d="M105.5 40.5q-45.5 44.5 -45.5 133.5v352q0 89 45.5 133.5t138.5 44.5h529q93 0 138 -44t45 -134v-21q0 -12 -11 -12h-43q-13 0 -13 12v13q0 65 -30.5 95t-97.5 30h-508q-67 0 -97 -29.5t-30 -95.5v-138h262q14 0 14 -14v-32q0 -14 -14 -14h-262v-137q0 -67 30 -96.5
t97 -29.5h508q67 0 97.5 26.5t30.5 82.5v6q0 12 12 12h44q11 0 11 -12v-14q0 -162 -183 -162h-529q-93 0 -138.5 44.5z" />
    <glyph glyph-name="uni0406" unicode="&#x406;" horiz-adv-x="196" 
d="M65 14v672q0 14 14 14h38q14 0 14 -14v-672q0 -14 -14 -14h-38q-14 0 -14 14z" />
    <glyph glyph-name="uni0407" unicode="&#x407;" horiz-adv-x="196" 
d="M65 14v672q0 14 14 14h38q14 0 14 -14v-672q0 -14 -14 -14h-38q-14 0 -14 14zM169 843v44q0 7 3 10t11 3h44q8 0 10.5 -2.5t2.5 -10.5v-44q0 -8 -3 -11t-10 -3h-44q-14 0 -14 14zM-64 832q-3 3 -3 11v44q0 8 3 10.5t10 2.5h44q8 0 11 -3t3 -10v-44q0 -14 -14 -14h-44
q-7 0 -10 3z" />
    <glyph glyph-name="uni0408" unicode="&#x408;" horiz-adv-x="966" 
d="M55 14v33q0 14 14 14h640q67 0 96.5 29.5t29.5 96.5v499q0 14 14 14h38q14 0 14 -14v-508q0 -89 -45.5 -133.5t-138.5 -44.5h-648q-14 0 -14 14z" />
    <glyph glyph-name="uni040C" unicode="&#x40c;" horiz-adv-x="955" 
d="M65 14v672q0 14 14 14h38q14 0 14 -14v-395l669 398q15 11 29 11h59q11 0 11 -10q0 -5 -6 -10l-479 -287l500 -373q6 -4 6 -10q0 -10 -13 -10h-54q-8 0 -16.5 4t-16.5 10l-461 346l-228 -136v-210q0 -14 -14 -14h-38q-14 0 -14 14zM429 752q-4 3 -4 7t3 8l69 115
q6 10 10.5 14t11.5 4h50q13 0 13 -9q0 -4 -3 -9l-84 -115q-13 -18 -25 -18h-32q-5 0 -9 3z" />
    <glyph glyph-name="uni040D" unicode="&#x40d;" horiz-adv-x="973" 
d="M842 14v616h-7l-671 -620q-4 -4 -8.5 -7t-9.5 -3h-67q-14 0 -14 14v672q0 14 14 14h38q14 0 14 -14v-616h7l671 620q4 4 8.5 7t9.5 3h67q14 0 14 -14v-672q0 -14 -14 -14h-38q-14 0 -14 14zM435 767l-84 115q-4 5 -4 9q0 9 13 9h50q8 0 12.5 -4t10.5 -14l69 -115
q3 -4 3 -8t-4 -7t-9 -3h-32q-12 0 -25 18z" />
    <glyph glyph-name="uni040E" unicode="&#x40e;" horiz-adv-x="855" 
d="M216 4.5q-2 4.5 3 9.5l171 222l-347 450q-3 3 -3 7q0 7 9 7h47q8 0 12.5 -3.5t12.5 -13.5l306 -398l307 398q8 10 12.5 13.5t12.5 3.5h47q7 0 9 -4.5t-3 -9.5l-515 -669q-8 -10 -12.5 -13.5t-12.5 -3.5h-47q-7 0 -9 4.5zM297 886q0 14 13 14h29q13 0 13 -14
q2 -34 18.5 -54t49.5 -20h33q33 0 49.5 20t18.5 54q0 14 13 14h29q13 0 13 -14q0 -62 -29.5 -92t-89.5 -30h-41q-119 0 -119 122z" />
    <glyph glyph-name="uni0410" unicode="&#x410;" horiz-adv-x="1054" 
d="M564 696.5q4 -3.5 9 -12.5l438 -668q3 -4 3 -8q0 -8 -12 -8h-46q-8 0 -12 3.5t-10 12.5l-78 120h-658l-78 -120q-6 -9 -10 -12.5t-11 -3.5h-46q-5 0 -9 2t-4 6t3 8l438 668q5 9 9 12.5t11 3.5h53q6 0 10 -3.5zM817 195l-285 436h-10l-285 -436h580z" />
    <glyph glyph-name="uni0411" unicode="&#x411;" horiz-adv-x="942" 
d="M65 14v672q0 14 14 14h467q14 0 14 -14v-31q0 -14 -14 -14h-415v-143h572q93 0 138.5 -44t45.5 -134v-142q0 -90 -45.5 -134t-138.5 -44h-624q-14 0 -14 14zM694 61q67 0 97 29.5t30 96.5v125q0 66 -30 95.5t-97 29.5h-563v-376h563z" />
    <glyph glyph-name="uni0412" unicode="&#x412;" horiz-adv-x="958" 
d="M65 15v670q0 15 15 15h625q89 0 130.5 -42t41.5 -133v-21q0 -49 -15 -82t-48 -51v-9q44 -17 66.5 -54t22.5 -100v-27q0 -97 -50 -139t-150 -42h-623q-15 0 -15 15zM701 61q71 0 103.5 25t32.5 96v25q0 73 -32.5 99t-103.5 26h-570v-271h570zM700 388q58 0 84.5 26.5
t26.5 88.5v20q0 65 -26 90.5t-86 25.5h-568v-251h569z" />
    <glyph glyph-name="uni0413" unicode="&#x413;" horiz-adv-x="906" 
d="M65 14v672q0 14 14 14h768q14 0 14 -14v-33q0 -14 -14 -14h-716v-625q0 -14 -14 -14h-38q-14 0 -14 14z" />
    <glyph glyph-name="uni0414" unicode="&#x414;" horiz-adv-x="1043" 
d="M86 -84q0 -8 -2.5 -10.5t-10.5 -2.5h-40q-7 0 -10 2.5t-3 10.5v130q0 15 15 15h17q34 0 59 54t25 176v394q0 15 15 15h806q15 0 15 -15v-624h36q15 0 15 -15v-130q0 -8 -2.5 -10.5t-10.5 -2.5h-40q-7 0 -10 2.5t-3 10.5v84h-871v-84zM906 61v578h-704v-348
q0 -92 -13 -147.5t-39 -82.5h756z" />
    <glyph glyph-name="uni0415" unicode="&#x415;" horiz-adv-x="926" 
d="M65 14v672q0 14 14 14h772q15 0 15 -15v-31q0 -15 -15 -15h-720v-258h710q15 0 15 -15v-32q0 -15 -15 -15h-710v-258h725q15 0 15 -15v-31q0 -15 -15 -15h-777q-14 0 -14 14z" />
    <glyph glyph-name="uni0416" unicode="&#x416;" horiz-adv-x="1713" 
d="M823 14v210l-227 136l-461 -346q-8 -6 -16.5 -10t-16.5 -4h-54q-13 0 -13 10q0 6 6 10l500 373l-479 287q-6 5 -6 10q0 10 11 10h59q14 0 29 -11l668 -397v394q0 14 14 14h39q14 0 14 -14v-394l668 397q15 11 29 11h59q11 0 11 -10q0 -5 -6 -10l-479 -287l500 -373
q6 -4 6 -10q0 -10 -13 -10h-54q-8 0 -16.5 4t-16.5 10l-461 346l-227 -136v-210q0 -14 -14 -14h-39q-14 0 -14 14z" />
    <glyph glyph-name="uni0417" unicode="&#x417;" horiz-adv-x="927" 
d="M98 39.5q-53 44.5 -53 136.5v15q0 12 12 12h40q12 0 12 -12q0 -73 34 -104.5t106 -31.5h432q70 0 103.5 33t33.5 99q0 80 -43 114.5t-121 34.5h-438q-12 0 -12 12v34q0 12 12 12h438q74 0 111 30t37 94q0 65 -32 96t-102 31h-411q-72 0 -106 -31.5t-34 -104.5
q0 -12 -12 -12h-40q-12 0 -12 12v15q0 92 53 136.5t149 44.5h415q196 0 196 -187q0 -67 -26 -99.5t-84 -49.5v-8q62 -15 94 -52.5t32 -121.5q0 -94 -50 -143t-148 -49h-437q-96 0 -149 44.5z" />
    <glyph glyph-name="uni0418" unicode="&#x418;" horiz-adv-x="973" 
d="M842 14v616h-7l-671 -620q-4 -4 -8.5 -7t-9.5 -3h-67q-14 0 -14 14v672q0 14 14 14h38q14 0 14 -14v-616h7l671 620q4 4 8.5 7t9.5 3h67q14 0 14 -14v-672q0 -14 -14 -14h-38q-14 0 -14 14z" />
    <glyph glyph-name="uni0419" unicode="&#x419;" horiz-adv-x="973" 
d="M842 14v616h-7l-671 -620q-4 -4 -8.5 -7t-9.5 -3h-67q-14 0 -14 14v672q0 14 14 14h38q14 0 14 -14v-616h7l671 620q4 4 8.5 7t9.5 3h67q14 0 14 -14v-672q0 -14 -14 -14h-38q-14 0 -14 14zM334 886q0 14 13 14h29q13 0 13 -14q2 -34 18.5 -54t49.5 -20h33q33 0 49.5 20
t18.5 54q0 14 13 14h29q13 0 13 -14q0 -62 -29.5 -92t-89.5 -30h-41q-119 0 -119 122z" />
    <glyph glyph-name="uni041A" unicode="&#x41a;" horiz-adv-x="955" 
d="M65 14v672q0 14 14 14h38q14 0 14 -14v-395l669 398q15 11 29 11h59q11 0 11 -10q0 -5 -6 -10l-479 -287l500 -373q6 -4 6 -10q0 -10 -13 -10h-54q-8 0 -16.5 4t-16.5 10l-461 346l-228 -136v-210q0 -14 -14 -14h-38q-14 0 -14 14z" />
    <glyph glyph-name="uni041B" unicode="&#x41b;" horiz-adv-x="1066" 
d="M58 -1q-3 3 -3 11v40q0 12 13 12q31 0 51.5 17.5t20.5 58.5v547q0 15 15 15h831q15 0 15 -15v-672q0 -7 -2.5 -10t-10.5 -3h-40q-7 0 -10 3t-3 10v626h-729v-514q0 -66 -34 -97.5t-84 -31.5h-20q-7 0 -10 3z" />
    <glyph glyph-name="uni041C" unicode="&#x41c;" horiz-adv-x="1121" 
d="M65 14v672q0 14 14 14h75q7 0 11 -3.5t9 -11.5l382 -615h9l382 615q5 8 9 11.5t11 3.5h74q15 0 15 -14v-672q0 -14 -15 -14h-38q-14 0 -14 14v610h-8l-379 -610q-5 -8 -9 -11t-10 -3h-45q-7 0 -11 3t-9 11l-379 610h-8v-610q0 -14 -14 -14h-38q-14 0 -14 14z" />
    <glyph glyph-name="uni041D" unicode="&#x41d;" horiz-adv-x="963" 
d="M65 14v672q0 14 14 14h38q14 0 14 -14v-305h701v305q0 14 14 14h38q14 0 14 -14v-672q0 -14 -14 -14h-38q-14 0 -14 14v305h-701v-305q0 -14 -14 -14h-38q-14 0 -14 14z" />
    <glyph glyph-name="uni041E" unicode="&#x41e;" 
d="M105.5 40.5q-45.5 44.5 -45.5 133.5v352q0 89 45.5 133.5t138.5 44.5h527q185 0 185 -178v-352q0 -178 -185 -178h-527q-93 0 -138.5 44.5zM859.5 86.5q29.5 29.5 29.5 96.5v335q0 66 -29.5 95.5t-96.5 29.5h-510q-67 0 -97 -29.5t-30 -95.5v-335q0 -67 30 -96.5
t97 -29.5h510q67 0 96.5 29.5z" />
    <glyph glyph-name="uni041F" unicode="&#x41f;" horiz-adv-x="991" 
d="M68 3q-3 3 -3 10v672q0 15 15 15h831q15 0 15 -15v-672q0 -7 -2.5 -10t-10.5 -3h-40q-7 0 -10 3t-3 10v626h-729v-626q0 -7 -2.5 -10t-10.5 -3h-40q-7 0 -10 3z" />
    <glyph glyph-name="uni0420" unicode="&#x420;" horiz-adv-x="947" 
d="M65 14v672q0 14 14 14h624q93 0 138.5 -44t45.5 -134v-172q0 -90 -45 -134t-139 -44h-572v-158q0 -14 -14 -14h-38q-14 0 -14 14zM694 233q67 0 97 29.5t30 95.5v156q0 66 -30 95.5t-97 29.5h-563v-406h563z" />
    <glyph glyph-name="uni0421" unicode="&#x421;" horiz-adv-x="1011" 
d="M105.5 40.5q-45.5 44.5 -45.5 133.5v352q0 89 45.5 133.5t138.5 44.5h529q93 0 138 -44t45 -134v-21q0 -12 -11 -12h-43q-13 0 -13 12v13q0 65 -30.5 95t-97.5 30h-508q-67 0 -97 -29.5t-30 -95.5v-335q0 -67 30 -96.5t97 -29.5h508q67 0 97.5 26.5t30.5 82.5v6
q0 12 12 12h44q11 0 11 -12v-14q0 -162 -183 -162h-529q-93 0 -138.5 44.5z" />
    <glyph glyph-name="uni0422" unicode="&#x422;" horiz-adv-x="961" 
d="M45 653v33q0 14 14 14h843q14 0 14 -14v-33q0 -14 -14 -14h-388v-625q0 -14 -15 -14h-37q-14 0 -14 14v625h-389q-14 0 -14 14z" />
    <glyph glyph-name="uni0423" unicode="&#x423;" horiz-adv-x="855" 
d="M216 4.5q-2 4.5 3 9.5l171 222l-347 450q-3 3 -3 7q0 7 9 7h47q8 0 12.5 -3.5t12.5 -13.5l306 -398l307 398q8 10 12.5 13.5t12.5 3.5h47q7 0 9 -4.5t-3 -9.5l-515 -669q-8 -10 -12.5 -13.5t-12.5 -3.5h-47q-7 0 -9 4.5z" />
    <glyph glyph-name="uni0424" unicode="&#x424;" 
d="M105.5 140.5q-45.5 44.5 -45.5 133.5v152q0 89 45.5 133.5t138.5 44.5h231v82q0 14 14 14h38q14 0 14 -14v-82h230q185 0 185 -178v-152q0 -178 -185 -178h-230v-82q0 -14 -14 -14h-38q-14 0 -14 14v82h-231q-93 0 -138.5 44.5zM859.5 186.5q29.5 29.5 29.5 96.5v135
q0 66 -29.5 95.5t-96.5 29.5h-222v-386h222q67 0 96.5 29.5zM156 186.5q30 -29.5 97 -29.5h222v386h-222q-67 0 -97 -29.5t-30 -95.5v-135q0 -67 30 -96.5z" />
    <glyph glyph-name="uni0425" unicode="&#x425;" horiz-adv-x="914" 
d="M40 5q0 4 5 9l394 336l-394 336q-5 5 -5 9q0 5 7 5h66q8 0 13.5 -3t14.5 -12l346 -295l345 295q9 9 14.5 12t13.5 3h66q8 0 8 -5q0 -4 -6 -9l-394 -336l394 -336q6 -4 6 -9t-8 -5h-66q-8 0 -13.5 3t-14.5 12l-345 295l-346 -295q-9 -9 -14.5 -12t-13.5 -3h-66q-7 0 -7 5z
" />
    <glyph glyph-name="uni0426" unicode="&#x426;" horiz-adv-x="1007" 
d="M65 15v672q0 8 3 10.5t10 2.5h40q8 0 10.5 -2.5t2.5 -10.5v-626h729v626q0 8 3 10.5t10 2.5h40q8 0 10.5 -2.5t2.5 -10.5v-626h36q15 0 15 -15v-130q0 -8 -2.5 -10.5t-10.5 -2.5h-40q-7 0 -10 2.5t-3 10.5v84h-831q-15 0 -15 15z" />
    <glyph glyph-name="uni0427" unicode="&#x427;" horiz-adv-x="1011" 
d="M110.5 196q-45.5 44 -45.5 134v356q0 14 14 14h38q14 0 14 -14v-348q0 -66 30 -95.5t97 -29.5h495q68 0 97.5 29t29.5 96v348q0 14 14 14h38q14 0 14 -14v-672q0 -14 -14 -14h-38q-14 0 -14 14v192q-40 -54 -140 -54h-491q-93 0 -138.5 44z" />
    <glyph glyph-name="uni0428" unicode="&#x428;" horiz-adv-x="1236" 
d="M65 15v672q0 8 3 10.5t10 2.5h40q8 0 10.5 -2.5t2.5 -10.5v-626h454v626q0 8 3 10.5t10 2.5h40q8 0 10.5 -2.5t2.5 -10.5v-626h454v626q0 8 3 10.5t10 2.5h40q8 0 10.5 -2.5t2.5 -10.5v-672q0 -15 -15 -15h-1076q-15 0 -15 15z" />
    <glyph glyph-name="uni0429" unicode="&#x429;" horiz-adv-x="1252" 
d="M1159 -94.5q-3 2.5 -3 10.5v84h-1076q-15 0 -15 15v672q0 8 3 10.5t10 2.5h40q8 0 10.5 -2.5t2.5 -10.5v-626h454v626q0 8 3 10.5t10 2.5h40q8 0 10.5 -2.5t2.5 -10.5v-626h454v626q0 8 3 10.5t10 2.5h40q8 0 10.5 -2.5t2.5 -10.5v-626h36q15 0 15 -15v-130
q0 -8 -2.5 -10.5t-10.5 -2.5h-40q-7 0 -10 2.5z" />
    <glyph glyph-name="uni042A" unicode="&#x42a;" horiz-adv-x="1046" 
d="M30 651v35q0 14 14 14h172q14 0 14 -14v-158h572q94 0 139 -44t45 -134v-172q0 -90 -45.5 -134t-138.5 -44h-624q-14 0 -14 14v623h-120q-14 0 -14 14zM793 61q67 0 97 29.5t30 95.5v156q0 66 -30 95.5t-97 29.5h-563v-406h563z" />
    <glyph glyph-name="uni042B" unicode="&#x42b;" horiz-adv-x="1143" 
d="M842 484q45 -44 45 -134v-172q0 -90 -45.5 -134t-138.5 -44h-624q-14 0 -14 14v672q0 14 14 14h38q14 0 14 -14v-158h572q94 0 139 -44zM694 61q67 0 97 29.5t30 95.5v156q0 66 -30 95.5t-97 29.5h-563v-406h563zM1012 14v672q0 14 14 14h38q14 0 14 -14v-672
q0 -14 -14 -14h-38q-14 0 -14 14z" />
    <glyph glyph-name="uni042C" unicode="&#x42c;" horiz-adv-x="947" 
d="M842 484q45 -44 45 -134v-172q0 -90 -45.5 -134t-138.5 -44h-624q-14 0 -14 14v672q0 14 14 14h38q14 0 14 -14v-158h572q94 0 139 -44zM694 61q67 0 97 29.5t30 95.5v156q0 66 -30 95.5t-97 29.5h-563v-406h563z" />
    <glyph glyph-name="uni042D" unicode="&#x42d;" horiz-adv-x="1011" 
d="M609 334v32q0 14 14 14h262v138q0 66 -30 95.5t-97 29.5h-508q-67 0 -97.5 -30t-30.5 -95v-13q0 -12 -13 -12h-43q-11 0 -11 12v21q0 90 45 134t138 44h529q93 0 138.5 -44.5t45.5 -133.5v-352q0 -89 -45.5 -133.5t-138.5 -44.5h-529q-183 0 -183 162v14q0 12 11 12h44
q12 0 12 -12v-6q0 -56 30.5 -82.5t97.5 -26.5h508q67 0 97 29.5t30 96.5v137h-262q-14 0 -14 14z" />
    <glyph glyph-name="uni042E" unicode="&#x42e;" horiz-adv-x="1222" 
d="M65 14v672q0 14 14 14h38q14 0 14 -14v-298h135v138q0 89 45.5 133.5t138.5 44.5h527q185 0 185 -178v-352q0 -178 -185 -178h-527q-93 0 -138.5 44.5t-45.5 133.5v154h-135v-314q0 -14 -14 -14h-38q-14 0 -14 14zM1065.5 86.5q29.5 29.5 29.5 96.5v335q0 66 -29.5 95.5
t-96.5 29.5h-510q-67 0 -97 -29.5t-30 -95.5v-335q0 -67 30 -96.5t97 -29.5h510q67 0 96.5 29.5z" />
    <glyph glyph-name="uni042F" unicode="&#x42f;" horiz-adv-x="953" 
d="M822 14v189h-563l-127 -192q-7 -11 -18 -11h-39q-6 0 -10.5 3t-4.5 8q0 4 3 8l126 190q-123 25 -123 172v141q0 89 45.5 133.5t138.5 44.5h624q14 0 14 -14v-672q0 -14 -14 -14h-38q-14 0 -14 14zM161.5 293q29.5 -29 96.5 -29h564v375h-564q-67 0 -96.5 -29.5
t-29.5 -95.5v-125q0 -67 29.5 -96z" />
    <glyph glyph-name="uni0430" unicode="&#x430;" horiz-adv-x="722" 
d="M69.5 32.5q-39.5 37.5 -39.5 111.5t38 108t111 34h429v32q0 48 -12 75t-42 40t-86 13h-238q-55 0 -78.5 -15.5t-28.5 -51.5q-1 -7 -4.5 -10t-11.5 -3h-31q-9 0 -13 4.5t-4 16.5q0 57 38.5 87t122.5 30h259q105 0 149 -43t44 -138v-309q0 -14 -14 -14h-36q-14 0 -14 14v57
h-6q-26 -34 -66.5 -55t-97.5 -21h-257q-72 0 -111.5 37.5zM569 86q39 31 39 79v68h-426q-44 0 -66 -19.5t-22 -68.5q0 -48 22 -69t66 -21h288q60 0 99 31z" />
    <glyph glyph-name="uni0431" unicode="&#x431;" horiz-adv-x="736" 
d="M171.5 8q-28.5 13 -50.5 44h-7v-38q0 -14 -14 -14h-36q-14 0 -14 14v534q0 43 9.5 71t37 44t79.5 16q23 0 47.5 -1.5t46.5 -3.5q43 -5 82 -5q31 0 45.5 5t24.5 19q3 4 5.5 5.5t7.5 1.5h41q6 0 8.5 -3t2.5 -9q0 -37 -33.5 -56t-90.5 -19q-35 0 -78 5q-75 5 -103 5
q-38 0 -53 -19t-15 -58v-98h7q23 30 51 43t89 13h257q85 0 129 -43.5t44 -128.5v-166q0 -84 -44 -127.5t-129 -43.5h-257q-61 0 -89.5 13zM599 82.5q28 27.5 28 85.5v162q0 59 -28 86.5t-84 27.5h-290q-56 0 -83.5 -27.5t-27.5 -86.5v-162q0 -58 27.5 -85.5t83.5 -27.5h290
q56 0 84 27.5z" />
    <glyph glyph-name="uni0432" unicode="&#x432;" horiz-adv-x="701" 
d="M50 15v470q0 15 15 15h439q138 0 138 -138q0 -31 -11.5 -58t-45.5 -43v-8q71 -26 71 -115q0 -76 -36.5 -107t-111.5 -31h-443q-15 0 -15 15zM571 74.5q22 16.5 22 65.5q0 90 -78 90l-401 1v-173h392q43 0 65 16.5zM564 304.5q15 22.5 15 56.5q0 81 -78 81h-387v-160h400
q35 0 50 22.5z" />
    <glyph glyph-name="uni0433" unicode="&#x433;" horiz-adv-x="671" 
d="M50 14v472q0 14 14 14h553q14 0 14 -14v-30q0 -14 -14 -14h-503v-428q0 -14 -14 -14h-36q-14 0 -14 14z" />
    <glyph glyph-name="uni0434" unicode="&#x434;" horiz-adv-x="872" 
d="M94 -62q0 -12 -12 -12h-40q-12 0 -12 12v105q0 15 15 15h12q40 0 67 42.5t27 132.5v252q0 15 15 15h607q15 0 15 -15v-427h39q15 0 15 -15v-105q0 -12 -12 -12h-40q-12 0 -12 12v62h-684v-62zM724 58v384h-509v-212q0 -116 -53 -172h562z" />
    <glyph glyph-name="uni0435" unicode="&#x435;" horiz-adv-x="729" 
d="M88.5 38q-43.5 43 -43.5 127v168q0 171 173 171h293q85 0 129 -44t44 -128v-67q0 -23 -9.5 -32t-32.5 -9h-533v-56q0 -58 28 -85.5t84 -27.5h273q55 0 79 5t51 23q5 4 11 4q5 0 11 -3l23 -12q5 -2 5 -6t-5 -11q-23 -31 -59.5 -45.5t-115.5 -14.5h-276q-86 0 -129.5 43z
M620 276v54q0 59 -28 86.5t-85 27.5h-286q-56 0 -84 -27.5t-28 -86.5v-54h511z" />
    <glyph glyph-name="uni0436" unicode="&#x436;" horiz-adv-x="987" 
d="M32.5 2q-2.5 2 -2.5 5q0 5 5 8l387 235l-371 231q-8 6 -8 11q0 8 9 8h59q9 0 21 -7l330 -205v198q0 14 14 14h35q15 0 15 -14v-198l329 205q14 7 21 7h59q9 0 9 -8q0 -5 -8 -11l-370 -231l386 -235q5 -3 5 -8q0 -3 -2.5 -5t-7.5 -2h-62q-8 0 -16.5 4t-17.5 9l-325 199
v-198q0 -14 -15 -14h-35q-14 0 -14 14v198l-326 -199q-9 -5 -17.5 -9t-15.5 -4h-63q-5 0 -7.5 2z" />
    <glyph glyph-name="uni0437" unicode="&#x437;" horiz-adv-x="728" 
d="M83.5 27q-38.5 33 -38.5 99q0 11 11 11h44q11 0 11 -11q0 -32 21 -52t63 -20h329q93 0 93 81q0 43 -15.5 67t-56.5 24h-340q-5 0 -7.5 2t-2.5 8v33q0 6 2.5 8t7.5 2h340q41 0 54.5 20.5t13.5 63.5q0 40 -22.5 61t-66.5 21h-329q-41 0 -62.5 -22.5t-21.5 -56.5
q0 -11 -11 -11h-44q-11 0 -11 11q0 67 38.5 103t108.5 36h334q70 0 111 -37t41 -103q0 -44 -11 -69t-48 -39v-8q38 -14 51 -43.5t13 -71.5q0 -71 -42 -105.5t-115 -34.5h-334q-70 0 -108.5 33z" />
    <glyph glyph-name="uni0438" unicode="&#x438;" horiz-adv-x="736" 
d="M50 14v472q0 14 14 14h38q14 0 14 -14v-423h6l467 426q6 6 10 8.5t10 2.5h63q14 0 14 -14v-472q0 -14 -14 -14h-38q-14 0 -14 14v423h-6l-467 -426q-6 -6 -10 -8.5t-10 -2.5h-63q-14 0 -14 14z" />
    <glyph glyph-name="uni0439" unicode="&#x439;" horiz-adv-x="736" 
d="M50 14v472q0 14 14 14h38q14 0 14 -14v-423h6l467 426q6 6 10 8.5t10 2.5h63q14 0 14 -14v-472q0 -14 -14 -14h-38q-14 0 -14 14v423h-6l-467 -426q-6 -6 -10 -8.5t-10 -2.5h-63q-14 0 -14 14zM229 686q0 14 13 14h29q13 0 13 -14q2 -34 18.5 -54t49.5 -20h33
q33 0 49.5 20t18.5 54q0 14 13 14h29q13 0 13 -14q0 -62 -29.5 -92t-89.5 -30h-41q-119 0 -119 122z" />
    <glyph glyph-name="uni043A" unicode="&#x43a;" horiz-adv-x="576" 
d="M50 14v472q0 14 14 14h36q14 0 14 -14v-198l330 205q12 7 21 7h59q8 0 8 -7q0 -6 -7 -12l-371 -231l386 -235q6 -3 6 -8q0 -7 -11 -7h-62q-8 0 -16.5 4t-16.5 9l-326 199v-198q0 -14 -14 -14h-36q-14 0 -14 14z" />
    <glyph glyph-name="uni043B" unicode="&#x43b;" horiz-adv-x="781" 
d="M9 -5.5q-9 4.5 -9 14.5v24q0 8 4 11.5t14 3.5q36 0 50.5 16t14.5 58v366q0 12 12 12h624q12 0 12 -12v-476q0 -12 -12 -12h-40q-12 0 -12 12v430h-520v-326q0 -65 -24.5 -95.5t-82.5 -30.5q-22 0 -31 4.5z" />
    <glyph glyph-name="uni043C" unicode="&#x43c;" horiz-adv-x="860" 
d="M50 14v472q0 14 14 14h54q11 0 21 -13l291 -387l291 387q10 13 21 13h54q14 0 14 -14v-472q0 -14 -14 -14h-36q-14 0 -14 14v407h-8l-274 -371q-5 -7 -8.5 -9t-10.5 -2h-30q-6 0 -9.5 2.5t-8.5 8.5l-275 371h-8v-407q0 -14 -14 -14h-36q-14 0 -14 14z" />
    <glyph glyph-name="uni043D" unicode="&#x43d;" horiz-adv-x="722" 
d="M50 14v472q0 14 14 14h36q14 0 14 -14v-204h494v204q0 14 14 14h36q14 0 14 -14v-472q0 -14 -14 -14h-36q-14 0 -14 14v207h-494v-207q0 -14 -14 -14h-36q-14 0 -14 14z" />
    <glyph glyph-name="uni043E" unicode="&#x43e;" horiz-adv-x="731" 
d="M88.5 38q-43.5 43 -43.5 127v168q0 171 173 171h295q173 0 173 -171v-168q0 -84 -43.5 -127t-129.5 -43h-295q-86 0 -129.5 43zM594 82.5q28 27.5 28 85.5v162q0 59 -28 86.5t-84 27.5h-289q-56 0 -84 -27.5t-28 -86.5v-162q0 -58 28 -85.5t84 -27.5h289q56 0 84 27.5z
" />
    <glyph glyph-name="uni043F" unicode="&#x43f;" horiz-adv-x="771" 
d="M50 14v472q0 14 14 14h643q14 0 14 -14v-472q0 -14 -14 -14h-36q-14 0 -14 14v426h-543v-426q0 -14 -14 -14h-36q-14 0 -14 14z" />
    <glyph glyph-name="uni0440" unicode="&#x440;" horiz-adv-x="736" 
d="M50 -163v649q0 14 14 14h35q15 0 15 -14v-38h7q23 30 51 43t89 13h256q86 0 130 -43.5t44 -127.5v-166q0 -85 -44 -128.5t-130 -43.5h-256q-61 0 -89.5 13t-50.5 44h-7v-215q0 -14 -14 -14h-36q-14 0 -14 14zM599 82.5q28 27.5 28 86.5v162q0 58 -28 85.5t-84 27.5h-290
q-56 0 -83.5 -27.5t-27.5 -85.5v-162q0 -59 27.5 -86.5t83.5 -27.5h290q56 0 84 27.5z" />
    <glyph glyph-name="uni0441" unicode="&#x441;" horiz-adv-x="721" 
d="M88.5 38q-43.5 43 -43.5 127v168q0 171 173 171h299q164 0 164 -141v-24q0 -13 -14 -13h-35q-15 0 -15 11v23q0 84 -107 84h-289q-56 0 -84 -27.5t-28 -86.5v-162q0 -58 28 -85.5t84 -27.5h273q55 0 79 5t51 23q5 4 11 4q5 0 11 -3l23 -12q5 -2 5 -6t-5 -11
q-23 -31 -59.5 -45.5t-115.5 -14.5h-276q-86 0 -129.5 43z" />
    <glyph glyph-name="uni0442" unicode="&#x442;" horiz-adv-x="721" 
d="M40 454v32q0 14 14 14h613q14 0 14 -14v-32q0 -14 -14 -14h-274v-426q0 -14 -14 -14h-35q-14 0 -14 14v426h-276q-14 0 -14 14z" />
    <glyph glyph-name="uni0443" unicode="&#x443;" horiz-adv-x="765" 
d="M228 -172q0 3 3 8l115 174l-308 473q-3 5 -3 9q0 8 12 8h45q7 0 11.5 -4t9.5 -13l264 -409h11l264 409q5 9 9.5 13t11.5 4h45q12 0 12 -8q0 -4 -3 -9l-421 -647q-5 -9 -9.5 -13t-11.5 -4h-46q-11 0 -11 9z" />
    <glyph glyph-name="uni0444" unicode="&#x444;" horiz-adv-x="1309" 
d="M89 38.5q-44 43.5 -44 127.5v166q0 85 44 128.5t130 43.5h256q61 0 89 -13t51 -43h7v238q0 14 14 14h36q14 0 14 -14v-193q1 -2 1 -7v-38h7q23 30 51 43t89 13h256q86 0 130 -43.5t44 -127.5v-166q0 -85 -44 -128.5t-130 -43.5h-256q-61 0 -89.5 13t-50.5 44h-7v-215
q0 -14 -14 -14h-36q-14 0 -14 14v170q-1 2 -1 7v38h-7q-22 -31 -50.5 -44t-89.5 -13h-256q-86 0 -130 43.5zM594.5 82.5q27.5 27.5 27.5 85.5v162q0 59 -27.5 86.5t-83.5 27.5h-290q-56 0 -84 -27.5t-28 -86.5v-162q0 -58 28 -85.5t84 -27.5h290q56 0 83.5 27.5zM1172 82.5
q28 27.5 28 86.5v162q0 58 -28 85.5t-84 27.5h-290q-56 0 -83.5 -27.5t-27.5 -85.5v-162q0 -59 27.5 -86.5t83.5 -27.5h290q56 0 84 27.5z" />
    <glyph glyph-name="uni0445" unicode="&#x445;" horiz-adv-x="700" 
d="M35 8q0 5 6 11l265 231l-265 231q-6 6 -6 11q0 8 11 8h50q10 0 31 -18l223 -194l223 194q21 18 31 18h50q11 0 11 -8q0 -5 -6 -11l-265 -231l265 -231q6 -6 6 -11q0 -8 -12 -8h-50q-10 0 -31 18l-222 194l-222 -194q-21 -18 -31 -18h-50q-12 0 -12 8z" />
    <glyph glyph-name="uni0446" unicode="&#x446;" horiz-adv-x="796" 
d="M65 15v470q0 15 15 15h34q15 0 15 -15v-425h493v425q0 15 15 15h34q15 0 15 -15v-425h55q15 0 15 -15v-148q0 -15 -15 -15h-34q-15 0 -15 15v103h-612q-15 0 -15 15z" />
    <glyph glyph-name="uni0447" unicode="&#x447;" horiz-adv-x="751" 
d="M637 14v139q-41 -57 -120 -57h-293q-86 0 -130 43.5t-44 127.5v219q0 14 14 14h36q14 0 14 -14v-217q0 -58 28 -85.5t84 -27.5h295q116 0 116 113v217q0 14 14 14h36q14 0 14 -14v-472q0 -14 -14 -14h-36q-14 0 -14 14z" />
    <glyph glyph-name="uni0448" unicode="&#x448;" horiz-adv-x="1064" 
d="M65 15v470q0 15 15 15h34q15 0 15 -15v-425h371v425q0 15 15 15h34q15 0 15 -15v-425h371v425q0 15 15 15h34q15 0 15 -15v-470q0 -15 -15 -15h-904q-15 0 -15 15z" />
    <glyph glyph-name="uni0449" unicode="&#x449;" horiz-adv-x="1109" 
d="M1006 -103v103h-926q-15 0 -15 15v470q0 15 15 15h34q15 0 15 -15v-425h371v425q0 15 15 15h34q15 0 15 -15v-425h371v425q0 15 15 15h34q15 0 15 -15v-425h55q15 0 15 -15v-148q0 -15 -15 -15h-33q-15 0 -15 15z" />
    <glyph glyph-name="uni044A" unicode="&#x44a;" horiz-adv-x="756" 
d="M15 454v32q0 14 14 14h101q14 0 14 -14v-176h391q94 0 135 -39t41 -116q0 -82 -40 -118.5t-136 -36.5h-440q-14 0 -14 14v426h-52q-14 0 -14 14zM530 60q47 0 72 8.5t35.5 28.5t10.5 58q0 50 -26 72.5t-92 22.5h-386v-190h386z" />
    <glyph glyph-name="uni044B" unicode="&#x44b;" horiz-adv-x="872" 
d="M50 14v472q0 14 14 14h35q14 0 14 -14v-176h391q94 0 135 -39t41 -116q0 -82 -40 -118.5t-136 -36.5h-440q-14 0 -14 14zM499 60q47 0 72 8.5t35.5 28.5t10.5 58q0 50 -26 72.5t-92 22.5h-386v-190h386zM758 14v472q0 14 14 14h36q14 0 14 -14v-472q0 -14 -14 -14h-36
q-14 0 -14 14z" />
    <glyph glyph-name="uni044C" unicode="&#x44c;" horiz-adv-x="725" 
d="M50 14v472q0 14 14 14h35q14 0 14 -14v-176h391q94 0 135 -39t41 -116q0 -82 -40 -118.5t-136 -36.5h-440q-14 0 -14 14zM499 60q47 0 72 8.5t35.5 28.5t10.5 58q0 50 -26 72.5t-92 22.5h-386v-190h386z" />
    <glyph glyph-name="uni044D" unicode="&#x44d;" horiz-adv-x="721" 
d="M397 236v27q0 14 15 14h200v53q0 59 -28 86.5t-84 27.5h-289q-107 0 -107 -84v-23q0 -11 -15 -11h-35q-14 0 -14 13v24q0 141 164 141h299q173 0 173 -171v-168q0 -84 -43.5 -127t-129.5 -43h-276q-78 0 -115 14.5t-60 45.5q-5 7 -5 11t5 6l23 12q6 3 11 3q6 0 11 -4
q27 -18 51 -23t79 -5h273q56 0 84 27.5t28 85.5v54h-200q-15 0 -15 14z" />
    <glyph glyph-name="uni044E" unicode="&#x44e;" horiz-adv-x="916" 
d="M50 13v472q0 14 14 14h36q14 0 14 -14v-212h116v60q0 171 173 171h295q173 0 173 -171v-168q0 -84 -43.5 -127t-129.5 -43h-295q-86 0 -129.5 43t-43.5 127v53h-116v-205q0 -14 -14 -14h-36q-14 0 -14 14zM779 82.5q28 27.5 28 85.5v162q0 59 -28 86.5t-84 27.5h-289
q-56 0 -84 -27.5t-28 -86.5v-162q0 -58 28 -85.5t84 -27.5h289q56 0 84 27.5z" />
    <glyph glyph-name="uni044F" unicode="&#x44f;" horiz-adv-x="707" 
d="M45 14v128q0 88 68 114q-61 30 -61 111q0 67 35 100t99 33h457q14 0 14 -14v-472q0 -14 -14 -14h-36q-14 0 -14 14v211h-410q-39 0 -56.5 -20t-17.5 -64v-127q0 -14 -14 -14h-36q-14 0 -14 14zM593 284v156h-401q-37 0 -56.5 -19t-19.5 -55q0 -38 16 -60t51 -22h410z" />
    <glyph glyph-name="uni0451" unicode="&#x451;" horiz-adv-x="729" 
d="M88.5 38q-43.5 43 -43.5 127v168q0 171 173 171h293q85 0 129 -44t44 -128v-67q0 -23 -9.5 -32t-32.5 -9h-533v-56q0 -58 28 -85.5t84 -27.5h273q55 0 79 5t51 23q5 4 11 4q5 0 11 -3l23 -12q5 -2 5 -6t-5 -11q-23 -31 -59.5 -45.5t-115.5 -14.5h-276q-86 0 -129.5 43z
M620 276v54q0 59 -28 86.5t-85 27.5h-286q-56 0 -84 -27.5t-28 -86.5v-54h511zM434 643v44q0 7 3 10t11 3h44q8 0 10.5 -2.5t2.5 -10.5v-44q0 -8 -3 -11t-10 -3h-44q-14 0 -14 14zM201 632q-3 3 -3 11v44q0 8 3 10.5t10 2.5h44q8 0 11 -3t3 -10v-44q0 -14 -14 -14h-44
q-7 0 -10 3z" />
    <glyph glyph-name="uni0453" unicode="&#x453;" horiz-adv-x="671" 
d="M50 14v472q0 14 14 14h553q14 0 14 -14v-30q0 -14 -14 -14h-503v-428q0 -14 -14 -14h-36q-14 0 -14 14zM305 552q-4 3 -4 7t3 8l69 115q6 10 10.5 14t11.5 4h50q13 0 13 -9q0 -4 -3 -9l-84 -115q-13 -18 -25 -18h-32q-5 0 -9 3z" />
    <glyph glyph-name="uni0454" unicode="&#x454;" horiz-adv-x="721" 
d="M88.5 38q-43.5 43 -43.5 127v168q0 171 173 171h299q164 0 164 -141v-24q0 -13 -14 -13h-35q-15 0 -15 11v23q0 84 -107 84h-289q-56 0 -84 -27.5t-28 -86.5v-53h200q15 0 15 -14v-27q0 -14 -15 -14h-200v-54q0 -58 28 -85.5t84 -27.5h273q55 0 79 5t51 23q5 4 11 4
q5 0 11 -3l23 -12q5 -2 5 -6t-5 -11q-23 -31 -59.5 -45.5t-115.5 -14.5h-276q-86 0 -129.5 43z" />
    <glyph glyph-name="uni0456" unicode="&#x456;" horiz-adv-x="164" 
d="M50 651v35q0 14 14 14h36q14 0 14 -14v-35q0 -15 -14 -15h-36q-14 0 -14 15zM50 14v472q0 14 14 14h36q14 0 14 -14v-472q0 -14 -14 -14h-36q-14 0 -14 14z" />
    <glyph glyph-name="uni0457" unicode="&#x457;" horiz-adv-x="164" 
d="M50 14v472q0 14 14 14h36q14 0 14 -14v-472q0 -14 -14 -14h-36q-14 0 -14 14zM153 643v44q0 7 3 10t11 3h44q8 0 10.5 -2.5t2.5 -10.5v-44q0 -8 -3 -11t-10 -3h-44q-14 0 -14 14zM-80 632q-3 3 -3 11v44q0 8 3 10.5t10 2.5h44q8 0 11 -3t3 -10v-44q0 -14 -14 -14h-44
q-7 0 -10 3z" />
    <glyph glyph-name="uni0458" unicode="&#x458;" horiz-adv-x="171" 
d="M57 651v35q0 14 14 14h35q15 0 15 -14v-35q0 -15 -15 -15h-35q-14 0 -14 15zM-97 -178q-13 1 -13 13v33q0 10 11 10h45q56 0 83.5 28.5t27.5 89.5v490q0 14 14 14h35q15 0 15 -14v-495q0 -85 -43 -128.5t-126 -43.5q-24 0 -49 3z" />
    <glyph glyph-name="uni045C" unicode="&#x45c;" horiz-adv-x="576" 
d="M50 14v472q0 14 14 14h36q14 0 14 -14v-198l330 205q12 7 21 7h59q8 0 8 -7q0 -6 -7 -12l-371 -231l386 -235q6 -3 6 -8q0 -7 -11 -7h-62q-8 0 -16.5 4t-16.5 9l-326 199v-198q0 -14 -14 -14h-36q-14 0 -14 14zM265 552q-4 3 -4 7t3 8l69 115q6 10 10.5 14t11.5 4h50
q13 0 13 -9q0 -4 -3 -9l-84 -115q-13 -18 -25 -18h-32q-5 0 -9 3z" />
    <glyph glyph-name="uni045D" unicode="&#x45d;" horiz-adv-x="736" 
d="M50 14v472q0 14 14 14h38q14 0 14 -14v-423h6l467 426q6 6 10 8.5t10 2.5h63q14 0 14 -14v-472q0 -14 -14 -14h-38q-14 0 -14 14v423h-6l-467 -426q-6 -6 -10 -8.5t-10 -2.5h-63q-14 0 -14 14zM330 567l-84 115q-4 5 -4 9q0 9 13 9h50q8 0 12.5 -4t10.5 -14l69 -115
q3 -4 3 -8t-4 -7t-9 -3h-32q-12 0 -25 18z" />
    <glyph glyph-name="uni045E" unicode="&#x45e;" horiz-adv-x="765" 
d="M228 -172q0 3 3 8l115 174l-308 473q-3 5 -3 9q0 8 12 8h45q7 0 11.5 -4t9.5 -13l264 -409h11l264 409q5 9 9.5 13t11.5 4h45q12 0 12 -8q0 -4 -3 -9l-421 -647q-5 -9 -9.5 -13t-11.5 -4h-46q-11 0 -11 9zM243 686q0 14 13 14h29q13 0 13 -14q2 -34 18.5 -54t49.5 -20h33
q33 0 49.5 20t18.5 54q0 14 13 14h29q13 0 13 -14q0 -62 -29.5 -92t-89.5 -30h-41q-119 0 -119 122z" />
    <glyph glyph-name="uni0490" unicode="&#x490;" horiz-adv-x="906" 
d="M65 14v672q0 14 14 14h716v37q0 14 14 14h38q14 0 14 -14v-84q0 -14 -14 -14h-716v-625q0 -14 -14 -14h-38q-14 0 -14 14z" />
    <glyph glyph-name="uni0491" unicode="&#x491;" horiz-adv-x="671" 
d="M579 554h40q12 0 12 -12v-86q0 -14 -14 -14h-503v-428q0 -14 -14 -14h-36q-14 0 -14 14v472q0 14 14 14h503v42q0 12 12 12z" />
    <glyph glyph-name="uni04C0" unicode="&#x4c0;" horiz-adv-x="196" 
d="M65 14v672q0 14 14 14h38q14 0 14 -14v-672q0 -14 -14 -14h-38q-14 0 -14 14z" />
    <glyph glyph-name="uni04E2" unicode="&#x4e2;" horiz-adv-x="973" 
d="M842 14v616h-7l-671 -620q-4 -4 -8.5 -7t-9.5 -3h-67q-14 0 -14 14v672q0 14 14 14h38q14 0 14 -14v-616h7l671 620q4 4 8.5 7t9.5 3h67q14 0 14 -14v-672q0 -14 -14 -14h-38q-14 0 -14 14zM297 854v31q0 15 15 15h324q15 0 15 -15v-31q0 -15 -15 -15h-324q-15 0 -15 15z
" />
    <glyph glyph-name="uni04E3" unicode="&#x4e3;" horiz-adv-x="736" 
d="M50 14v472q0 14 14 14h38q14 0 14 -14v-423h6l467 426q6 6 10 8.5t10 2.5h63q14 0 14 -14v-472q0 -14 -14 -14h-38q-14 0 -14 14v423h-6l-467 -426q-6 -6 -10 -8.5t-10 -2.5h-63q-14 0 -14 14zM192 654v31q0 15 15 15h324q15 0 15 -15v-31q0 -15 -15 -15h-324
q-15 0 -15 15z" />
    <glyph glyph-name="uni04E8" unicode="&#x4e8;" 
d="M105.5 40.5q-45.5 44.5 -45.5 133.5v352q0 89 45.5 133.5t138.5 44.5h527q185 0 185 -178v-352q0 -178 -185 -178h-527q-93 0 -138.5 44.5zM859.5 86.5q29.5 29.5 29.5 96.5v138h-763v-138q0 -67 30 -96.5t97 -29.5h510q67 0 96.5 29.5zM889 381v137q0 66 -29.5 95.5
t-96.5 29.5h-510q-67 0 -97 -29.5t-30 -95.5v-137h763z" />
    <glyph glyph-name="uni04E9" unicode="&#x4e9;" horiz-adv-x="731" 
d="M642.5 462q43.5 -43 43.5 -127v-168q0 -171 -173 -171h-295q-173 0 -173 171v168q0 84 43.5 127t129.5 43h295q86 0 129.5 -43zM137 417.5q-28 -27.5 -28 -85.5v-52h513v52q0 58 -28 85.5t-84 27.5h-289q-56 0 -84 -27.5zM137 83.5q28 -27.5 84 -27.5h289q56 0 84 27.5
t28 86.5v50h-513v-50q0 -59 28 -86.5z" />
    <glyph glyph-name="uni04EC" unicode="&#x4ec;" 
d="M614 334v32q0 14 14 14h262v138q0 66 -30 95.5t-97 29.5h-508q-67 0 -97.5 -30t-30.5 -95v-13q0 -12 -13 -12h-43q-11 0 -11 12v21q0 90 45 134t138 44h529q93 0 138.5 -44.5t45.5 -133.5v-352q0 -89 -45.5 -133.5t-138.5 -44.5h-529q-183 0 -183 162v14q0 12 11 12h44
q12 0 12 -12v-6q0 -56 30.5 -82.5t97.5 -26.5h508q67 0 97 29.5t30 96.5v137h-262q-14 0 -14 14zM536 843v44q0 7 3 10t11 3h44q8 0 10.5 -2.5t2.5 -10.5v-44q0 -8 -3 -11t-10 -3h-44q-14 0 -14 14zM303 832q-3 3 -3 11v44q0 8 3 10.5t10 2.5h44q8 0 11 -3t3 -10v-44
q0 -14 -14 -14h-44q-7 0 -10 3z" />
    <glyph glyph-name="uni04ED" unicode="&#x4ed;" horiz-adv-x="721" 
d="M397 236v27q0 14 15 14h200v53q0 59 -28 86.5t-84 27.5h-289q-107 0 -107 -84v-23q0 -11 -15 -11h-35q-14 0 -14 13v24q0 141 164 141h299q173 0 173 -171v-168q0 -84 -43.5 -127t-129.5 -43h-276q-78 0 -115 14.5t-60 45.5q-5 7 -5 11t5 6l23 12q6 3 11 3q6 0 11 -4
q27 -18 51 -23t79 -5h273q56 0 84 27.5t28 85.5v54h-200q-15 0 -15 14zM436 643v44q0 7 3 10t11 3h44q8 0 10.5 -2.5t2.5 -10.5v-44q0 -8 -3 -11t-10 -3h-44q-14 0 -14 14zM203 632q-3 3 -3 11v44q0 8 3 10.5t10 2.5h44q8 0 11 -3t3 -10v-44q0 -14 -14 -14h-44q-7 0 -10 3z
" />
    <glyph glyph-name="uni04EE" unicode="&#x4ee;" horiz-adv-x="855" 
d="M216 4.5q-2 4.5 3 9.5l171 222l-347 450q-3 3 -3 7q0 7 9 7h47q8 0 12.5 -3.5t12.5 -13.5l306 -398l307 398q8 10 12.5 13.5t12.5 3.5h47q7 0 9 -4.5t-3 -9.5l-515 -669q-8 -10 -12.5 -13.5t-12.5 -3.5h-47q-7 0 -9 4.5zM260 854v31q0 15 15 15h324q15 0 15 -15v-31
q0 -15 -15 -15h-324q-15 0 -15 15z" />
    <glyph glyph-name="uni04EF" unicode="&#x4ef;" horiz-adv-x="765" 
d="M211 654v31q0 15 15 15h324q15 0 15 -15v-31q0 -15 -15 -15h-324q-15 0 -15 15zM228 -172q0 3 3 8l115 174l-308 473q-3 5 -3 9q0 8 12 8h45q7 0 11.5 -4t9.5 -13l264 -409h11l264 409q5 9 9.5 13t11.5 4h45q12 0 12 -8q0 -4 -3 -9l-421 -647q-5 -9 -9.5 -13t-11.5 -4
h-46q-11 0 -11 9z" />
    <glyph glyph-name="uni1E20" unicode="&#x1e20;" horiz-adv-x="1011" 
d="M105.5 40.5q-45.5 44.5 -45.5 133.5v352q0 89 45.5 133.5t138.5 44.5h527q93 0 138 -44t45 -134v-21q0 -12 -11 -12h-43q-13 0 -13 12v13q0 65 -30.5 95t-97.5 30h-506q-67 0 -97 -29.5t-30 -95.5v-335q0 -67 30 -96.5t97 -29.5h510q67 0 96.5 29.5t29.5 96.5v96h-316
q-15 0 -15 15v31q0 14 15 14h367q7 0 11.5 -4.5t4.5 -10.5v-150q0 -89 -45.5 -133.5t-138.5 -44.5h-528q-93 0 -138.5 44.5zM338 854v31q0 15 15 15h324q15 0 15 -15v-31q0 -15 -15 -15h-324q-15 0 -15 15z" />
    <glyph glyph-name="uni1E21" unicode="&#x1e21;" horiz-adv-x="736" 
d="M131 -167v27q0 8 3 11.5t11 3.5h362q59 0 87 28t28 91v58h-7q-22 -31 -50.5 -44t-89.5 -13h-256q-86 0 -130 43.5t-44 127.5v166q0 85 44 128.5t130 43.5h256q61 0 89 -13t51 -43h7v38q0 14 14 14h36q14 0 14 -14v-495q0 -85 -44 -128.5t-129 -43.5h-368q-14 0 -14 14z
M594.5 82.5q27.5 27.5 27.5 85.5v162q0 59 -27.5 86.5t-83.5 27.5h-290q-56 0 -84 -27.5t-28 -86.5v-162q0 -58 28 -85.5t84 -27.5h290q56 0 83.5 27.5zM197 654v31q0 15 15 15h324q15 0 15 -15v-31q0 -15 -15 -15h-324q-15 0 -15 15z" />
    <glyph glyph-name="uni1E3E" unicode="&#x1e3e;" horiz-adv-x="1121" 
d="M65 14v672q0 14 14 14h75q7 0 11 -3.5t9 -11.5l382 -615h9l382 615q5 8 9 11.5t11 3.5h74q15 0 15 -14v-672q0 -14 -15 -14h-38q-14 0 -14 14v610h-8l-379 -610q-5 -8 -9 -11t-10 -3h-45q-7 0 -11 3t-9 11l-379 610h-8v-610q0 -14 -14 -14h-38q-14 0 -14 14zM534 752
q-4 3 -4 7t3 8l69 115q6 10 10.5 14t11.5 4h50q13 0 13 -9q0 -4 -3 -9l-84 -115q-13 -18 -25 -18h-32q-5 0 -9 3z" />
    <glyph glyph-name="uni1E3F" unicode="&#x1e3f;" horiz-adv-x="1168" 
d="M552 14v316q0 59 -28 86.5t-84 27.5h-214q-56 0 -84 -27.5t-28 -86.5v-316q0 -14 -14 -14h-36q-14 0 -14 14v472q0 14 14 14h36q14 0 14 -14v-38h7q23 30 51 43t89 13h181q106 0 148 -66h10q19 33 54.5 49.5t98.5 16.5h191q86 0 130 -43.5t44 -128.5v-318q0 -14 -14 -14
h-36q-14 0 -14 14v316q0 59 -28 86.5t-84 27.5h-214q-56 0 -84 -27.5t-28 -86.5v-316q0 -14 -14 -14h-36q-14 0 -14 14zM558 552q-4 3 -4 7t3 8l69 115q6 10 10.5 14t11.5 4h50q13 0 13 -9q0 -4 -3 -9l-84 -115q-13 -18 -25 -18h-32q-5 0 -9 3z" />
    <glyph glyph-name="Wgrave" unicode="&#x1e80;" horiz-adv-x="1831" 
d="M447 3.5q-4 3.5 -9 12.5l-395 668q-3 5 -3 8q0 4 4 6t9 2h46q7 0 10.5 -3t9.5 -13l362 -612h10l376 612q6 10 9.5 13t10.5 3h57q7 0 10.5 -3t9.5 -13l376 -612h10l362 612q6 10 9.5 13t10.5 3h46q5 0 9 -2t4 -6q0 -3 -3 -8l-395 -668q-5 -9 -9 -12.5t-10 -3.5h-56
q-6 0 -10 3.5t-9 12.5l-383 622l-384 -622q-5 -9 -9 -12.5t-10 -3.5h-56q-6 0 -10 3.5zM877 767l-84 115q-4 5 -4 9q0 9 13 9h50q8 0 12.5 -4t10.5 -14l69 -115q3 -4 3 -8t-4 -7t-9 -3h-32q-12 0 -25 18z" />
    <glyph glyph-name="wgrave" unicode="&#x1e81;" horiz-adv-x="1289" 
d="M323.5 4q-4.5 4 -10.5 14l-275 465q-3 5 -3 9q0 8 12 8h44q7 0 11.5 -4t9.5 -13l239 -409h10l242 409q9 17 20 17h43q11 0 21 -17l241 -409h10l239 409q7 10 10.5 13.5t10.5 3.5h44q12 0 12 -8q0 -4 -3 -9l-274 -465q-11 -18 -22 -18h-42q-7 0 -11.5 4t-11.5 14l-245 414
l-246 -414q-11 -18 -22 -18h-42q-7 0 -11.5 4zM606 567l-84 115q-4 5 -4 9q0 9 13 9h50q8 0 12.5 -4t10.5 -14l69 -115q3 -4 3 -8t-4 -7t-9 -3h-32q-12 0 -25 18z" />
    <glyph glyph-name="Wacute" unicode="&#x1e82;" horiz-adv-x="1831" 
d="M447 3.5q-4 3.5 -9 12.5l-395 668q-3 5 -3 8q0 4 4 6t9 2h46q7 0 10.5 -3t9.5 -13l362 -612h10l376 612q6 10 9.5 13t10.5 3h57q7 0 10.5 -3t9.5 -13l376 -612h10l362 612q6 10 9.5 13t10.5 3h46q5 0 9 -2t4 -6q0 -3 -3 -8l-395 -668q-5 -9 -9 -12.5t-10 -3.5h-56
q-6 0 -10 3.5t-9 12.5l-383 622l-384 -622q-5 -9 -9 -12.5t-10 -3.5h-56q-6 0 -10 3.5zM890 752q-4 3 -4 7t3 8l69 115q6 10 10.5 14t11.5 4h50q13 0 13 -9q0 -4 -3 -9l-84 -115q-13 -18 -25 -18h-32q-5 0 -9 3z" />
    <glyph glyph-name="wacute" unicode="&#x1e83;" horiz-adv-x="1289" 
d="M323.5 4q-4.5 4 -10.5 14l-275 465q-3 5 -3 9q0 8 12 8h44q7 0 11.5 -4t9.5 -13l239 -409h10l242 409q9 17 20 17h43q11 0 21 -17l241 -409h10l239 409q7 10 10.5 13.5t10.5 3.5h44q12 0 12 -8q0 -4 -3 -9l-274 -465q-11 -18 -22 -18h-42q-7 0 -11.5 4t-11.5 14l-245 414
l-246 -414q-11 -18 -22 -18h-42q-7 0 -11.5 4zM619 552q-4 3 -4 7t3 8l69 115q6 10 10.5 14t11.5 4h50q13 0 13 -9q0 -4 -3 -9l-84 -115q-13 -18 -25 -18h-32q-5 0 -9 3z" />
    <glyph glyph-name="Wdieresis" unicode="&#x1e84;" horiz-adv-x="1831" 
d="M447 3.5q-4 3.5 -9 12.5l-395 668q-3 5 -3 8q0 4 4 6t9 2h46q7 0 10.5 -3t9.5 -13l362 -612h10l376 612q6 10 9.5 13t10.5 3h57q7 0 10.5 -3t9.5 -13l376 -612h10l362 612q6 10 9.5 13t10.5 3h46q5 0 9 -2t4 -6q0 -3 -3 -8l-395 -668q-5 -9 -9 -12.5t-10 -3.5h-56
q-6 0 -10 3.5t-9 12.5l-383 622l-384 -622q-5 -9 -9 -12.5t-10 -3.5h-56q-6 0 -10 3.5zM986 843v44q0 7 3 10t11 3h44q8 0 10.5 -2.5t2.5 -10.5v-44q0 -8 -3 -11t-10 -3h-44q-14 0 -14 14zM753 832q-3 3 -3 11v44q0 8 3 10.5t10 2.5h44q8 0 11 -3t3 -10v-44q0 -14 -14 -14
h-44q-7 0 -10 3z" />
    <glyph glyph-name="wdieresis" unicode="&#x1e85;" horiz-adv-x="1289" 
d="M323.5 4q-4.5 4 -10.5 14l-275 465q-3 5 -3 9q0 8 12 8h44q7 0 11.5 -4t9.5 -13l239 -409h10l242 409q9 17 20 17h43q11 0 21 -17l241 -409h10l239 409q7 10 10.5 13.5t10.5 3.5h44q12 0 12 -8q0 -4 -3 -9l-274 -465q-11 -18 -22 -18h-42q-7 0 -11.5 4t-11.5 14l-245 414
l-246 -414q-11 -18 -22 -18h-42q-7 0 -11.5 4zM716 643v44q0 7 3 10t11 3h44q8 0 10.5 -2.5t2.5 -10.5v-44q0 -8 -3 -11t-10 -3h-44q-14 0 -14 14zM483 632q-3 3 -3 11v44q0 8 3 10.5t10 2.5h44q8 0 11 -3t3 -10v-44q0 -14 -14 -14h-44q-7 0 -10 3z" />
    <glyph glyph-name="uni1E9E" unicode="&#x1e9e;" horiz-adv-x="963" 
d="M68 3q-3 3 -3 10v674q0 7 3 10t11 3h784q13 0 20.5 -6.5t7.5 -17.5q0 -9 -6 -18l-191 -255h57q74 0 115.5 -43t41.5 -114v-71q0 -98 -53 -136.5t-159 -38.5h-434q-12 0 -12 12v37q0 12 12 12h434q81 0 113.5 27.5t32.5 100.5v41q0 66 -33 93t-113 27h-58q-12 0 -12 12v33
q0 13 9 24l162 220h-666v-626q0 -7 -2.5 -10t-10.5 -3h-40q-7 0 -10 3z" />
    <glyph glyph-name="uni1EA0" unicode="&#x1ea0;" horiz-adv-x="1054" 
d="M564 696.5q4 -3.5 9 -12.5l438 -668q3 -4 3 -8q0 -8 -12 -8h-46q-8 0 -12 3.5t-10 12.5l-78 120h-658l-78 -120q-6 -9 -10 -12.5t-11 -3.5h-46q-5 0 -9 2t-4 6t3 8l438 668q5 9 9 12.5t11 3.5h53q6 0 10 -3.5zM817 195l-285 436h-10l-285 -436h580zM488 -174.5
q-3 2.5 -3 10.5v58q0 7 3 10t10 3h58q8 0 10.5 -3t2.5 -10v-58q0 -8 -2.5 -10.5t-10.5 -2.5h-58q-7 0 -10 2.5z" />
    <glyph glyph-name="uni1EA1" unicode="&#x1ea1;" horiz-adv-x="722" 
d="M69.5 32.5q-39.5 37.5 -39.5 111.5t38 108t111 34h429v32q0 48 -12 75t-42 40t-86 13h-238q-55 0 -78.5 -15.5t-28.5 -51.5q-1 -7 -4.5 -10t-11.5 -3h-31q-9 0 -13 4.5t-4 16.5q0 57 38.5 87t122.5 30h259q105 0 149 -43t44 -138v-309q0 -14 -14 -14h-36q-14 0 -14 14v57
h-6q-26 -34 -66.5 -55t-97.5 -21h-257q-72 0 -111.5 37.5zM569 86q39 31 39 79v68h-426q-44 0 -66 -19.5t-22 -68.5q0 -48 22 -69t66 -21h288q60 0 99 31zM321 -174.5q-3 2.5 -3 10.5v58q0 7 3 10t10 3h58q8 0 10.5 -3t2.5 -10v-58q0 -8 -2.5 -10.5t-10.5 -2.5h-58
q-7 0 -10 2.5z" />
    <glyph glyph-name="uni1EA2" unicode="&#x1ea2;" horiz-adv-x="1054" 
d="M564 696.5q4 -3.5 9 -12.5l438 -668q3 -4 3 -8q0 -8 -12 -8h-46q-8 0 -12 3.5t-10 12.5l-78 120h-658l-78 -120q-6 -9 -10 -12.5t-11 -3.5h-46q-5 0 -9 2t-4 6t3 8l438 668q5 9 9 12.5t11 3.5h53q6 0 10 -3.5zM817 195l-285 436h-10l-285 -436h580zM516 771v17
q0 13 13 13h12q44 0 44 43v21q0 41 -44 41h-28q-43 0 -43 -41v-9q0 -13 -13 -13h-23q-13 0 -13 13v11q0 40 21.5 62t64.5 22h40q43 0 64.5 -22t21.5 -62v-26q0 -40 -21.5 -61.5t-64.5 -21.5h-18q-13 0 -13 13z" />
    <glyph glyph-name="uni1EA3" unicode="&#x1ea3;" horiz-adv-x="722" 
d="M69.5 32.5q-39.5 37.5 -39.5 111.5t38 108t111 34h429v32q0 48 -12 75t-42 40t-86 13h-238q-55 0 -78.5 -15.5t-28.5 -51.5q-1 -7 -4.5 -10t-11.5 -3h-31q-9 0 -13 4.5t-4 16.5q0 57 38.5 87t122.5 30h259q105 0 149 -43t44 -138v-309q0 -14 -14 -14h-36q-14 0 -14 14v57
h-6q-26 -34 -66.5 -55t-97.5 -21h-257q-72 0 -111.5 37.5zM569 86q39 31 39 79v68h-426q-44 0 -66 -19.5t-22 -68.5q0 -48 22 -69t66 -21h288q60 0 99 31zM353 571v17q0 13 13 13h12q44 0 44 43v21q0 41 -44 41h-28q-43 0 -43 -41v-9q0 -13 -13 -13h-23q-13 0 -13 13v11
q0 40 21.5 62t64.5 22h40q43 0 64.5 -22t21.5 -62v-26q0 -40 -21.5 -61.5t-64.5 -21.5h-18q-13 0 -13 13z" />
    <glyph glyph-name="uni1EA4" unicode="&#x1ea4;" horiz-adv-x="1054" 
d="M564 696.5q4 -3.5 9 -12.5l438 -668q3 -4 3 -8q0 -8 -12 -8h-46q-8 0 -12 3.5t-10 12.5l-78 120h-658l-78 -120q-6 -9 -10 -12.5t-11 -3.5h-46q-5 0 -9 2t-4 6t3 8l438 668q5 9 9 12.5t11 3.5h53q6 0 10 -3.5zM817 195l-285 436h-10l-285 -436h580zM367 759q0 4 4 8
l105 120q7 8 12 10.5t13 2.5h39q9 0 15.5 -2.5t12.5 -10.5l105 -120q4 -4 4 -8q0 -8 -10 -8h-39q-8 0 -13 2.5t-12 10.5l-76 87h-10l-76 -87q-7 -8 -11.5 -10.5t-13.5 -2.5h-39q-10 0 -10 8zM604 912q-4 3 -4 7t3 8l69 115q6 10 10.5 14t11.5 4h50q13 0 13 -9q0 -4 -3 -9
l-84 -115q-13 -18 -25 -18h-32q-5 0 -9 3z" />
    <glyph glyph-name="uni1EA5" unicode="&#x1ea5;" horiz-adv-x="722" 
d="M69.5 32.5q-39.5 37.5 -39.5 111.5t38 108t111 34h429v32q0 48 -12 75t-42 40t-86 13h-238q-55 0 -78.5 -15.5t-28.5 -51.5q-1 -7 -4.5 -10t-11.5 -3h-31q-9 0 -13 4.5t-4 16.5q0 57 38.5 87t122.5 30h259q105 0 149 -43t44 -138v-309q0 -14 -14 -14h-36q-14 0 -14 14v57
h-6q-26 -34 -66.5 -55t-97.5 -21h-257q-72 0 -111.5 37.5zM569 86q39 31 39 79v68h-426q-44 0 -66 -19.5t-22 -68.5q0 -48 22 -69t66 -21h288q60 0 99 31zM204 559q0 4 4 8l105 120q7 8 12 10.5t13 2.5h39q9 0 15.5 -2.5t12.5 -10.5l105 -120q4 -4 4 -8q0 -8 -10 -8h-39
q-8 0 -13 2.5t-12 10.5l-76 87h-10l-76 -87q-7 -8 -11.5 -10.5t-13.5 -2.5h-39q-10 0 -10 8zM441 712q-4 3 -4 7t3 8l69 115q6 10 10.5 14t11.5 4h50q13 0 13 -9q0 -4 -3 -9l-84 -115q-13 -18 -25 -18h-32q-5 0 -9 3z" />
    <glyph glyph-name="uni1EA6" unicode="&#x1ea6;" horiz-adv-x="1054" 
d="M564 696.5q4 -3.5 9 -12.5l438 -668q3 -4 3 -8q0 -8 -12 -8h-46q-8 0 -12 3.5t-10 12.5l-78 120h-658l-78 -120q-6 -9 -10 -12.5t-11 -3.5h-46q-5 0 -9 2t-4 6t3 8l438 668q5 9 9 12.5t11 3.5h53q6 0 10 -3.5zM817 195l-285 436h-10l-285 -436h580zM367 759q0 4 4 8
l105 120q7 8 12 10.5t13 2.5h39q9 0 15.5 -2.5t12.5 -10.5l105 -120q4 -4 4 -8q0 -8 -10 -8h-39q-8 0 -13 2.5t-12 10.5l-76 87h-10l-76 -87q-7 -8 -11.5 -10.5t-13.5 -2.5h-39q-10 0 -10 8zM605 927l-84 115q-4 5 -4 9q0 9 13 9h50q8 0 12.5 -4t10.5 -14l69 -115q3 -4 3 -8
t-4 -7t-9 -3h-32q-12 0 -25 18z" />
    <glyph glyph-name="uni1EA7" unicode="&#x1ea7;" horiz-adv-x="722" 
d="M69.5 32.5q-39.5 37.5 -39.5 111.5t38 108t111 34h429v32q0 48 -12 75t-42 40t-86 13h-238q-55 0 -78.5 -15.5t-28.5 -51.5q-1 -7 -4.5 -10t-11.5 -3h-31q-9 0 -13 4.5t-4 16.5q0 57 38.5 87t122.5 30h259q105 0 149 -43t44 -138v-309q0 -14 -14 -14h-36q-14 0 -14 14v57
h-6q-26 -34 -66.5 -55t-97.5 -21h-257q-72 0 -111.5 37.5zM569 86q39 31 39 79v68h-426q-44 0 -66 -19.5t-22 -68.5q0 -48 22 -69t66 -21h288q60 0 99 31zM204 559q0 4 4 8l105 120q7 8 12 10.5t13 2.5h39q9 0 15.5 -2.5t12.5 -10.5l105 -120q4 -4 4 -8q0 -8 -10 -8h-39
q-8 0 -13 2.5t-12 10.5l-76 87h-10l-76 -87q-7 -8 -11.5 -10.5t-13.5 -2.5h-39q-10 0 -10 8zM442 727l-84 115q-4 5 -4 9q0 9 13 9h50q8 0 12.5 -4t10.5 -14l69 -115q3 -4 3 -8t-4 -7t-9 -3h-32q-12 0 -25 18z" />
    <glyph glyph-name="uni1EA8" unicode="&#x1ea8;" horiz-adv-x="1054" 
d="M564 696.5q4 -3.5 9 -12.5l438 -668q3 -4 3 -8q0 -8 -12 -8h-46q-8 0 -12 3.5t-10 12.5l-78 120h-658l-78 -120q-6 -9 -10 -12.5t-11 -3.5h-46q-5 0 -9 2t-4 6t3 8l438 668q5 9 9 12.5t11 3.5h53q6 0 10 -3.5zM817 195l-285 436h-10l-285 -436h580zM367 759q0 4 4 8
l105 120q7 8 12 10.5t13 2.5h39q9 0 15.5 -2.5t12.5 -10.5l105 -120q4 -4 4 -8q0 -8 -10 -8h-39q-8 0 -13 2.5t-12 10.5l-76 87h-10l-76 -87q-7 -8 -11.5 -10.5t-13.5 -2.5h-39q-10 0 -10 8zM591 928v17q0 13 13 13h12q44 0 44 43v21q0 41 -44 41h-28q-43 0 -43 -41v-9
q0 -13 -13 -13h-23q-13 0 -13 13v11q0 40 21.5 62t64.5 22h40q43 0 64.5 -22t21.5 -62v-26q0 -40 -21.5 -61.5t-64.5 -21.5h-18q-13 0 -13 13z" />
    <glyph glyph-name="uni1EA9" unicode="&#x1ea9;" horiz-adv-x="722" 
d="M69.5 32.5q-39.5 37.5 -39.5 111.5t38 108t111 34h429v32q0 48 -12 75t-42 40t-86 13h-238q-55 0 -78.5 -15.5t-28.5 -51.5q-1 -7 -4.5 -10t-11.5 -3h-31q-9 0 -13 4.5t-4 16.5q0 57 38.5 87t122.5 30h259q105 0 149 -43t44 -138v-309q0 -14 -14 -14h-36q-14 0 -14 14v57
h-6q-26 -34 -66.5 -55t-97.5 -21h-257q-72 0 -111.5 37.5zM569 86q39 31 39 79v68h-426q-44 0 -66 -19.5t-22 -68.5q0 -48 22 -69t66 -21h288q60 0 99 31zM204 559q0 4 4 8l105 120q7 8 12 10.5t13 2.5h39q9 0 15.5 -2.5t12.5 -10.5l105 -120q4 -4 4 -8q0 -8 -10 -8h-39
q-8 0 -13 2.5t-12 10.5l-76 87h-10l-76 -87q-7 -8 -11.5 -10.5t-13.5 -2.5h-39q-10 0 -10 8zM428 728v17q0 13 13 13h12q44 0 44 43v21q0 41 -44 41h-28q-43 0 -43 -41v-9q0 -13 -13 -13h-23q-13 0 -13 13v11q0 40 21.5 62t64.5 22h40q43 0 64.5 -22t21.5 -62v-26
q0 -40 -21.5 -61.5t-64.5 -21.5h-18q-13 0 -13 13z" />
    <glyph glyph-name="uni1EAA" unicode="&#x1eaa;" horiz-adv-x="1054" 
d="M564 696.5q4 -3.5 9 -12.5l438 -668q3 -4 3 -8q0 -8 -12 -8h-46q-8 0 -12 3.5t-10 12.5l-78 120h-658l-78 -120q-6 -9 -10 -12.5t-11 -3.5h-46q-5 0 -9 2t-4 6t3 8l438 668q5 9 9 12.5t11 3.5h53q6 0 10 -3.5zM817 195l-285 436h-10l-285 -436h580zM367 759q0 4 4 8
l105 120q7 8 12 10.5t13 2.5h39q9 0 15.5 -2.5t12.5 -10.5l105 -120q4 -4 4 -8q0 -8 -10 -8h-39q-8 0 -13 2.5t-12 10.5l-76 87h-10l-76 -87q-7 -8 -11.5 -10.5t-13.5 -2.5h-39q-10 0 -10 8zM556.5 946q-16.5 6 -41.5 19q-22 11 -36 16.5t-33 5.5q-15 0 -28 -4t-30 -15
q-4 -3 -8 -3t-8 7l-13 29q0 3 -1 5q0 6 8 11q42 27 84 27q22 0 40 -6.5t38 -18.5q21 -11 36 -16.5t34 -5.5q16 0 29 4t30 15q5 3 8 3q4 0 7 -7l13 -29q1 -2 1 -5q0 -7 -8 -12q-43 -26 -83 -26q-22 0 -38.5 6z" />
    <glyph glyph-name="uni1EAB" unicode="&#x1eab;" horiz-adv-x="722" 
d="M69.5 32.5q-39.5 37.5 -39.5 111.5t38 108t111 34h429v32q0 48 -12 75t-42 40t-86 13h-238q-55 0 -78.5 -15.5t-28.5 -51.5q-1 -7 -4.5 -10t-11.5 -3h-31q-9 0 -13 4.5t-4 16.5q0 57 38.5 87t122.5 30h259q105 0 149 -43t44 -138v-309q0 -14 -14 -14h-36q-14 0 -14 14v57
h-6q-26 -34 -66.5 -55t-97.5 -21h-257q-72 0 -111.5 37.5zM569 86q39 31 39 79v68h-426q-44 0 -66 -19.5t-22 -68.5q0 -48 22 -69t66 -21h288q60 0 99 31zM204 559q0 4 4 8l105 120q7 8 12 10.5t13 2.5h39q9 0 15.5 -2.5t12.5 -10.5l105 -120q4 -4 4 -8q0 -8 -10 -8h-39
q-8 0 -13 2.5t-12 10.5l-76 87h-10l-76 -87q-7 -8 -11.5 -10.5t-13.5 -2.5h-39q-10 0 -10 8zM393.5 746q-16.5 6 -41.5 19q-22 11 -36 16.5t-33 5.5q-15 0 -28 -4t-30 -15q-4 -3 -8 -3t-8 7l-13 29q0 3 -1 5q0 6 8 11q42 27 84 27q22 0 40 -6.5t38 -18.5q21 -11 36 -16.5
t34 -5.5q16 0 29 4t30 15q5 3 8 3q4 0 7 -7l13 -29q1 -2 1 -5q0 -7 -8 -12q-43 -26 -83 -26q-22 0 -38.5 6z" />
    <glyph glyph-name="uni1EAC" unicode="&#x1eac;" horiz-adv-x="1054" 
d="M564 696.5q4 -3.5 9 -12.5l438 -668q3 -4 3 -8q0 -8 -12 -8h-46q-8 0 -12 3.5t-10 12.5l-78 120h-658l-78 -120q-6 -9 -10 -12.5t-11 -3.5h-46q-5 0 -9 2t-4 6t3 8l438 668q5 9 9 12.5t11 3.5h53q6 0 10 -3.5zM817 195l-285 436h-10l-285 -436h580zM488 -174.5
q-3 2.5 -3 10.5v58q0 7 3 10t10 3h58q8 0 10.5 -3t2.5 -10v-58q0 -8 -2.5 -10.5t-10.5 -2.5h-58q-7 0 -10 2.5zM367 759q0 4 4 8l105 120q7 8 12 10.5t13 2.5h39q9 0 15.5 -2.5t12.5 -10.5l105 -120q4 -4 4 -8q0 -8 -10 -8h-39q-8 0 -13 2.5t-12 10.5l-76 87h-10l-76 -87
q-7 -8 -11.5 -10.5t-13.5 -2.5h-39q-10 0 -10 8z" />
    <glyph glyph-name="uni1EAD" unicode="&#x1ead;" horiz-adv-x="722" 
d="M69.5 32.5q-39.5 37.5 -39.5 111.5t38 108t111 34h429v32q0 48 -12 75t-42 40t-86 13h-238q-55 0 -78.5 -15.5t-28.5 -51.5q-1 -7 -4.5 -10t-11.5 -3h-31q-9 0 -13 4.5t-4 16.5q0 57 38.5 87t122.5 30h259q105 0 149 -43t44 -138v-309q0 -14 -14 -14h-36q-14 0 -14 14v57
h-6q-26 -34 -66.5 -55t-97.5 -21h-257q-72 0 -111.5 37.5zM569 86q39 31 39 79v68h-426q-44 0 -66 -19.5t-22 -68.5q0 -48 22 -69t66 -21h288q60 0 99 31zM321 -174.5q-3 2.5 -3 10.5v58q0 7 3 10t10 3h58q8 0 10.5 -3t2.5 -10v-58q0 -8 -2.5 -10.5t-10.5 -2.5h-58
q-7 0 -10 2.5zM204 559q0 4 4 8l105 120q7 8 12 10.5t13 2.5h39q9 0 15.5 -2.5t12.5 -10.5l105 -120q4 -4 4 -8q0 -8 -10 -8h-39q-8 0 -13 2.5t-12 10.5l-76 87h-10l-76 -87q-7 -8 -11.5 -10.5t-13.5 -2.5h-39q-10 0 -10 8z" />
    <glyph glyph-name="uni1EAE" unicode="&#x1eae;" horiz-adv-x="1054" 
d="M564 696.5q4 -3.5 9 -12.5l438 -668q3 -4 3 -8q0 -8 -12 -8h-46q-8 0 -12 3.5t-10 12.5l-78 120h-658l-78 -120q-6 -9 -10 -12.5t-11 -3.5h-46q-5 0 -9 2t-4 6t3 8l438 668q5 9 9 12.5t11 3.5h53q6 0 10 -3.5zM817 195l-285 436h-10l-285 -436h580zM387 886q0 14 13 14
h29q13 0 13 -14q2 -34 18.5 -54t49.5 -20h33q33 0 49.5 20t18.5 54q0 14 13 14h29q13 0 13 -14q0 -62 -29.5 -92t-89.5 -30h-41q-119 0 -119 122zM487 912q-4 3 -4 7t3 8l69 115q6 10 10.5 14t11.5 4h50q13 0 13 -9q0 -4 -3 -9l-84 -115q-13 -18 -25 -18h-32q-5 0 -9 3z" />
    <glyph glyph-name="uni1EAF" unicode="&#x1eaf;" horiz-adv-x="722" 
d="M69.5 32.5q-39.5 37.5 -39.5 111.5t38 108t111 34h429v32q0 48 -12 75t-42 40t-86 13h-238q-55 0 -78.5 -15.5t-28.5 -51.5q-1 -7 -4.5 -10t-11.5 -3h-31q-9 0 -13 4.5t-4 16.5q0 57 38.5 87t122.5 30h259q105 0 149 -43t44 -138v-309q0 -14 -14 -14h-36q-14 0 -14 14v57
h-6q-26 -34 -66.5 -55t-97.5 -21h-257q-72 0 -111.5 37.5zM569 86q39 31 39 79v68h-426q-44 0 -66 -19.5t-22 -68.5q0 -48 22 -69t66 -21h288q60 0 99 31zM225 686q0 14 13 14h29q13 0 13 -14q2 -34 18.5 -54t49.5 -20h33q33 0 49.5 20t18.5 54q0 14 13 14h29q13 0 13 -14
q0 -62 -29.5 -92t-89.5 -30h-41q-119 0 -119 122zM325 712q-4 3 -4 7t3 8l69 115q6 10 10.5 14t11.5 4h50q13 0 13 -9q0 -4 -3 -9l-84 -115q-13 -18 -25 -18h-32q-5 0 -9 3z" />
    <glyph glyph-name="uni1EB0" unicode="&#x1eb0;" horiz-adv-x="1054" 
d="M564 696.5q4 -3.5 9 -12.5l438 -668q3 -4 3 -8q0 -8 -12 -8h-46q-8 0 -12 3.5t-10 12.5l-78 120h-658l-78 -120q-6 -9 -10 -12.5t-11 -3.5h-46q-5 0 -9 2t-4 6t3 8l438 668q5 9 9 12.5t11 3.5h53q6 0 10 -3.5zM817 195l-285 436h-10l-285 -436h580zM387 886q0 14 13 14
h29q13 0 13 -14q2 -34 18.5 -54t49.5 -20h33q33 0 49.5 20t18.5 54q0 14 13 14h29q13 0 13 -14q0 -62 -29.5 -92t-89.5 -30h-41q-119 0 -119 122zM494 927l-84 115q-4 5 -4 9q0 9 13 9h50q8 0 12.5 -4t10.5 -14l69 -115q3 -4 3 -8t-4 -7t-9 -3h-32q-12 0 -25 18z" />
    <glyph glyph-name="uni1EB1" unicode="&#x1eb1;" horiz-adv-x="722" 
d="M69.5 32.5q-39.5 37.5 -39.5 111.5t38 108t111 34h429v32q0 48 -12 75t-42 40t-86 13h-238q-55 0 -78.5 -15.5t-28.5 -51.5q-1 -7 -4.5 -10t-11.5 -3h-31q-9 0 -13 4.5t-4 16.5q0 57 38.5 87t122.5 30h259q105 0 149 -43t44 -138v-309q0 -14 -14 -14h-36q-14 0 -14 14v57
h-6q-26 -34 -66.5 -55t-97.5 -21h-257q-72 0 -111.5 37.5zM569 86q39 31 39 79v68h-426q-44 0 -66 -19.5t-22 -68.5q0 -48 22 -69t66 -21h288q60 0 99 31zM225 686q0 14 13 14h29q13 0 13 -14q2 -34 18.5 -54t49.5 -20h33q33 0 49.5 20t18.5 54q0 14 13 14h29q13 0 13 -14
q0 -62 -29.5 -92t-89.5 -30h-41q-119 0 -119 122zM332 727l-84 115q-4 5 -4 9q0 9 13 9h50q8 0 12.5 -4t10.5 -14l69 -115q3 -4 3 -8t-4 -7t-9 -3h-32q-12 0 -25 18z" />
    <glyph glyph-name="uni1EB2" unicode="&#x1eb2;" horiz-adv-x="1054" 
d="M564 696.5q4 -3.5 9 -12.5l438 -668q3 -4 3 -8q0 -8 -12 -8h-46q-8 0 -12 3.5t-10 12.5l-78 120h-658l-78 -120q-6 -9 -10 -12.5t-11 -3.5h-46q-5 0 -9 2t-4 6t3 8l438 668q5 9 9 12.5t11 3.5h53q6 0 10 -3.5zM817 195l-285 436h-10l-285 -436h580zM387 886q0 14 13 14
h29q13 0 13 -14q2 -34 18.5 -54t49.5 -20h33q33 0 49.5 20t18.5 54q0 14 13 14h29q13 0 13 -14q0 -62 -29.5 -92t-89.5 -30h-41q-119 0 -119 122zM506 928v17q0 13 13 13h12q44 0 44 43v21q0 41 -44 41h-28q-43 0 -43 -41v-9q0 -13 -13 -13h-23q-13 0 -13 13v11
q0 40 21.5 62t64.5 22h40q43 0 64.5 -22t21.5 -62v-26q0 -40 -21.5 -61.5t-64.5 -21.5h-18q-13 0 -13 13z" />
    <glyph glyph-name="uni1EB3" unicode="&#x1eb3;" horiz-adv-x="722" 
d="M69.5 32.5q-39.5 37.5 -39.5 111.5t38 108t111 34h429v32q0 48 -12 75t-42 40t-86 13h-238q-55 0 -78.5 -15.5t-28.5 -51.5q-1 -7 -4.5 -10t-11.5 -3h-31q-9 0 -13 4.5t-4 16.5q0 57 38.5 87t122.5 30h259q105 0 149 -43t44 -138v-309q0 -14 -14 -14h-36q-14 0 -14 14v57
h-6q-26 -34 -66.5 -55t-97.5 -21h-257q-72 0 -111.5 37.5zM569 86q39 31 39 79v68h-426q-44 0 -66 -19.5t-22 -68.5q0 -48 22 -69t66 -21h288q60 0 99 31zM225 686q0 14 13 14h29q13 0 13 -14q2 -34 18.5 -54t49.5 -20h33q33 0 49.5 20t18.5 54q0 14 13 14h29q13 0 13 -14
q0 -62 -29.5 -92t-89.5 -30h-41q-119 0 -119 122zM344 728v17q0 13 13 13h12q44 0 44 43v21q0 41 -44 41h-28q-43 0 -43 -41v-9q0 -13 -13 -13h-23q-13 0 -13 13v11q0 40 21.5 62t64.5 22h40q43 0 64.5 -22t21.5 -62v-26q0 -40 -21.5 -61.5t-64.5 -21.5h-18q-13 0 -13 13z
" />
    <glyph glyph-name="uni1EB4" unicode="&#x1eb4;" horiz-adv-x="1054" 
d="M564 696.5q4 -3.5 9 -12.5l438 -668q3 -4 3 -8q0 -8 -12 -8h-46q-8 0 -12 3.5t-10 12.5l-78 120h-658l-78 -120q-6 -9 -10 -12.5t-11 -3.5h-46q-5 0 -9 2t-4 6t3 8l438 668q5 9 9 12.5t11 3.5h53q6 0 10 -3.5zM817 195l-285 436h-10l-285 -436h580zM387 886q0 14 13 14
h29q13 0 13 -14q2 -34 18.5 -54t49.5 -20h33q33 0 49.5 20t18.5 54q0 14 13 14h29q13 0 13 -14q0 -62 -29.5 -92t-89.5 -30h-41q-119 0 -119 122zM561.5 946q-16.5 6 -41.5 19q-22 11 -36 16.5t-33 5.5q-15 0 -28 -4t-30 -15q-4 -3 -8 -3t-8 7l-13 29q0 3 -1 5q0 6 8 11
q42 27 84 27q22 0 40 -6.5t38 -18.5q21 -11 36 -16.5t34 -5.5q16 0 29 4t30 15q5 3 8 3q4 0 7 -7l13 -29q1 -2 1 -5q0 -7 -8 -12q-43 -26 -83 -26q-22 0 -38.5 6z" />
    <glyph glyph-name="uni1EB5" unicode="&#x1eb5;" horiz-adv-x="722" 
d="M69.5 32.5q-39.5 37.5 -39.5 111.5t38 108t111 34h429v32q0 48 -12 75t-42 40t-86 13h-238q-55 0 -78.5 -15.5t-28.5 -51.5q-1 -7 -4.5 -10t-11.5 -3h-31q-9 0 -13 4.5t-4 16.5q0 57 38.5 87t122.5 30h259q105 0 149 -43t44 -138v-309q0 -14 -14 -14h-36q-14 0 -14 14v57
h-6q-26 -34 -66.5 -55t-97.5 -21h-257q-72 0 -111.5 37.5zM569 86q39 31 39 79v68h-426q-44 0 -66 -19.5t-22 -68.5q0 -48 22 -69t66 -21h288q60 0 99 31zM224 686q0 14 13 14h29q13 0 13 -14q2 -34 18.5 -54t49.5 -20h33q33 0 49.5 20t18.5 54q0 14 13 14h29q13 0 13 -14
q0 -62 -29.5 -92t-89.5 -30h-41q-119 0 -119 122zM398.5 746q-16.5 6 -41.5 19q-22 11 -36 16.5t-33 5.5q-15 0 -28 -4t-30 -15q-4 -3 -8 -3t-8 7l-13 29q0 3 -1 5q0 6 8 11q42 27 84 27q22 0 40 -6.5t38 -18.5q21 -11 36 -16.5t34 -5.5q16 0 29 4t30 15q5 3 8 3q4 0 7 -7
l13 -29q1 -2 1 -5q0 -7 -8 -12q-43 -26 -83 -26q-22 0 -38.5 6z" />
    <glyph glyph-name="uni1EB6" unicode="&#x1eb6;" horiz-adv-x="1054" 
d="M564 696.5q4 -3.5 9 -12.5l438 -668q3 -4 3 -8q0 -8 -12 -8h-46q-8 0 -12 3.5t-10 12.5l-78 120h-658l-78 -120q-6 -9 -10 -12.5t-11 -3.5h-46q-5 0 -9 2t-4 6t3 8l438 668q5 9 9 12.5t11 3.5h53q6 0 10 -3.5zM817 195l-285 436h-10l-285 -436h580zM488 -174.5
q-3 2.5 -3 10.5v58q0 7 3 10t10 3h58q8 0 10.5 -3t2.5 -10v-58q0 -8 -2.5 -10.5t-10.5 -2.5h-58q-7 0 -10 2.5zM387 886q0 14 13 14h29q13 0 13 -14q2 -34 18.5 -54t49.5 -20h33q33 0 49.5 20t18.5 54q0 14 13 14h29q13 0 13 -14q0 -62 -29.5 -92t-89.5 -30h-41
q-119 0 -119 122z" />
    </font>
</defs>
</svg>
